<?xml version="1.0" encoding="UTF-8"?>
<!DOCTYPE svg PUBLIC "-//W3C//DTD SVG 1.1//EN" "http://www.w3.org/Graphics/SVG/1.1/DTD/svg11.dtd">
<!-- Creator: CorelDRAW 2018 (64-Bit Evaluation Version) -->
<svg xmlns="http://www.w3.org/2000/svg" xml:space="preserve" width="20px" height="20px" version="1.1" style="shape-rendering:geometricPrecision; text-rendering:geometricPrecision; image-rendering:optimizeQuality; fill-rule:evenodd; clip-rule:evenodd"
viewBox="0 0 20 20"
 xmlns:xlink="http://www.w3.org/1999/xlink">
 <defs>
  <style type="text/css">
   <![CDATA[
    .fil9 {fill:#86AB3C}
    .fil12 {fill:#8FBA3A}
    .fil11 {fill:#A8C769}
    .fil1 {fill:#B069D6}
    .fil0 {fill:#B8EEFF}
    .fil4 {fill:#BF82E0}
    .fil3 {fill:#CFA2E8}
    .fil7 {fill:#FCE065}
    .fil6 {fill:#FFF596}
    .fil8 {fill:#0790BA;fill-rule:nonzero}
    .fil10 {fill:#52750B;fill-rule:nonzero}
    .fil13 {fill:#6E9C13;fill-rule:nonzero}
    .fil2 {fill:#8E3DBA;fill-rule:nonzero}
    .fil5 {fill:#A356CC;fill-rule:nonzero}
   ]]>
  </style>
 </defs>
 <g id="Layer_x0020_1">
  <metadata id="CorelCorpID_0Corel-Layer"/>
  <g id="_2463529666896">
   <rect class="fil0" transform="matrix(0.109297 -0.0386472 0.0386464 0.109299 0.381786 4.30856)" width="106.252" height="142.503" rx="4.062" ry="4.062"/>
   <path class="fil1" d="M10.337 15.987c0.323,-1.407 0.975,-3.994 1.371,-5.445 0.397,-1.45 0.537,-1.763 0.774,-1.906 0.236,-0.144 0.568,-0.118 1.926,0.862 0.342,0.247 0.751,0.556 1.19,0.895l1.747 4.941c0.087,0.244 -0.043,0.514 -0.287,0.601l-8.54 3.019c0.013,-0.013 0.027,-0.028 0.042,-0.042 0.272,-0.264 0.871,-0.667 1.167,-0.981 0.295,-0.314 0.288,-0.538 0.61,-1.944z"/>
   <path class="fil2" d="M10.168 15.948c0.162,-0.707 0.405,-1.702 0.656,-2.701 0.251,-0.994 0.514,-2.007 0.717,-2.75 0.201,-0.733 0.337,-1.18 0.454,-1.464 0.131,-0.319 0.247,-0.454 0.397,-0.545 0.162,-0.098 0.348,-0.141 0.696,-0.004 0.294,0.116 0.729,0.374 1.421,0.873 0.184,0.133 0.373,0.272 0.563,0.416 0.188,0.141 0.401,0.305 0.632,0.483l0.058 0.079 1.747 4.941c0.059,0.167 0.044,0.343 -0.027,0.492 -0.07,0.149 -0.199,0.271 -0.366,0.33l-8.54 3.02 -0.173 -0.275 -0.01 -0.009 0.047 -0.048c0.125,-0.12 0.312,-0.266 0.508,-0.419 0.239,-0.188 0.495,-0.387 0.652,-0.555 0.203,-0.216 0.244,-0.4 0.408,-1.15 0.041,-0.186 0.089,-0.408 0.16,-0.714zm0.993 -2.617c-0.253,1.004 -0.495,1.998 -0.655,2.694 -0.058,0.256 -0.113,0.503 -0.158,0.71 -0.181,0.825 -0.225,1.029 -0.496,1.315 -0.122,0.13 -0.291,0.273 -0.469,0.414l7.618 -2.693c0.076,-0.027 0.135,-0.083 0.168,-0.152 0.033,-0.069 0.039,-0.151 0.012,-0.227l-1.73 -4.893c-0.194,-0.151 -0.392,-0.301 -0.588,-0.449 -0.21,-0.158 -0.398,-0.297 -0.557,-0.411 -0.665,-0.481 -1.074,-0.726 -1.344,-0.832 -0.217,-0.085 -0.315,-0.069 -0.39,-0.024 -0.087,0.053 -0.16,0.146 -0.256,0.382 -0.112,0.27 -0.245,0.706 -0.441,1.423 -0.194,0.711 -0.457,1.724 -0.714,2.743z"/>
   <path class="fil3" d="M2.945 11.558c0.113,-0.428 0.219,-0.825 0.314,-1.175 0.552,-2.019 0.749,-2.455 1.078,-2.654 0.328,-0.2 0.791,-0.163 2.681,1.2 1.89,1.365 5.207,4.056 6.965,5.493 1.757,1.435 1.953,1.616 1.967,1.819 0.002,0.029 0.001,0.058 -0.012,0.09l-9.605 3.396c-0.244,0.086 -0.515,-0.043 -0.601,-0.287l-2.787 -7.882z"/>
   <path class="fil4" d="M4.586 7.643c0.352,-0.034 0.958,0.222 2.432,1.286 1.89,1.365 5.207,4.056 6.965,5.493 1.757,1.435 1.953,1.616 1.967,1.819 0.002,0.029 0.001,0.058 -0.012,0.09l-6.772 2.394c0.029,-1.119 0.011,-2.741 -0.426,-3.878 -0.48,-1.251 -1.47,-1.913 -2.192,-2.74 -0.722,-0.827 -1.174,-1.82 -1.467,-2.59 -0.293,-0.77 -0.426,-1.317 -0.473,-1.652 -0.013,-0.087 -0.02,-0.159 -0.022,-0.222z"/>
   <path class="fil5" d="M2.777 11.514l0.167 -0.627 0.148 -0.549c0.278,-1.016 0.467,-1.635 0.629,-2.03 0.177,-0.428 0.33,-0.608 0.526,-0.728 0.207,-0.125 0.449,-0.179 0.908,0.002 0.406,0.159 1.007,0.516 1.965,1.207 0.951,0.687 2.254,1.702 3.538,2.724 1.261,1.003 2.542,2.045 3.434,2.774 0.885,0.723 1.376,1.13 1.646,1.379 0.313,0.29 0.376,0.416 0.386,0.564 0.001,0.023 0.001,0.048 -0.003,0.075 -0.003,0.029 -0.01,0.059 -0.022,0.089l-0.029 0.074 -9.679 3.423c-0.166,0.059 -0.343,0.044 -0.492,-0.027 -0.149,-0.071 -0.272,-0.199 -0.331,-0.366l-2.787 -7.882 -0.004 -0.102zm0.502 -0.538l-0.153 0.574 2.77 7.832c0.027,0.077 0.083,0.136 0.153,0.169 0.067,0.033 0.149,0.039 0.226,0.012l9.49 -3.356c-0.024,-0.052 -0.091,-0.128 -0.263,-0.286 -0.27,-0.25 -0.756,-0.653 -1.629,-1.365 -0.865,-0.707 -2.121,-1.729 -3.431,-2.772 -1.286,-1.023 -2.587,-2.037 -3.525,-2.714 -0.932,-0.673 -1.508,-1.016 -1.888,-1.166 -0.327,-0.128 -0.48,-0.101 -0.603,-0.027 -0.133,0.081 -0.242,0.218 -0.384,0.563 -0.156,0.378 -0.341,0.986 -0.615,1.989l-0.148 0.547z"/>
   <circle class="fil6" transform="matrix(0.109297 -0.0386472 0.0386464 0.109299 9.06302 6.02225)" r="7.813"/>
   <path class="fil7" d="M8.684 4.95c0.296,-0.104 0.607,-0.08 0.869,0.046l0 0.001c0.263,0.126 0.478,0.351 0.582,0.646 0.105,0.296 0.079,0.606 -0.046,0.869 -0.126,0.263 -0.351,0.478 -0.647,0.582 -0.295,0.104 -0.606,0.079 -0.869,-0.046 -0.263,-0.126 -0.478,-0.352 -0.582,-0.647 -0.105,-0.296 -0.08,-0.606 0.045,-0.869 0.126,-0.262 0.351,-0.477 0.648,-0.582zm0.077 0.218c0.471,-0.167 0.989,0.081 1.156,0.552 0.166,0.472 -0.081,0.989 -0.552,1.156 -0.472,0.166 -0.989,-0.08 -1.156,-0.552 -0.167,-0.472 0.08,-0.989 0.552,-1.156z"/>
   <path class="fil8" d="M0.729 3.879l10.729 -3.794c0.196,-0.068 0.403,-0.051 0.577,0.032l0.028 0.015c0.163,0.087 0.296,0.232 0.362,0.418l5.193 14.688c0.07,0.197 0.053,0.405 -0.031,0.58l-0.015 0.028c-0.086,0.163 -0.231,0.295 -0.417,0.361l-10.726 3.793c-0.197,0.07 -0.405,0.053 -0.58,-0.031l-0.028 -0.015c-0.163,-0.086 -0.296,-0.232 -0.362,-0.418l-5.193 -14.687c-0.07,-0.198 -0.053,-0.406 0.03,-0.581l0.016 -0.028c0.086,-0.163 0.231,-0.296 0.417,-0.361zm10.901 -3.241l-10.708 3.786c-0.042,0.015 -0.075,0.044 -0.096,0.08l-0.006 0.013c-0.02,0.043 -0.025,0.093 -0.009,0.139l5.194 14.688c0.015,0.042 0.044,0.075 0.079,0.096l0.014 0.006c0.042,0.02 0.092,0.025 0.139,0.008l10.725 -3.792c0.042,-0.015 0.075,-0.044 0.096,-0.079l0.006 -0.014c0.02,-0.043 0.025,-0.093 0.009,-0.139l-5.198 -14.698c-0.016,-0.037 -0.043,-0.066 -0.076,-0.086l-0.013 -0.006c-0.039,-0.019 -0.085,-0.023 -0.128,-0.012l-0.028 0.01z"/>
   <rect class="fil0" x="7.175" y="2.528" width="12.318" height="16.52" rx="0.471" ry="0.471"/>
   <path class="fil9" d="M12.668 16.856c0.773,-1.218 2.25,-3.44 3.108,-4.675 0.857,-1.236 1.093,-1.484 1.364,-1.54 0.271,-0.056 0.576,0.079 1.529,1.455 0.24,0.348 0.523,0.775 0.824,1.241l0 5.24c0,0.26 -0.212,0.471 -0.471,0.471l-9.059 0c0.017,-0.008 0.035,-0.017 0.054,-0.026 0.344,-0.158 1.044,-0.338 1.427,-0.536 0.384,-0.197 0.451,-0.411 1.224,-1.63z"/>
   <path class="fil10" d="M12.521 16.763c0.383,-0.602 0.945,-1.462 1.521,-2.329 0.571,-0.859 1.157,-1.727 1.591,-2.352 0.432,-0.623 0.71,-0.999 0.916,-1.229 0.23,-0.257 0.385,-0.346 0.556,-0.382 0.185,-0.038 0.374,-0.016 0.657,0.229 0.24,0.208 0.563,0.596 1.049,1.298 0.125,0.181 0.257,0.374 0.392,0.579 0.139,0.209 0.286,0.434 0.436,0.666l0.028 0.094 0 5.24c0,0.178 -0.073,0.339 -0.19,0.456 -0.117,0.117 -0.278,0.189 -0.455,0.189l-9.059 0 -0.081 -0.326c0.024,-0.013 0.045,-0.023 0.064,-0.032 0.16,-0.073 0.384,-0.148 0.619,-0.227 0.288,-0.097 0.596,-0.2 0.799,-0.305 0.264,-0.136 0.364,-0.297 0.769,-0.948 0.11,-0.178 0.242,-0.389 0.388,-0.621zm1.81 -2.137c-0.567,0.854 -1.127,1.71 -1.516,2.323 -0.163,0.257 -0.285,0.453 -0.387,0.618 -0.445,0.717 -0.555,0.893 -0.904,1.074 -0.16,0.082 -0.366,0.159 -0.58,0.233l8.078 0c0.082,0 0.156,-0.033 0.21,-0.086 0.053,-0.055 0.087,-0.129 0.087,-0.211l0 -5.19c-0.141,-0.217 -0.277,-0.425 -0.406,-0.619 -0.141,-0.213 -0.271,-0.406 -0.387,-0.573 -0.467,-0.675 -0.772,-1.043 -0.991,-1.232 -0.175,-0.152 -0.273,-0.17 -0.359,-0.153 -0.099,0.022 -0.199,0.085 -0.369,0.274 -0.194,0.217 -0.464,0.583 -0.889,1.195 -0.425,0.613 -1.01,1.479 -1.587,2.347z"/>
   <path class="fil11" d="M7.175 10.217c0.249,-0.366 0.481,-0.705 0.688,-1.002 1.193,-1.72 1.523,-2.066 1.9,-2.144 0.377,-0.079 0.801,0.11 2.129,2.026 1.327,1.916 3.557,5.56 4.735,7.5 1.177,1.939 1.303,2.175 1.248,2.371 -0.008,0.027 -0.019,0.055 -0.041,0.08l-10.188 0c-0.259,0 -0.471,-0.211 -0.471,-0.471l0 -8.36z"/>
   <path class="fil12" d="M10.028 7.073c0.342,0.086 0.828,0.529 1.864,2.024 1.327,1.916 3.557,5.56 4.735,7.5 1.177,1.939 1.303,2.175 1.248,2.371 -0.008,0.027 -0.019,0.055 -0.041,0.08l-7.183 0c0.4,-1.045 0.924,-2.58 0.892,-3.797 -0.037,-1.341 -0.749,-2.295 -1.154,-3.315 -0.404,-1.021 -0.501,-2.108 -0.521,-2.931 -0.019,-0.823 0.039,-1.384 0.105,-1.716 0.018,-0.085 0.035,-0.156 0.055,-0.216z"/>
   <path class="fil13" d="M7.032 10.119l0.365 -0.535 0.323 -0.467c0.601,-0.866 0.986,-1.388 1.27,-1.705 0.309,-0.345 0.513,-0.464 0.738,-0.511 0.237,-0.049 0.483,-0.02 0.857,0.304 0.329,0.286 0.776,0.822 1.449,1.793 0.668,0.965 1.558,2.356 2.428,3.748 0.854,1.366 1.714,2.776 2.312,3.761 0.593,0.976 0.921,1.523 1.092,1.848 0.199,0.378 0.216,0.517 0.176,0.66 -0.006,0.022 -0.014,0.045 -0.027,0.07 -0.013,0.026 -0.029,0.052 -0.05,0.077l-0.053 0.06 -10.266 0c-0.177,0 -0.338,-0.072 -0.455,-0.189 -0.117,-0.117 -0.19,-0.278 -0.19,-0.456l0 -8.36 0.031 -0.098zm0.652 -0.339l-0.335 0.49 0 8.307c0,0.082 0.034,0.156 0.087,0.21 0.054,0.054 0.128,0.087 0.21,0.087l10.066 0c-0.006,-0.056 -0.044,-0.151 -0.152,-0.357 -0.172,-0.326 -0.496,-0.867 -1.082,-1.831 -0.579,-0.954 -1.423,-2.337 -2.31,-3.756 -0.871,-1.394 -1.76,-2.783 -2.419,-3.734 -0.655,-0.945 -1.083,-1.461 -1.392,-1.729 -0.265,-0.23 -0.419,-0.255 -0.558,-0.226 -0.153,0.031 -0.302,0.124 -0.551,0.402 -0.273,0.304 -0.649,0.816 -1.242,1.67l-0.322 0.467z"/>
   <circle class="fil6" cx="14.788" cy="7.038" r="0.906"/>
   <path class="fil7" d="M14.788 5.9c0.314,0 0.598,0.127 0.804,0.333 0.206,0.206 0.334,0.491 0.334,0.804 0,0.314 -0.127,0.599 -0.333,0.804 -0.206,0.207 -0.491,0.334 -0.805,0.334 -0.313,0 -0.597,-0.128 -0.804,-0.334 -0.206,-0.206 -0.333,-0.49 -0.333,-0.804 0,-0.313 0.127,-0.598 0.333,-0.804 0.206,-0.206 0.49,-0.333 0.804,-0.333zm0 0.232c0.5,0 0.906,0.405 0.906,0.905 0,0.5 -0.406,0.906 -0.906,0.906 -0.499,0 -0.905,-0.406 -0.905,-0.906 0,-0.5 0.406,-0.905 0.905,-0.905z"/>
   <path class="fil8" d="M7.646 2.238l11.376 0c0.209,0 0.4,0.086 0.537,0.223l0.019 0.021c0.127,0.137 0.205,0.318 0.205,0.517l0 15.578c0,0.209 -0.086,0.398 -0.224,0.537l-0.001 0.001c-0.139,0.138 -0.328,0.223 -0.536,0.223l-11.376 0c-0.208,0 -0.399,-0.086 -0.537,-0.224l0 0.001c-0.138,-0.138 -0.224,-0.328 -0.224,-0.538l0 -15.578c0,-0.21 0.086,-0.4 0.224,-0.538 0.137,-0.137 0.327,-0.223 0.537,-0.223zm11.376 0.58l-11.376 0c-0.05,0 -0.095,0.02 -0.128,0.053 -0.033,0.033 -0.053,0.078 -0.053,0.128l0 15.578c0,0.05 0.02,0.095 0.053,0.128l0 0.001c0.032,0.033 0.078,0.053 0.128,0.053l11.376 0c0.05,0 0.095,-0.02 0.128,-0.053l0.001 -0.001c0.032,-0.032 0.052,-0.077 0.052,-0.128l0 -15.578c0,-0.046 -0.017,-0.087 -0.043,-0.118l-0.01 -0.01c-0.033,-0.033 -0.079,-0.053 -0.128,-0.053z"/>
  </g>
 </g>
</svg>
