<?xml version="1.0" encoding="UTF-8"?>
<!DOCTYPE svg PUBLIC "-//W3C//DTD SVG 1.1//EN" "http://www.w3.org/Graphics/SVG/1.1/DTD/svg11.dtd">
<!-- Creator: CorelDRAW 2018 (64-Bit Evaluation Version) -->
<svg xmlns="http://www.w3.org/2000/svg" xml:space="preserve" width="32px" height="30px" version="1.1" style="shape-rendering:geometricPrecision; text-rendering:geometricPrecision; image-rendering:optimizeQuality; fill-rule:evenodd; clip-rule:evenodd"
viewBox="0 0 32 29.999"
 xmlns:xlink="http://www.w3.org/1999/xlink">
 <defs>
  <style type="text/css">
   <![CDATA[
    .fil0 {fill:#1A1A1A}
    .fil1 {fill:#1A1A1A;fill-rule:nonzero}
    .fil2 {fill:#F73F4B;fill-rule:nonzero}
   ]]>
  </style>
 </defs>
 <g id="Layer_x0020_1">
  <metadata id="CorelCorpID_0Corel-Layer"/>
  <g id="_2463444137488">
   <path class="fil0" d="M15.194 6.092l1.087 0c0.297,0 0.54,0.242 0.54,0.539l0 16.788c0,0.297 -0.243,0.541 -0.54,0.541l-1.087 0c-0.297,0 -0.54,-0.244 -0.54,-0.541l0 -16.788c0,-0.297 0.242,-0.539 0.54,-0.539zm-8.108 0l0.124 0c0.297,0 0.539,0.242 0.539,0.539l0 16.788c0,0.297 -0.243,0.541 -0.539,0.541l-0.124 0c-0.297,0 -0.54,-0.244 -0.54,-0.541l0 -16.788c0,-0.297 0.242,-0.539 0.54,-0.539zm17.324 0l1.088 0c0.297,0 0.54,0.242 0.54,0.539l0 16.788c0,0.297 -0.243,0.541 -0.54,0.541l-1.088 0c-0.297,0 -0.54,-0.244 -0.54,-0.541l0 -16.788c0,-0.297 0.243,-0.539 0.54,-0.539zm-2.807 0l0.124 0c0.297,0 0.54,0.242 0.54,0.539l0 16.788c0,0.297 -0.243,0.541 -0.54,0.541l-0.124 0c-0.297,0 -0.54,-0.244 -0.54,-0.541l0 -16.788c0,-0.297 0.243,-0.539 0.54,-0.539zm-2.553 0l0.124 0c0.297,0 0.54,0.242 0.54,0.539l0 16.788c0,0.297 -0.243,0.541 -0.54,0.541l-0.124 0c-0.297,0 -0.54,-0.244 -0.54,-0.541l0 -16.788c0,-0.297 0.243,-0.539 0.54,-0.539zm-9.112 0l2.704 0c0.297,0 0.54,0.242 0.54,0.539l0 16.788c0,0.298 -0.243,0.541 -0.54,0.541l-2.704 0c-0.297,0 -0.54,-0.243 -0.54,-0.541l0 -16.788c0,-0.297 0.243,-0.539 0.54,-0.539z"/>
   <path class="fil1" d="M2.835 0.625l26.523 0c0.778,0 1.486,0.319 1.999,0.832l0.003 0c0.514,0.514 0.833,1.223 0.833,2.002l0 23.081c0,0.781 -0.319,1.49 -0.833,2.003 -0.513,0.514 -1.222,0.832 -2.002,0.832l-26.523 0c-0.78,0 -1.489,-0.318 -2.002,-0.832l0 -0.003c-0.514,-0.513 -0.833,-1.221 -0.833,-2l0 -23.081c0,-0.777 0.319,-1.485 0.833,-1.999l0.003 -0.003c0.513,-0.513 1.222,-0.832 1.999,-0.832zm26.523 1.62l-26.523 0c-0.335,0 -0.639,0.136 -0.859,0.356 -0.22,0.22 -0.356,0.524 -0.356,0.858l0 23.081c0,0.335 0.136,0.639 0.356,0.86 0.222,0.219 0.526,0.355 0.859,0.355l26.523 0c0.333,0 0.637,-0.136 0.857,-0.357 0.221,-0.221 0.358,-0.524 0.358,-0.858l0 -23.081c0,-0.333 -0.137,-0.637 -0.358,-0.857 -0.218,-0.221 -0.522,-0.357 -0.857,-0.357z"/>
   <path class="fil2" d="M4.19 16c-0.552,0 -1,-0.448 -1,-1 0,-0.552 0.448,-1 1,-1l23.813 0c0.552,0 1,0.448 1,1 0,0.552 -0.448,1 -1,1l-23.813 0z"/>
  </g>
 </g>
</svg>
