<?xml version="1.0" encoding="UTF-8"?>
<!DOCTYPE svg PUBLIC "-//W3C//DTD SVG 1.1//EN" "http://www.w3.org/Graphics/SVG/1.1/DTD/svg11.dtd">
<!-- Creator: CorelDRAW 2018 (64-Bit Evaluation Version) -->
<svg xmlns="http://www.w3.org/2000/svg" xml:space="preserve" width="25px" height="25px" version="1.1" style="shape-rendering:geometricPrecision; text-rendering:geometricPrecision; image-rendering:optimizeQuality; fill-rule:evenodd; clip-rule:evenodd"
viewBox="0 0 25 25"
 xmlns:xlink="http://www.w3.org/1999/xlink">
 <defs>
  <style type="text/css">
   <![CDATA[
    .fil2 {fill:#4D4D4D}
    .fil15 {fill:#9E895C}
    .fil12 {fill:#AB8229}
    .fil17 {fill:#AB9E80}
    .fil14 {fill:#B07943}
    .fil13 {fill:#B88F37}
    .fil7 {fill:#B8A171}
    .fil18 {fill:#BA8D52}
    .fil11 {fill:#BF9B4F}
    .fil4 {fill:#C29431}
    .fil5 {fill:#C99E42}
    .fil9 {fill:#CCBFA3}
    .fil6 {fill:#CF8F4F}
    .fil10 {fill:#D6A361}
    .fil16 {fill:#D9C08B}
    .fil3 {fill:#E0B55A}
    .fil8 {fill:#EBD29E}
    .fil0 {fill:black;fill-rule:nonzero}
    .fil19 {fill:#5E5B54;fill-rule:nonzero}
    .fil1 {fill:black;fill-opacity:0.200000}
   ]]>
  </style>
 </defs>
 <g id="Layer_x0020_1">
  <metadata id="CorelCorpID_0Corel-Layer"/>
  <g id="_2500160831296">
   <path class="fil0" d="M0.608 2.158c-0.336,0 -0.608,-0.273 -0.608,-0.609 0,-0.336 0.272,-0.608 0.608,-0.608l3.916 0c0.336,0 0.609,0.272 0.609,0.608l0 16.795 19.187 0c0.336,0 0.608,0.272 0.608,0.608 0,0.336 -0.272,0.609 -0.608,0.609l-19.796 0c-0.336,0 -0.609,-0.273 -0.609,-0.609l0 -16.794 -3.307 0z"/>
   <path class="fil1" d="M13.936 23.414c5.972,0 10.814,0.355 10.814,0.793 0,0.439 -4.842,0.794 -10.814,0.794 -5.973,0 -10.815,-0.355 -10.815,-0.794 0,-0.438 4.842,-0.793 10.815,-0.793z"/>
   <path class="fil2" d="M8.246 20.56c1.111,0 2.012,0.9 2.012,2.011 0,1.111 -0.901,2.012 -2.012,2.012 -1.111,0 -2.013,-0.901 -2.013,-2.012 0,-1.111 0.902,-2.011 2.013,-2.011zm0 1.382c0.347,0 0.629,0.282 0.629,0.629 0,0.348 -0.282,0.63 -0.629,0.63 -0.348,0 -0.629,-0.282 -0.629,-0.63 0,-0.347 0.281,-0.629 0.629,-0.629z"/>
   <path class="fil2" d="M21.274 20.56c1.112,0 2.012,0.9 2.012,2.011 0,1.111 -0.9,2.012 -2.012,2.012 -1.111,0 -2.011,-0.901 -2.011,-2.012 0,-1.111 0.9,-2.011 2.011,-2.011zm0 1.382c0.348,0 0.63,0.282 0.63,0.629 0,0.348 -0.282,0.63 -0.63,0.63 -0.347,0 -0.629,-0.282 -0.629,-0.63 0,-0.347 0.282,-0.629 0.629,-0.629z"/>
   <g>
    <rect class="fil3" x="6.047" y="11.846" width="10.877" height="5.801" rx="0.431" ry="0.431"/>
    <rect class="fil4" x="6.047" y="6.045" width="5.438" height="5.801" rx="0.215" ry="0.431"/>
    <rect class="fil5" x="16.924" y="14.746" width="5.438" height="2.9" rx="0.215" ry="0.215"/>
    <rect class="fil6" x="16.924" y="11.846" width="5.438" height="2.9" rx="0.215" ry="0.215"/>
    <rect class="fil7" x="11.485" y="6.045" width="7.552" height="5.801" rx="0.299" ry="0.431"/>
    <rect class="fil8" x="8.362" y="3.144" width="5.438" height="2.9" rx="0.215" ry="0.215"/>
    <rect class="fil9" x="8.362" y="0.244" width="5.438" height="2.9" rx="0.215" ry="0.215"/>
    <rect class="fil10" transform="matrix(-0.0485848 -0.176029 0.232984 -0.0643049 14.849 6.10203)" width="22.501" height="12" rx="0.891" ry="0.891"/>
   </g>
   <path class="fil11" d="M6.477 17.647l10.016 0c0.237,0 0.43,-0.194 0.43,-0.431l0 -0.261 -9.699 0c-0.236,0 -0.43,-0.194 -0.43,-0.431l0 -4.678 -0.317 0c-0.236,0 -0.43,0.193 -0.43,0.431l0 4.939c0,0.237 0.194,0.431 0.43,0.431z"/>
   <path class="fil12" d="M6.451 11.846l4.63 0c0.223,0 0.404,-0.182 0.404,-0.404l0 -0.288 -4.288 0c-0.222,0 -0.403,-0.182 -0.403,-0.404l0 -4.705 -0.343 0c-0.222,0 -0.404,0.182 -0.404,0.404l0 4.993c0,0.222 0.182,0.404 0.404,0.404z"/>
   <path class="fil13" d="M17.139 17.647l5.007 0c0.119,0 0.216,-0.097 0.216,-0.216l0 -0.476 -4.476 0c-0.119,0 -0.216,-0.097 -0.216,-0.215l0 -1.994 -0.531 0c-0.119,0 -0.216,0.097 -0.216,0.215l0 2.47c0,0.119 0.097,0.216 0.216,0.216z"/>
   <path class="fil14" d="M17.139 14.746l5.007 0c0.119,0 0.216,-0.096 0.216,-0.215l0 -0.477 -4.476 0c-0.119,0 -0.216,-0.096 -0.216,-0.215l0 -1.993 -0.531 0c-0.119,0 -0.216,0.097 -0.216,0.215l0 2.47c0,0.119 0.097,0.215 0.216,0.215z"/>
   <path class="fil15" d="M11.916 11.846l6.69 0c0.238,0 0.432,-0.194 0.432,-0.431l0 -0.261 -6.375 0c-0.237,0 -0.431,-0.194 -0.431,-0.43l0 -4.679 -0.316 0c-0.237,0 -0.431,0.194 -0.431,0.431l0 4.939c0,0.237 0.194,0.431 0.431,0.431z"/>
   <path class="fil16" d="M8.578 6.045l5.007 0c0.119,0 0.215,-0.097 0.215,-0.215l0 -0.477 -4.475 0c-0.119,0 -0.216,-0.097 -0.216,-0.215l0 -1.994 -0.531 0c-0.119,0 -0.216,0.097 -0.216,0.216l0 2.47c0,0.118 0.097,0.215 0.216,0.215z"/>
   <path class="fil17" d="M8.578 3.144l5.007 0c0.119,0 0.215,-0.097 0.215,-0.215l0 -0.476 -4.475 0c-0.119,0 -0.216,-0.097 -0.216,-0.216l0 -1.993 -0.531 0c-0.119,0 -0.216,0.097 -0.216,0.215l0 2.47c0,0.118 0.097,0.215 0.216,0.215z"/>
   <path class="fil18" d="M17.588 5.123l-0.068 -0.244 -1.716 0.474c-0.115,0.032 -0.234,-0.036 -0.266,-0.15l-0.911 -3.303 -0.664 0.184c-0.114,0.031 -0.181,0.151 -0.15,0.265l0.978 3.545c0.032,0.115 0.151,0.182 0.266,0.15l2.38 -0.656c0.115,-0.032 0.182,-0.151 0.151,-0.265z"/>
   <g>
    <path class="fil19" d="M6.477 17.403l10.016 0c0.051,0 0.098,-0.021 0.132,-0.055 0.034,-0.034 0.055,-0.081 0.055,-0.132l0 -4.939c0,-0.052 -0.021,-0.099 -0.055,-0.133 -0.034,-0.034 -0.081,-0.055 -0.132,-0.055l-10.016 0c-0.05,0 -0.098,0.021 -0.131,0.055 -0.034,0.034 -0.055,0.081 -0.055,0.133l0 4.939c0,0.052 0.02,0.099 0.053,0.132 0.035,0.034 0.081,0.055 0.133,0.055zm10.016 0.487l-10.016 0c-0.184,0 -0.352,-0.075 -0.474,-0.198 -0.124,-0.123 -0.199,-0.291 -0.199,-0.476l0 -4.939c0,-0.186 0.076,-0.355 0.197,-0.477 0.122,-0.121 0.291,-0.198 0.476,-0.198l10.016 0c0.186,0 0.355,0.077 0.476,0.198 0.122,0.122 0.198,0.291 0.198,0.477l0 4.939c0,0.186 -0.076,0.355 -0.198,0.476 -0.122,0.122 -0.29,0.198 -0.476,0.198z"/>
    <path class="fil19" d="M6.451 11.602l4.631 0c0.044,0 0.084,-0.018 0.113,-0.047 0.029,-0.029 0.047,-0.069 0.047,-0.113l0 -4.994c0,-0.044 -0.018,-0.084 -0.047,-0.113 -0.029,-0.028 -0.069,-0.047 -0.113,-0.047l-4.631 0c-0.044,0 -0.085,0.019 -0.114,0.048 -0.029,0.028 -0.046,0.068 -0.046,0.112l0 4.994c0,0.044 0.018,0.084 0.046,0.113 0.029,0.029 0.07,0.047 0.114,0.047zm4.631 0.487l-4.631 0c-0.179,0 -0.341,-0.073 -0.458,-0.19 -0.116,-0.116 -0.189,-0.278 -0.189,-0.457l0 -4.994c0,-0.177 0.073,-0.339 0.189,-0.455 0.117,-0.119 0.279,-0.192 0.458,-0.192l4.631 0c0.178,0 0.34,0.073 0.457,0.19 0.117,0.118 0.19,0.28 0.19,0.457l0 4.994c0,0.179 -0.073,0.341 -0.19,0.457 -0.117,0.117 -0.279,0.19 -0.457,0.19z"/>
    <path class="fil19" d="M17.167 17.403l4.952 0 0 -2.414 -4.952 0 0 2.414zm4.979 0.487l-5.007 0c-0.126,0 -0.242,-0.051 -0.324,-0.135 -0.084,-0.083 -0.135,-0.197 -0.135,-0.324l0 -2.47c0,-0.126 0.051,-0.241 0.135,-0.324 0.082,-0.083 0.198,-0.134 0.324,-0.134l5.007 0c0.127,0 0.242,0.051 0.325,0.134 0.083,0.083 0.134,0.198 0.134,0.324l0 2.47c0,0.127 -0.051,0.241 -0.134,0.324 -0.083,0.084 -0.198,0.135 -0.325,0.135z"/>
    <path class="fil19" d="M17.167 14.503l4.952 0 0 -2.414 -4.952 0 0 2.414zm4.979 0.487l-5.007 0c-0.126,0 -0.242,-0.052 -0.324,-0.135 -0.084,-0.083 -0.135,-0.198 -0.135,-0.324l0 -2.47c0,-0.126 0.051,-0.241 0.135,-0.324 0.082,-0.083 0.198,-0.135 0.324,-0.135l5.007 0c0.127,0 0.242,0.052 0.325,0.135 0.083,0.083 0.134,0.198 0.134,0.324l0 2.47c0,0.126 -0.051,0.241 -0.134,0.324 -0.083,0.083 -0.198,0.135 -0.325,0.135z"/>
    <path class="fil19" d="M11.916 11.602l6.69 0c0.052,0 0.1,-0.021 0.133,-0.055 0.034,-0.034 0.055,-0.08 0.055,-0.132l0 -4.939c0,-0.052 -0.021,-0.099 -0.055,-0.133 -0.033,-0.033 -0.081,-0.055 -0.133,-0.055l-6.69 0c-0.051,0 -0.099,0.022 -0.133,0.055 -0.033,0.034 -0.054,0.081 -0.054,0.133l0 4.939c0,0.052 0.021,0.098 0.055,0.132 0.034,0.034 0.081,0.055 0.132,0.055zm6.69 0.487l-6.69 0c-0.186,0 -0.354,-0.076 -0.477,-0.197 -0.121,-0.122 -0.198,-0.291 -0.198,-0.477l0 -4.939c0,-0.185 0.077,-0.354 0.198,-0.476 0.124,-0.123 0.293,-0.199 0.477,-0.199l6.69 0c0.185,0 0.354,0.076 0.476,0.198 0.123,0.123 0.199,0.292 0.199,0.477l0 4.939c0,0.186 -0.076,0.355 -0.198,0.477 -0.123,0.121 -0.292,0.197 -0.477,0.197z"/>
    <path class="fil19" d="M8.606 5.801l4.951 0 0 -2.413 -4.951 0 0 2.413zm4.979 0.487l-5.008 0c-0.126,0 -0.241,-0.051 -0.324,-0.134 -0.082,-0.084 -0.134,-0.198 -0.134,-0.324l0 -2.47c0,-0.127 0.052,-0.242 0.134,-0.324 0.083,-0.084 0.198,-0.135 0.324,-0.135l5.008 0c0.127,0 0.241,0.051 0.325,0.135 0.083,0.082 0.134,0.197 0.134,0.324l0 2.47c0,0.126 -0.051,0.24 -0.134,0.324 -0.084,0.083 -0.198,0.134 -0.325,0.134z"/>
    <path class="fil19" d="M8.606 2.901l4.951 0 0 -2.414 -4.951 0 0 2.414zm4.979 0.487l-5.008 0c-0.126,0 -0.241,-0.052 -0.324,-0.135 -0.082,-0.083 -0.134,-0.198 -0.134,-0.324l0 -2.47c0,-0.126 0.052,-0.241 0.134,-0.324 0.083,-0.083 0.198,-0.135 0.324,-0.135l5.008 0c0.127,0 0.241,0.052 0.325,0.135 0.083,0.083 0.134,0.198 0.134,0.324l0 2.47c0,0.126 -0.052,0.241 -0.135,0.324 -0.083,0.083 -0.197,0.135 -0.324,0.135z"/>
    <path class="fil19" d="M17.347 5.161l-0.965 -3.493 -2.328 0.642 0.964 3.494 2.329 -0.643zm-0.505 -3.649l0.979 3.546c0.034,0.122 0.015,0.246 -0.043,0.348 -0.057,0.102 -0.154,0.182 -0.276,0.216l-2.38 0.656c-0.123,0.033 -0.248,0.015 -0.349,-0.043 -0.101,-0.057 -0.181,-0.154 -0.214,-0.275l-0.979 -3.546c-0.034,-0.123 -0.015,-0.247 0.043,-0.349 0.058,-0.101 0.154,-0.181 0.275,-0.215l2.382 -0.656c0.121,-0.034 0.246,-0.015 0.347,0.043 0.101,0.057 0.182,0.154 0.215,0.275z"/>
   </g>
  </g>
 </g>
</svg>
