<?xml version="1.0" encoding="UTF-8"?>
<!DOCTYPE svg PUBLIC "-//W3C//DTD SVG 1.1//EN" "http://www.w3.org/Graphics/SVG/1.1/DTD/svg11.dtd">
<!-- Creator: CorelDRAW 2018 (64-Bit Evaluation Version) -->
<svg xmlns="http://www.w3.org/2000/svg" xml:space="preserve" width="29px" height="25px" version="1.1" style="shape-rendering:geometricPrecision; text-rendering:geometricPrecision; image-rendering:optimizeQuality; fill-rule:evenodd; clip-rule:evenodd"
viewBox="0 0 29 25"
 xmlns:xlink="http://www.w3.org/1999/xlink">
 <defs>
  <style type="text/css">
   <![CDATA[
    .fil2 {fill:#D1C2A5}
    .fil3 {fill:#EBB01A}
    .fil0 {fill:#F7E7C3}
    .fil1 {fill:#FAF2E1}
    .fil4 {fill:#25323D;fill-rule:nonzero}
   ]]>
  </style>
 </defs>
 <g id="Layer_x0020_1">
  <metadata id="CorelCorpID_0Corel-Layer"/>
  <g id="_2500177767488">
   <path class="fil0" d="M26.82 1.957l-7.92 0 0 12.062c0,0.141 -0.026,0.283 -0.077,0.416l-0.002 0.003c-0.052,0.134 -0.13,0.26 -0.233,0.367 -0.032,0.033 -0.072,0.068 -0.115,0.102 -0.198,0.153 -0.431,0.221 -0.662,0.207 -0.23,-0.014 -0.453,-0.108 -0.632,-0.28 -0.038,-0.038 -0.074,-0.078 -0.107,-0.121l-0.321 -0.417c-0.129,0.169 -0.257,0.333 -0.382,0.48l-0.027 0.029c-0.036,0.038 -0.075,0.072 -0.115,0.102 -0.197,0.153 -0.432,0.221 -0.662,0.207 -0.23,-0.013 -0.454,-0.109 -0.632,-0.28 -0.039,-0.038 -0.075,-0.078 -0.107,-0.121l-0.322 -0.417c-0.129,0.169 -0.257,0.333 -0.383,0.48l-0.026 0.029c-0.036,0.037 -0.075,0.072 -0.115,0.103l-0.002 0.002c-0.197,0.15 -0.429,0.218 -0.66,0.204 -0.229,-0.014 -0.453,-0.108 -0.632,-0.28l-0.004 -0.005c-0.035,-0.034 -0.07,-0.072 -0.102,-0.116l-0.326 -0.423 -0.284 0.368c-0.089,0.133 -0.207,0.245 -0.346,0.326 -0.149,0.086 -0.318,0.135 -0.494,0.135 -0.302,0 -0.57,-0.136 -0.759,-0.356 -0.168,-0.196 -0.274,-0.46 -0.274,-0.744l0 -12.062 -7.917 0c-0.824,0 -1.498,0.675 -1.498,1.498l0 20.414c0,0.823 0.674,1.498 1.498,1.498l24.64 0c0.824,0 1.498,-0.675 1.498,-1.498l0 -20.414c0,-0.823 -0.674,-1.498 -1.498,-1.498z"/>
   <path class="fil1" d="M23.323 1.882l4.736 22.829 0.141 -0.371c0.041,-0.151 0.062,-0.308 0.062,-0.471l0.056 -20.414c0,-0.511 -0.05,-0.812 -0.389,-1.15 -0.336,-0.338 -0.596,-0.348 -1.109,-0.348l-3.497 -0.075z"/>
   <path class="fil2" d="M2.182 1.957l1.314 0 -0.002 0.07 0 20.414c0,0.823 0.674,1.498 1.498,1.498l23.326 0c-0.037,0.791 -0.696,1.428 -1.497,1.428l-24.639 0c-0.825,0 -1.499,-0.675 -1.499,-1.498l0 -20.414c0,-0.823 0.674,-1.498 1.499,-1.498z"/>
   <path class="fil3" d="M17.87 0.734l-6.74 0c-0.232,0 -0.421,0.219 -0.421,0.489l0 12.796c0,0.27 0.189,0.489 0.421,0.489 0.138,0 0.261,-0.078 0.338,-0.197l0.786 -1.019 0.81 1.052c0.154,0.2 0.42,0.217 0.592,0.038 0.287,-0.337 0.568,-0.733 0.844,-1.09l0.81 1.052c0.155,0.2 0.42,0.217 0.593,0.038 0.286,-0.337 0.568,-0.733 0.843,-1.09l0.811 1.052c0.154,0.2 0.42,0.217 0.592,0.038 0.093,-0.096 0.14,-0.229 0.14,-0.363l0.002 -12.796c0,-0.27 -0.189,-0.489 -0.421,-0.489z"/>
   <path class="fil4" d="M26.82 1.59l-8.53 0 0 0.734 8.53 0c0.311,0 0.594,0.128 0.799,0.333 0.205,0.204 0.333,0.487 0.333,0.798l0 20.414c0,0.311 -0.128,0.594 -0.332,0.798 -0.205,0.206 -0.489,0.333 -0.8,0.333l-24.64 0c-0.311,0 -0.595,-0.127 -0.799,-0.331 -0.205,-0.206 -0.333,-0.49 -0.333,-0.8l0 -20.414c0,-0.31 0.128,-0.593 0.333,-0.798 0.205,-0.205 0.489,-0.333 0.799,-0.333l8.529 0 0 -0.734 -8.529 0c-0.513,0 -0.98,0.211 -1.318,0.548 -0.337,0.338 -0.547,0.805 -0.547,1.317l0 20.414c0,0.513 0.21,0.979 0.547,1.317 0.339,0.338 0.806,0.548 1.318,0.548l24.64 0c0.512,0 0.978,-0.21 1.316,-0.548 0.34,-0.339 0.549,-0.805 0.549,-1.317l0 -20.414c0,-0.511 -0.21,-0.978 -0.548,-1.316 -0.337,-0.338 -0.804,-0.549 -1.317,-0.549z"/>
  </g>
 </g>
</svg>
