<?xml version="1.0" encoding="UTF-8"?>
<!DOCTYPE svg PUBLIC "-//W3C//DTD SVG 1.1//EN" "http://www.w3.org/Graphics/SVG/1.1/DTD/svg11.dtd">
<!-- Creator: CorelDRAW 2018 (64-Bit Evaluation Version) -->
<svg xmlns="http://www.w3.org/2000/svg" xml:space="preserve" width="15px" height="20px" version="1.1" style="shape-rendering:geometricPrecision; text-rendering:geometricPrecision; image-rendering:optimizeQuality; fill-rule:evenodd; clip-rule:evenodd"
viewBox="0 0 15 20.001"
 xmlns:xlink="http://www.w3.org/1999/xlink">
 <defs>
  <style type="text/css">
   <![CDATA[
    .fil3 {fill:#333333}
    .fil0 {fill:#6B4D38}
    .fil7 {fill:gray}
    .fil4 {fill:#999999}
    .fil5 {fill:#B3B3B3}
    .fil2 {fill:whitesmoke}
    .fil1 {fill:#1F1817;fill-rule:nonzero}
    .fil6 {fill:#4D4D4D;fill-rule:nonzero}
   ]]>
  </style>
 </defs>
 <g id="Layer_x0020_1">
  <metadata id="CorelCorpID_0Corel-Layer"/>
  <g id="_2500112630480">
   <rect class="fil0" x="0.405" y="1.891" width="14.189" height="17.848" rx="0.802" ry="0.802"/>
   <path class="fil1" d="M1.207 1.719l12.585 0c0.268,0 0.512,0.109 0.688,0.286 0.176,0.176 0.286,0.419 0.286,0.688l0 16.244c0,0.267 -0.11,0.51 -0.286,0.687 -0.176,0.176 -0.42,0.286 -0.688,0.286l-12.585 0c-0.267,0 -0.511,-0.11 -0.687,-0.286 -0.177,-0.177 -0.286,-0.42 -0.286,-0.687l0 -16.244c0,-0.269 0.109,-0.512 0.285,-0.688 0.177,-0.177 0.421,-0.286 0.688,-0.286zm12.585 0.343l-12.585 0c-0.173,0 -0.331,0.071 -0.446,0.185 -0.114,0.114 -0.185,0.272 -0.185,0.446l0 16.244c0,0.173 0.071,0.331 0.185,0.445 0.115,0.114 0.273,0.185 0.446,0.185l12.585 0c0.173,0 0.331,-0.071 0.446,-0.185 0.114,-0.114 0.185,-0.272 0.185,-0.445l0 -16.244c0,-0.174 -0.071,-0.332 -0.185,-0.446 -0.115,-0.114 -0.273,-0.185 -0.446,-0.185z"/>
   <rect class="fil2" x="1.818" y="3.526" width="11.363" height="15.559" rx="0.697" ry="0.759"/>
   <path class="fil3" d="M2.411 3.363l10.177 0c0.392,0 0.712,0.321 0.712,0.712l0 14.461c0,0.391 -0.32,0.712 -0.712,0.712l-10.177 0c-0.392,0 -0.712,-0.321 -0.712,-0.712l0 -14.461c0,-0.391 0.32,-0.712 0.712,-0.712zm10.177 0.342l-10.177 0c-0.102,0 -0.194,0.042 -0.261,0.108l0 0.002c-0.066,0.066 -0.108,0.159 -0.108,0.26l0 14.461c0,0.101 0.042,0.194 0.108,0.26 0.067,0.067 0.16,0.109 0.261,0.109l10.177 0c0.102,0 0.194,-0.042 0.26,-0.109l0.002 0c0.066,-0.066 0.108,-0.158 0.108,-0.26l0 -14.461c0,-0.102 -0.042,-0.194 -0.108,-0.26l-0.002 -0.002c-0.066,-0.066 -0.158,-0.108 -0.26,-0.108z"/>
   <rect class="fil4" x="3.461" y="5.529" width="4.797" height="1.428" rx="0.201" ry="0.201"/>
   <rect class="fil4" x="3.261" y="8.429" width="8.477" height="1.428" rx="0.355" ry="0.201"/>
   <rect class="fil4" x="3.261" y="10.591" width="8.477" height="1.428" rx="0.355" ry="0.201"/>
   <rect class="fil4" x="3.261" y="12.791" width="8.477" height="1.428" rx="0.355" ry="0.201"/>
   <rect class="fil4" x="3.461" y="16.505" width="3.112" height="1.428" rx="0.13" ry="0.201"/>
   <path class="fil5" d="M3.099 1.113l3.285 0c0,-0.616 0.499,-1.115 1.115,-1.115 0.616,0 1.116,0.499 1.116,1.115l3.286 0c0.116,0 0.211,0.095 0.211,0.211l0 2.878c0,0.116 -0.095,0.212 -0.211,0.212l-8.802 0c-0.116,0 -0.212,-0.096 -0.212,-0.212l0 -2.878c0,-0.116 0.096,-0.211 0.212,-0.211zm4.4 -0.369c0.204,0 0.37,0.165 0.37,0.369 0,0.203 -0.166,0.369 -0.37,0.369 -0.203,0 -0.368,-0.166 -0.368,-0.369 0,-0.204 0.165,-0.369 0.368,-0.369z"/>
   <path class="fil6" d="M3.099 1.024l3.199 0c0.022,-0.298 0.151,-0.565 0.35,-0.763 0.218,-0.218 0.519,-0.353 0.851,-0.353 0.334,0 0.635,0.135 0.853,0.353 0.197,0.198 0.327,0.465 0.349,0.763l3.2 0c0.082,0 0.157,0.033 0.212,0.088 0.054,0.054 0.088,0.13 0.088,0.212l0 2.878c0,0.083 -0.034,0.158 -0.088,0.213 -0.055,0.054 -0.13,0.088 -0.212,0.088l-8.802 0c-0.083,0 -0.158,-0.034 -0.213,-0.088 -0.054,-0.055 -0.088,-0.13 -0.088,-0.213l0 -2.878c0,-0.082 0.034,-0.158 0.088,-0.212 0.055,-0.055 0.13,-0.088 0.213,-0.088zm3.285 0.178l-3.285 0c-0.034,0 -0.065,0.014 -0.086,0.036 -0.023,0.022 -0.036,0.052 -0.036,0.086l0 2.878c0,0.034 0.013,0.064 0.036,0.086 0.021,0.023 0.052,0.036 0.086,0.036l8.802 0c0.033,0 0.064,-0.013 0.086,-0.035 0.022,-0.023 0.036,-0.053 0.036,-0.087l0 -2.878c0,-0.034 -0.014,-0.064 -0.036,-0.086 -0.022,-0.022 -0.053,-0.036 -0.086,-0.036l-3.375 0 0 -0.089c0,-0.283 -0.115,-0.54 -0.301,-0.726 -0.185,-0.185 -0.442,-0.3 -0.726,-0.3 -0.282,0 -0.539,0.115 -0.725,0.3 -0.185,0.186 -0.3,0.443 -0.3,0.726l0 0.089 -0.09 0zm1.115 -0.547c0.127,0 0.241,0.051 0.324,0.134 0.083,0.083 0.135,0.198 0.135,0.324 0,0.127 -0.052,0.241 -0.134,0.324 -0.084,0.083 -0.198,0.134 -0.325,0.134 -0.126,0 -0.241,-0.051 -0.323,-0.134 -0.083,-0.083 -0.134,-0.197 -0.134,-0.324 0,-0.126 0.051,-0.241 0.134,-0.324 0.082,-0.083 0.197,-0.134 0.323,-0.134zm0.198 0.26c-0.05,-0.05 -0.12,-0.082 -0.198,-0.082 -0.076,0 -0.147,0.032 -0.197,0.082 -0.051,0.051 -0.082,0.12 -0.082,0.198 0,0.077 0.031,0.147 0.082,0.198 0.05,0.05 0.121,0.082 0.197,0.082 0.078,0 0.148,-0.032 0.198,-0.082 0.051,-0.051 0.082,-0.121 0.082,-0.198 0,-0.078 -0.031,-0.147 -0.082,-0.198z"/>
   <rect class="fil7" x="3.261" y="2.004" width="8.477" height="0.548" rx="1.262" ry="0.274"/>
   <rect class="fil7" x="3.261" y="3.089" width="8.477" height="0.548" rx="1.262" ry="0.274"/>
  </g>
 </g>
</svg>
