<?xml version="1.0" encoding="UTF-8"?>
<!DOCTYPE svg PUBLIC "-//W3C//DTD SVG 1.1//EN" "http://www.w3.org/Graphics/SVG/1.1/DTD/svg11.dtd">
<!-- Creator: CorelDRAW 2018 (64-Bit Evaluation Version) -->
<svg xmlns="http://www.w3.org/2000/svg" xml:space="preserve" width="45px" height="45px" version="1.1" style="shape-rendering:geometricPrecision; text-rendering:geometricPrecision; image-rendering:optimizeQuality; fill-rule:evenodd; clip-rule:evenodd"
viewBox="0 0 45 45"
 xmlns:xlink="http://www.w3.org/1999/xlink">
 <defs>
  <style type="text/css">
   <![CDATA[
    .fil5 {fill:#01AFE4}
    .fil6 {fill:#0696C2}
    .fil3 {fill:#333333}
    .fil4 {fill:gray}
    .fil0 {fill:#999083}
    .fil1 {fill:white}
    .fil2 {fill:#CCCCCC;fill-rule:nonzero}
   ]]>
  </style>
 </defs>
 <g id="Layer_x0020_1">
  <metadata id="CorelCorpID_0Corel-Layer"/>
  <g id="_2500141906496">
   <path class="fil0" d="M2.135 2.778l36.73 0c1.084,0 1.972,0.902 1.972,2.004l0 37.344c0,1.103 -0.888,2.005 -1.972,2.005l-36.73 0c-1.084,0 -1.971,-0.902 -1.971,-2.005l0 -37.344c0,-1.102 0.887,-2.004 1.971,-2.004z"/>
   <path class="fil1" d="M4.365 5.928l32.27 0c0.953,0 1.732,0.778 1.732,1.732l0 32.269c0,0.953 -0.779,1.733 -1.732,1.733l-32.27 0c-0.952,0 -1.732,-0.78 -1.732,-1.733l0 -32.269c0,-0.954 0.78,-1.732 1.732,-1.732z"/>
   <path class="fil2" d="M4.365 5.511l32.27 0c0.59,0 1.127,0.242 1.516,0.631 0.391,0.391 0.633,0.928 0.633,1.518l0 32.269c0,0.592 -0.242,1.129 -0.631,1.518 -0.391,0.389 -0.928,0.631 -1.518,0.631l-32.27 0c-0.59,0 -1.126,-0.242 -1.516,-0.631 -0.39,-0.389 -0.632,-0.926 -0.632,-1.518l0 -32.269c0,-0.59 0.242,-1.127 0.631,-1.516 0.39,-0.391 0.927,-0.633 1.517,-0.633zm32.27 0.833l-32.27 0c-0.362,0 -0.691,0.148 -0.929,0.386 -0.238,0.238 -0.386,0.568 -0.386,0.93l0 32.269c0,0.362 0.149,0.691 0.387,0.929 0.238,0.239 0.566,0.387 0.928,0.387l32.27 0c0.362,0 0.692,-0.148 0.93,-0.386 0.237,-0.239 0.385,-0.568 0.385,-0.93l0 -32.269c0,-0.362 -0.147,-0.692 -0.385,-0.93 -0.238,-0.238 -0.568,-0.386 -0.93,-0.386z"/>
   <rect class="fil3" x="5.413" y="-0.001" width="4.764" height="9.529" rx="0.231" ry="0.462"/>
   <rect class="fil4" x="5.413" y="-0.001" width="4.764" height="2.779" rx="0.231" ry="0.135"/>
   <rect class="fil3" x="31.22" y="-0.001" width="4.764" height="9.529" rx="0.231" ry="0.462"/>
   <rect class="fil4" x="31.22" y="-0.001" width="4.764" height="2.779" rx="0.231" ry="0.135"/>
   <rect class="fil3" x="22.716" y="-0.001" width="4.764" height="9.529" rx="0.231" ry="0.462"/>
   <rect class="fil4" x="22.716" y="-0.001" width="4.764" height="2.779" rx="0.231" ry="0.135"/>
   <rect class="fil3" x="14.147" y="-0.001" width="4.764" height="9.529" rx="0.231" ry="0.462"/>
   <rect class="fil4" x="14.147" y="-0.001" width="4.764" height="2.779" rx="0.231" ry="0.135"/>
   <path class="fil2" d="M7.281 16.29c-0.69,0 -1.25,-0.56 -1.25,-1.25 0,-0.69 0.56,-1.25 1.25,-1.25l26.439 0c0.69,0 1.25,0.56 1.25,1.25 0,0.69 -0.56,1.25 -1.25,1.25l-26.439 0zm0 20.874c-0.69,0 -1.25,-0.559 -1.25,-1.25 0,-0.69 0.56,-1.25 1.25,-1.25l26.439 0c0.69,0 1.25,0.56 1.25,1.25 0,0.691 -0.56,1.25 -1.25,1.25l-26.439 0zm0 -6.959c-0.69,0 -1.25,-0.56 -1.25,-1.25 0,-0.69 0.56,-1.25 1.25,-1.25l26.439 0c0.69,0 1.25,0.56 1.25,1.25 0,0.69 -0.56,1.25 -1.25,1.25l-26.439 0zm0 -6.957c-0.69,0 -1.25,-0.56 -1.25,-1.25 0,-0.69 0.56,-1.25 1.25,-1.25l26.439 0c0.69,0 1.25,0.56 1.25,1.25 0,0.69 -0.56,1.25 -1.25,1.25l-26.439 0z"/>
   <circle class="fil5" cx="30.141" cy="30.641" r="14.36"/>
   <path class="fil6" d="M21.55 38.32l19.063 0c0.262,0 0.477,0.215 0.477,0.477l0 1.134c0,0.262 -0.215,0.477 -0.477,0.477l-19.063 0c-0.262,0 -0.477,-0.215 -0.477,-0.477l0 -1.134c0,-0.262 0.215,-0.477 0.477,-0.477zm14.445 -8.1c0.416,0.482 1.146,0.535 1.629,0.118 0.482,-0.418 0.535,-1.147 0.117,-1.629l-5.793 -6.722c-0.418,-0.482 -1.148,-0.534 -1.629,-0.117 -0.058,0.049 -0.109,0.103 -0.153,0.159l-5.759 6.679c-0.418,0.483 -0.365,1.212 0.117,1.629 0.219,0.189 0.488,0.282 0.756,0.282l0 0.004 3.939 0 0 5.099c0,0.509 0.418,0.927 0.928,0.927l1.854 0c0.51,0 0.927,-0.418 0.927,-0.927l0 -9.059 3.067 3.557z"/>
   <path class="fil1" d="M20.77 37.432l19.063 0c0.262,0 0.477,0.215 0.477,0.477l0 1.134c0,0.262 -0.215,0.477 -0.477,0.477l-19.063 0c-0.263,0 -0.477,-0.215 -0.477,-0.477l0 -1.134c0,-0.262 0.214,-0.477 0.477,-0.477zm14.445 -8.1c0.416,0.482 1.146,0.535 1.629,0.118 0.482,-0.417 0.535,-1.147 0.117,-1.629l-5.794 -6.722c-0.417,-0.482 -1.147,-0.534 -1.629,-0.117 -0.057,0.049 -0.108,0.102 -0.153,0.16l-5.759 6.678c-0.417,0.482 -0.364,1.212 0.118,1.629 0.219,0.19 0.488,0.282 0.756,0.282l0 0.004 3.939 0 0 5.098c0,0.511 0.418,0.928 0.928,0.928l1.854 0c0.51,0 0.927,-0.417 0.927,-0.928l0 -9.058 3.067 3.557z"/>
  </g>
 </g>
</svg>
