<?xml version="1.0" encoding="UTF-8"?>
<!DOCTYPE svg PUBLIC "-//W3C//DTD SVG 1.1//EN" "http://www.w3.org/Graphics/SVG/1.1/DTD/svg11.dtd">
<!-- Creator: CorelDRAW 2018 (64-Bit Evaluation Version) -->
<svg xmlns="http://www.w3.org/2000/svg" xml:space="preserve" width="27px" height="25px" version="1.1" style="shape-rendering:geometricPrecision; text-rendering:geometricPrecision; image-rendering:optimizeQuality; fill-rule:evenodd; clip-rule:evenodd"
viewBox="0 0 27 25"
 xmlns:xlink="http://www.w3.org/1999/xlink">
 <defs>
  <style type="text/css">
   <![CDATA[
    .fil4 {fill:#01AFE4}
    .fil8 {fill:#0287B3}
    .fil16 {fill:#6B872A}
    .fil15 {fill:#95C443}
    .fil6 {fill:#9C3EB3}
    .fil14 {fill:#AB9E80}
    .fil13 {fill:#CCBFA3}
    .fil5 {fill:#D9C08B}
    .fil7 {fill:#DB2133}
    .fil2 {fill:#DB61FA}
    .fil1 {fill:#EBD29E}
    .fil3 {fill:#F54F60}
    .fil0 {fill:black;fill-rule:nonzero}
    .fil12 {fill:#095394;fill-rule:nonzero}
    .fil17 {fill:#3F5706;fill-rule:nonzero}
    .fil9 {fill:#5E5B54;fill-rule:nonzero}
    .fil10 {fill:#780994;fill-rule:nonzero}
    .fil11 {fill:#820915;fill-rule:nonzero}
    .fil18 {fill:black;fill-opacity:0.200000}
   ]]>
  </style>
 </defs>
 <g id="Layer_x0020_1">
  <metadata id="CorelCorpID_0Corel-Layer"/>
  <path class="fil0" d="M1.101 0.612c0,-0.338 0.274,-0.612 0.612,-0.612 0.339,0 0.613,0.274 0.613,0.612l0 22.949c0,0.338 -0.274,0.612 -0.613,0.612 -0.338,0 -0.612,-0.274 -0.612,-0.612l0 -22.949z"/>
  <path class="fil0" d="M25.275 0.612c0,-0.338 0.275,-0.612 0.612,-0.612 0.339,0 0.613,0.274 0.613,0.612l0 22.949c0,0.338 -0.274,0.612 -0.613,0.612 -0.337,0 -0.612,-0.274 -0.612,-0.612l0 -22.949z"/>
  <path class="fil0" d="M2.326 11.102c-0.338,0 -0.613,-0.274 -0.613,-0.613 0,-0.338 0.275,-0.612 0.613,-0.612l22.949 0c0.338,0 0.612,0.274 0.612,0.612 0,0.339 -0.274,0.613 -0.612,0.613l-22.949 0z"/>
  <path class="fil0" d="M2.326 22.46c-0.338,0 -0.613,-0.275 -0.613,-0.613 0,-0.338 0.275,-0.613 0.613,-0.613l22.949 0c0.338,0 0.612,0.275 0.612,0.613 0,0.338 -0.274,0.613 -0.612,0.613l-22.949 0z"/>
  <path class="fil0" d="M13.279 21.309c0,-0.041 0.275,-0.075 0.613,-0.075 0.338,0 0.613,0.034 0.613,0.075l0 2.79c0,0.041 -0.275,0.074 -0.613,0.074 -0.338,0 -0.613,-0.033 -0.613,-0.074l0 -2.79z"/>
  <rect class="fil1" x="3.582" y="11.994" width="8.314" height="8.869" rx="0.329" ry="0.659"/>
  <rect class="fil2" transform="matrix(-7.35228E-15 -0.277605 -0.277611 7.35237E-15 19.8524 9.59688)" width="22.501" height="12.001" rx="0.891" ry="0.891"/>
  <rect class="fil3" transform="matrix(-7.35228E-15 -0.277605 -0.277611 7.35237E-15 23.1839 9.59688)" width="22.501" height="12.001" rx="0.891" ry="0.891"/>
  <rect class="fil4" x="5.849" y="2.222" width="9.564" height="7.346" rx="0.379" ry="0.546"/>
  <path class="fil5" d="M4.199 20.862l7.08 0c0.339,0 0.618,-0.277 0.618,-0.617l0 -0.44 -6.556 0c-0.339,0 -0.617,-0.278 -0.617,-0.618l0 -7.194 -0.525 0c-0.34,0 -0.617,0.279 -0.617,0.618l0 7.634c0,0.34 0.277,0.617 0.617,0.617z"/>
  <path class="fil6" d="M16.521 9.349l0 -5.751c0,-0.136 0.111,-0.248 0.247,-0.248l0.548 0 0 5.142c0,0.136 0.111,0.247 0.247,0.247l2.289 0 0 0.61c0,0.137 -0.111,0.248 -0.247,0.248l-2.837 0c-0.136,0 -0.247,-0.111 -0.247,-0.248z"/>
  <path class="fil7" d="M19.852 9.349l0 -5.751c0,-0.136 0.112,-0.248 0.248,-0.248l0.547 0 0 5.142c0,0.136 0.111,0.247 0.247,0.247l2.29 0 0 0.61c0,0.137 -0.111,0.248 -0.247,0.248l-2.837 0c-0.136,0 -0.248,-0.111 -0.248,-0.248z"/>
  <path class="fil8" d="M6.394 9.569l8.473 0c0.3,0 0.546,-0.246 0.546,-0.546l0 -0.33 -8.073 0c-0.3,0 -0.545,-0.246 -0.545,-0.546l0 -5.925 -0.401 0c-0.3,0 -0.546,0.245 -0.546,0.545l0 6.256c0,0.3 0.246,0.546 0.546,0.546z"/>
  <path class="fil9" d="M4.199 20.49l7.08 0c0.067,0 0.129,-0.028 0.173,-0.072 0.044,-0.044 0.073,-0.106 0.073,-0.172l0 -7.635c0,-0.068 -0.028,-0.13 -0.072,-0.174 -0.045,-0.043 -0.107,-0.071 -0.174,-0.071l-7.08 0c-0.067,0 -0.129,0.028 -0.172,0.072 -0.045,0.043 -0.072,0.105 -0.072,0.173l0 7.635c0,0.066 0.028,0.128 0.072,0.172 0.043,0.044 0.105,0.072 0.172,0.072zm7.08 0.745l-7.08 0c-0.273,0 -0.52,-0.112 -0.699,-0.29 -0.179,-0.179 -0.29,-0.427 -0.29,-0.699l0 -7.635c0,-0.271 0.111,-0.518 0.29,-0.698 0.179,-0.18 0.426,-0.292 0.699,-0.292l7.08 0c0.273,0 0.521,0.112 0.7,0.29 0.178,0.182 0.29,0.429 0.29,0.7l0 7.635c0,0.272 -0.112,0.52 -0.29,0.699 -0.179,0.178 -0.427,0.29 -0.7,0.29z"/>
  <path class="fil10" d="M16.801 9.317l0 -5.687 2.772 0 0 5.687 -2.772 0zm-0.56 -5.719l0 5.751c0,0.146 0.06,0.277 0.155,0.373 0.095,0.095 0.227,0.155 0.372,0.155l2.837 0c0.146,0 0.277,-0.06 0.373,-0.155 0.095,-0.096 0.154,-0.227 0.154,-0.373l0 -5.751c0,-0.145 -0.059,-0.277 -0.154,-0.373 -0.096,-0.095 -0.227,-0.154 -0.373,-0.154l-2.837 0c-0.145,0 -0.277,0.059 -0.372,0.154 -0.095,0.096 -0.155,0.228 -0.155,0.373z"/>
  <path class="fil11" d="M20.132 9.317l0 -5.687 2.772 0 0 5.687 -2.772 0zm-0.559 -5.719l0 5.751c0,0.146 0.059,0.277 0.154,0.373 0.096,0.095 0.227,0.155 0.373,0.155l2.837 0c0.145,0 0.277,-0.06 0.372,-0.155 0.096,-0.096 0.155,-0.227 0.155,-0.373l0 -5.751c0,-0.145 -0.059,-0.277 -0.155,-0.373 -0.095,-0.095 -0.227,-0.154 -0.372,-0.154l-2.837 0c-0.146,0 -0.277,0.059 -0.373,0.154 -0.095,0.096 -0.154,0.228 -0.154,0.373z"/>
  <path class="fil12" d="M6.394 9.26l8.473 0c0.066,0 0.125,-0.027 0.169,-0.069 0.042,-0.044 0.069,-0.103 0.069,-0.168l0 -6.255c0,-0.066 -0.027,-0.126 -0.069,-0.168 -0.044,-0.043 -0.103,-0.069 -0.169,-0.069l-8.473 0c-0.065,0 -0.125,0.026 -0.168,0.069 -0.042,0.042 -0.069,0.102 -0.069,0.168l0 6.255c0,0.065 0.027,0.124 0.07,0.167 0.043,0.043 0.102,0.07 0.167,0.07zm8.473 0.617l-8.473 0c-0.234,0 -0.449,-0.096 -0.603,-0.251 -0.155,-0.154 -0.251,-0.368 -0.251,-0.603l0 -6.255c0,-0.234 0.096,-0.448 0.251,-0.602 0.156,-0.156 0.369,-0.253 0.603,-0.253l8.473 0c0.235,0 0.448,0.097 0.603,0.251 0.155,0.156 0.251,0.37 0.251,0.604l0 6.255c0,0.235 -0.096,0.449 -0.25,0.603 -0.156,0.155 -0.369,0.251 -0.604,0.251z"/>
  <rect class="fil4" x="14.038" y="17.058" width="7.224" height="3.853" rx="0.286" ry="0.286"/>
  <rect class="fil13" x="14.038" y="13.205" width="7.224" height="3.853" rx="0.286" ry="0.286"/>
  <path class="fil8" d="M14.324 20.911l6.652 0c0.157,0 0.286,-0.129 0.286,-0.286l0 -0.633 -5.946 0c-0.158,0 -0.286,-0.129 -0.286,-0.286l0 -2.648 -0.706 0c-0.158,0 -0.286,0.129 -0.286,0.287l0 3.28c0,0.157 0.128,0.286 0.286,0.286z"/>
  <path class="fil14" d="M14.324 17.058l6.652 0c0.157,0 0.286,-0.129 0.286,-0.286l0 -0.633 -5.946 0c-0.158,0 -0.286,-0.128 -0.286,-0.286l0 -2.648 -0.706 0c-0.158,0 -0.286,0.129 -0.286,0.287l0 3.28c0,0.157 0.128,0.286 0.286,0.286z"/>
  <path class="fil9" d="M14.361 16.735l6.577 0 0 -3.207 -6.577 0 0 3.207zm6.615 0.646l-6.652 0c-0.168,0 -0.321,-0.068 -0.431,-0.178 -0.11,-0.111 -0.179,-0.263 -0.179,-0.431l0 -3.281c0,-0.167 0.069,-0.321 0.179,-0.431 0.11,-0.11 0.263,-0.178 0.431,-0.178l6.652 0c0.168,0 0.32,0.068 0.431,0.178 0.11,0.11 0.179,0.264 0.179,0.431l0 3.281c0,0.168 -0.07,0.32 -0.18,0.43 -0.11,0.111 -0.262,0.179 -0.43,0.179z"/>
  <rect class="fil15" transform="matrix(-0.0446374 -0.161729 0.214055 -0.0590811 22.673 21.0588)" width="22.501" height="12.001" rx="0.891" ry="0.891"/>
  <path class="fil16" d="M25.189 20.159l-0.062 -0.223 -1.577 0.435c-0.105,0.029 -0.215,-0.033 -0.243,-0.138l-0.838 -3.034 -0.609 0.168c-0.106,0.029 -0.168,0.138 -0.139,0.243l0.899 3.258c0.029,0.105 0.138,0.167 0.244,0.138l2.187 -0.603c0.105,-0.029 0.167,-0.139 0.138,-0.244z"/>
  <path class="fil17" d="M24.968 20.194l-0.886 -3.209 -2.14 0.59 0.887 3.21 2.139 -0.591zm-0.463 -3.352l0.899 3.258c0.031,0.112 0.013,0.226 -0.04,0.319 -0.053,0.094 -0.142,0.167 -0.254,0.198l-2.187 0.604c-0.113,0.03 -0.227,0.013 -0.32,-0.04 -0.093,-0.053 -0.166,-0.142 -0.197,-0.253l-0.9 -3.258c-0.03,-0.112 -0.013,-0.227 0.041,-0.32 0.052,-0.093 0.141,-0.167 0.253,-0.198l2.187 -0.603c0.112,-0.031 0.227,-0.014 0.32,0.039 0.093,0.053 0.167,0.142 0.198,0.254z"/>
  <path class="fil18" d="M13.801 23.542c7.27,0 13.164,0.327 13.164,0.73 0,0.402 -5.894,0.729 -13.164,0.729 -7.27,0 -13.164,-0.327 -13.164,-0.729 0,-0.403 5.894,-0.73 13.164,-0.73z"/>
  <path class="fil12" d="M14.361 20.588l6.577 0 0 -3.207 -6.577 0 0 3.207zm6.615 0.647l-6.652 0c-0.168,0 -0.321,-0.069 -0.431,-0.179 -0.11,-0.111 -0.179,-0.263 -0.179,-0.431l0 -3.281c0,-0.168 0.069,-0.321 0.179,-0.43 0.11,-0.111 0.263,-0.179 0.431,-0.179l6.652 0c0.168,0 0.32,0.068 0.431,0.179 0.11,0.109 0.179,0.262 0.179,0.43l0 3.281c0,0.168 -0.069,0.32 -0.179,0.431 -0.111,0.11 -0.263,0.179 -0.431,0.179z"/>
 </g>
</svg>
