<?xml version="1.0" encoding="UTF-8"?>
<!DOCTYPE svg PUBLIC "-//W3C//DTD SVG 1.1//EN" "http://www.w3.org/Graphics/SVG/1.1/DTD/svg11.dtd">
<!-- Creator: CorelDRAW 2018 (64-Bit Evaluation Version) -->
<svg xmlns="http://www.w3.org/2000/svg" xml:space="preserve" width="45px" height="30px" version="1.1" style="shape-rendering:geometricPrecision; text-rendering:geometricPrecision; image-rendering:optimizeQuality; fill-rule:evenodd; clip-rule:evenodd"
viewBox="0 0 45 30"
 xmlns:xlink="http://www.w3.org/1999/xlink">
 <defs>
  <style type="text/css">
   <![CDATA[
    .fil0 {fill:#2269AB}
    .fil1 {fill:#265A93;fill-rule:nonzero}
    .fil2 {fill:#314F82;fill-rule:nonzero}
    .fil3 {fill:#4D4D4D;fill-rule:nonzero}
    .fil4 {fill:white;fill-rule:nonzero}
   ]]>
  </style>
 </defs>
 <g id="Layer_x0020_1">
  <metadata id="CorelCorpID_0Corel-Layer"/>
  <path class="fil0" d="M25.223 5.187l18.6 9.359c0.632,0.317 0.886,1.088 0.569,1.72l-6.407 12.734c-0.319,0.632 -1.089,0.886 -1.721,0.568l-18.6 -9.358c-0.317,-0.16 -0.539,-0.434 -0.642,-0.747l-3.23 -9.596c-0.226,-0.67 0.135,-1.397 0.805,-1.623 3.222,-1.031 6.437,-2.088 9.655,-3.131 0.334,-0.109 0.681,-0.073 0.971,0.074zm-8.061 5.356c0.328,-0.653 1.124,-0.916 1.777,-0.587 0.653,0.329 0.916,1.124 0.587,1.777 -0.328,0.653 -1.124,0.916 -1.777,0.587 -0.653,-0.328 -0.915,-1.123 -0.587,-1.777zm8.244 -4.4l17.415 8.763c0.335,0.168 0.573,0.45 0.688,0.769 0.116,0.323 0.106,0.684 -0.056,1.006l-5.695 11.318c-0.162,0.322 -0.446,0.544 -0.774,0.643 -0.325,0.099 -0.694,0.075 -1.027,-0.093l-17.416 -8.763c-0.164,-0.082 -0.305,-0.193 -0.42,-0.322 -0.119,-0.132 -0.21,-0.287 -0.268,-0.451l-3.177 -8.682 -0.023 -0.066c-0.1,-0.326 -0.066,-0.659 0.073,-0.94 0.139,-0.28 0.384,-0.508 0.704,-0.625l0.068 -0.023c1.964,-0.573 3.954,-1.164 5.944,-1.756l2.944 -0.874c0.17,-0.05 0.346,-0.066 0.516,-0.049 0.177,0.017 0.348,0.067 0.504,0.145zm17.27 9.052l-17.416 -8.763c-0.121,-0.06 -0.254,-0.099 -0.388,-0.112 -0.13,-0.012 -0.264,-0.001 -0.394,0.038l-2.944 0.873c-1.97,0.586 -3.94,1.172 -5.942,1.756l-0.051 0.017c-0.239,0.087 -0.422,0.257 -0.526,0.466 -0.103,0.208 -0.127,0.456 -0.052,0.7l3.194 8.733c0.044,0.125 0.114,0.243 0.205,0.346 0.088,0.099 0.198,0.184 0.325,0.247l17.416 8.763c0.257,0.13 0.54,0.149 0.787,0.074 0.245,-0.074 0.457,-0.24 0.579,-0.48l5.694 -11.318c0.121,-0.24 0.128,-0.51 0.041,-0.75 -0.087,-0.244 -0.27,-0.46 -0.528,-0.59z"/>
  <path class="fil1" d="M28.003 10.308l3.07 1.578c0.423,0.217 0.773,0.481 1.049,0.792 0.276,0.31 0.478,0.646 0.604,1.009 0.126,0.361 0.172,0.74 0.138,1.133 -0.034,0.395 -0.15,0.783 -0.347,1.167 -0.145,0.283 -0.328,0.523 -0.549,0.721 -0.221,0.199 -0.465,0.356 -0.733,0.472 -0.267,0.115 -0.55,0.193 -0.847,0.232 -0.299,0.04 -0.592,0.042 -0.879,0.003l-0.053 0.076 0.595 4.394 -0.048 0.094 -1.823 -0.937 -0.55 -4.281 -0.741 -0.38 -1.625 3.163 -1.588 -0.817 4.327 -8.419zm1.105 5.37c0.361,0.185 0.713,0.227 1.058,0.127 0.344,-0.101 0.603,-0.32 0.776,-0.657 0.076,-0.149 0.125,-0.307 0.147,-0.474 0.021,-0.167 0.009,-0.332 -0.036,-0.494 -0.046,-0.162 -0.127,-0.316 -0.247,-0.462 -0.118,-0.145 -0.275,-0.268 -0.472,-0.368l-1.492 -0.768 -1.203 2.34 1.469 0.756z"/>
  <path id="1" class="fil1" d="M32.821 16.144l1.447 0.743 -0.356 0.694 0.093 0.049c0.266,-0.171 0.592,-0.266 0.979,-0.286 0.387,-0.019 0.8,0.084 1.238,0.31 0.369,0.189 0.68,0.446 0.935,0.77 0.255,0.325 0.44,0.687 0.556,1.089 0.116,0.401 0.151,0.828 0.106,1.281 -0.044,0.453 -0.18,0.902 -0.41,1.349 -0.23,0.447 -0.516,0.82 -0.859,1.12 -0.342,0.3 -0.71,0.52 -1.104,0.659 -0.394,0.139 -0.796,0.2 -1.208,0.182 -0.412,-0.018 -0.802,-0.123 -1.17,-0.312 -0.439,-0.225 -0.763,-0.501 -0.973,-0.827 -0.209,-0.326 -0.322,-0.646 -0.338,-0.961l-0.094 -0.049 -0.329 0.872 -1.239 2.411 -1.541 -0.792 4.267 -8.302zm0.661 6.062c0.203,0.104 0.418,0.166 0.643,0.182 0.224,0.016 0.443,-0.01 0.656,-0.079 0.214,-0.068 0.416,-0.182 0.607,-0.342 0.191,-0.159 0.351,-0.365 0.48,-0.616 0.129,-0.25 0.203,-0.5 0.221,-0.748 0.019,-0.248 -0.007,-0.479 -0.074,-0.692 -0.07,-0.214 -0.176,-0.408 -0.319,-0.581 -0.144,-0.173 -0.319,-0.312 -0.522,-0.417 -0.204,-0.104 -0.417,-0.167 -0.64,-0.187 -0.222,-0.02 -0.441,0.004 -0.654,0.072 -0.214,0.069 -0.416,0.183 -0.607,0.343 -0.191,0.159 -0.353,0.369 -0.485,0.627 -0.134,0.259 -0.209,0.513 -0.228,0.761 -0.019,0.248 0.007,0.479 0.075,0.692 0.069,0.214 0.176,0.406 0.322,0.574 0.146,0.169 0.321,0.306 0.525,0.411z"/>
  <path class="fil2" d="M25.371 4.893l18.6 9.359c0.397,0.2 0.676,0.542 0.805,0.933 0.13,0.391 0.109,0.832 -0.091,1.229l-6.41 12.738c-0.2,0.395 -0.541,0.673 -0.93,0.801 -0.39,0.129 -0.83,0.109 -1.228,-0.091l-18.601 -9.359c-0.195,-0.098 -0.362,-0.231 -0.496,-0.388 -0.14,-0.163 -0.245,-0.352 -0.31,-0.551l-3.23 -9.592c-0.142,-0.421 -0.1,-0.86 0.084,-1.229 0.183,-0.368 0.507,-0.668 0.928,-0.81l0.005 -0.002c2.058,-0.659 4.216,-1.362 6.375,-2.064l3.279 -1.067c0.206,-0.067 0.415,-0.09 0.618,-0.075 0.211,0.016 0.416,0.075 0.602,0.168zm18.304 9.946l-18.6 -9.359c-0.109,-0.054 -0.23,-0.089 -0.355,-0.098 -0.121,-0.009 -0.245,0.005 -0.366,0.044l-3.279 1.066c-2.089,0.68 -4.182,1.362 -6.376,2.065 -0.247,0.084 -0.439,0.26 -0.546,0.477 -0.108,0.219 -0.134,0.479 -0.05,0.728l3.232 9.599c0.039,0.119 0.101,0.23 0.182,0.325 0.081,0.093 0.18,0.172 0.296,0.23l18.603 9.361c0.233,0.116 0.492,0.127 0.723,0.051 0.232,-0.077 0.435,-0.242 0.552,-0.475l0.294 -0.586 5.817 -11.561 0.296 -0.588c0.118,-0.234 0.129,-0.495 0.053,-0.727 -0.076,-0.231 -0.242,-0.434 -0.476,-0.552zm-26.807 -4.444c0.205,-0.407 0.556,-0.694 0.958,-0.826 0.401,-0.132 0.853,-0.112 1.261,0.093 0.408,0.206 0.694,0.557 0.826,0.958 0.133,0.401 0.113,0.853 -0.093,1.261 -0.206,0.408 -0.556,0.694 -0.957,0.827 -0.401,0.132 -0.854,0.111 -1.262,-0.094 -0.408,-0.205 -0.694,-0.556 -0.827,-0.957 -0.132,-0.401 -0.111,-0.854 0.094,-1.262zm1.164 -0.201c-0.242,0.08 -0.453,0.253 -0.577,0.498 -0.122,0.244 -0.135,0.516 -0.055,0.758 0.08,0.242 0.253,0.453 0.498,0.577 0.244,0.123 0.516,0.135 0.759,0.055 0.241,-0.08 0.453,-0.252 0.576,-0.497 0.123,-0.244 0.135,-0.517 0.055,-0.759 -0.08,-0.242 -0.252,-0.453 -0.497,-0.577 -0.245,-0.123 -0.517,-0.134 -0.759,-0.055z"/>
  <path class="fil3" d="M1.529 1.522c-0.368,0.531 -0.327,1.443 0.034,2.46 0.379,1.069 1.109,2.228 2.097,3.192 0.92,0.896 2.066,1.626 3.29,2.204 1.454,0.686 3.018,1.157 4.445,1.435 1.248,0.244 2.385,0.342 3.339,0.328 1.038,-0.015 1.85,-0.158 2.337,-0.383 0.349,-0.161 0.491,-0.364 0.499,-0.627 0.001,-0.022 0.001,-0.044 0,-0.067 0.221,-0.158 0.487,-0.246 0.758,-0.249 0.016,0.117 0.023,0.229 0.02,0.337 -0.018,0.581 -0.288,1.008 -0.95,1.313 -0.58,0.268 -1.503,0.437 -2.655,0.454 -1.009,0.014 -2.202,-0.087 -3.497,-0.34 -1.483,-0.29 -3.11,-0.78 -4.628,-1.496 -1.296,-0.611 -2.514,-1.39 -3.5,-2.351 -1.078,-1.051 -1.875,-2.318 -2.291,-3.492 -0.441,-1.246 -0.457,-2.412 0.061,-3.159 0.526,-0.758 1.547,-1.044 2.799,-1.047 1.167,-0.003 2.545,0.234 3.891,0.551 1.428,0.336 2.83,0.763 4.095,1.305 1.123,0.481 2.137,1.053 2.967,1.731 0.892,0.73 1.568,1.582 2.09,2.425 0.272,0.438 0.502,0.873 0.698,1.286l-0.747 0.241c-0.175,-0.362 -0.377,-0.74 -0.612,-1.119 -0.48,-0.774 -1.102,-1.558 -1.923,-2.229 -0.772,-0.631 -1.722,-1.166 -2.778,-1.619 -1.217,-0.521 -2.576,-0.935 -3.967,-1.262 -1.302,-0.306 -2.623,-0.536 -3.714,-0.533 -1.005,0.003 -1.801,0.198 -2.158,0.711zm15.581 7.02c-0.039,-0.097 -0.081,-0.198 -0.125,-0.301l0.751 -0.221c0.044,0.103 0.086,0.203 0.125,0.3l-0.751 0.222z"/>
  <path class="fil4" d="M27.77 9.323l3.069 1.576c0.423,0.218 0.773,0.482 1.049,0.792 0.277,0.311 0.478,0.648 0.604,1.01 0.126,0.362 0.172,0.74 0.139,1.134 -0.035,0.394 -0.15,0.782 -0.348,1.166 -0.145,0.283 -0.327,0.523 -0.549,0.722 -0.221,0.199 -0.465,0.355 -0.733,0.471 -0.267,0.115 -0.55,0.192 -0.847,0.233 -0.298,0.04 -0.591,0.04 -0.879,0.002l-0.053 0.076 0.595 4.394 -0.048 0.094 -1.823 -0.937 -0.55 -4.281 -0.741 -0.381 -1.625 3.163 -1.587 -0.815 4.327 -8.419zm1.105 5.369c0.36,0.185 0.712,0.227 1.057,0.127 0.344,-0.101 0.603,-0.32 0.776,-0.657 0.076,-0.149 0.125,-0.307 0.147,-0.474 0.022,-0.167 0.009,-0.332 -0.036,-0.494 -0.046,-0.163 -0.127,-0.316 -0.247,-0.461 -0.118,-0.146 -0.275,-0.268 -0.471,-0.369l-1.493 -0.768 -1.203 2.34 1.47 0.756z"/>
  <path id="1" class="fil4" d="M32.587 15.158l1.447 0.743 -0.356 0.694 0.094 0.048c0.265,-0.17 0.591,-0.265 0.978,-0.284 0.387,-0.02 0.8,0.084 1.239,0.309 0.368,0.189 0.679,0.447 0.934,0.771 0.255,0.323 0.44,0.686 0.556,1.088 0.116,0.401 0.151,0.828 0.106,1.281 -0.044,0.453 -0.18,0.903 -0.41,1.35 -0.23,0.446 -0.516,0.819 -0.859,1.119 -0.342,0.3 -0.71,0.52 -1.103,0.659 -0.394,0.14 -0.797,0.201 -1.209,0.182 -0.412,-0.019 -0.802,-0.123 -1.17,-0.311 -0.439,-0.227 -0.763,-0.502 -0.973,-0.827 -0.209,-0.326 -0.322,-0.646 -0.338,-0.962l-0.094 -0.049 -0.329 0.872 -1.239 2.411 -1.54 -0.792 4.266 -8.302zm0.661 6.062c0.203,0.105 0.418,0.166 0.643,0.182 0.224,0.016 0.443,-0.01 0.657,-0.078 0.213,-0.07 0.415,-0.183 0.606,-0.342 0.191,-0.16 0.351,-0.365 0.48,-0.616 0.129,-0.251 0.203,-0.501 0.221,-0.749 0.019,-0.248 -0.006,-0.479 -0.074,-0.692 -0.069,-0.214 -0.176,-0.408 -0.319,-0.58 -0.144,-0.173 -0.319,-0.313 -0.522,-0.417 -0.204,-0.105 -0.417,-0.167 -0.64,-0.187 -0.222,-0.021 -0.44,0.004 -0.654,0.072 -0.213,0.069 -0.416,0.182 -0.607,0.342 -0.191,0.16 -0.353,0.369 -0.485,0.627 -0.134,0.259 -0.209,0.512 -0.228,0.76 -0.018,0.248 0.007,0.479 0.075,0.693 0.069,0.214 0.176,0.405 0.322,0.575 0.146,0.168 0.321,0.305 0.525,0.41z"/>
 </g>
</svg>
