<?xml version="1.0" encoding="UTF-8"?>
<!DOCTYPE svg PUBLIC "-//W3C//DTD SVG 1.1//EN" "http://www.w3.org/Graphics/SVG/1.1/DTD/svg11.dtd">
<!-- Creator: CorelDRAW 2018 (64-Bit Evaluation Version) -->
<svg xmlns="http://www.w3.org/2000/svg" xml:space="preserve" width="38px" height="25px" version="1.1" style="shape-rendering:geometricPrecision; text-rendering:geometricPrecision; image-rendering:optimizeQuality; fill-rule:evenodd; clip-rule:evenodd"
viewBox="0 0 38 24.999"
 xmlns:xlink="http://www.w3.org/1999/xlink">
 <defs>
  <style type="text/css">
   <![CDATA[
    .fil0 {fill:#9872B5}
    .fil3 {fill:#4D4D4D;fill-rule:nonzero}
    .fil1 {fill:#653E82;fill-rule:nonzero}
    .fil2 {fill:#75538F;fill-rule:nonzero}
    .fil4 {fill:white;fill-rule:nonzero}
   ]]>
  </style>
 </defs>
 <g id="Layer_x0020_1">
  <metadata id="CorelCorpID_0Corel-Layer"/>
  <g id="_2500160851264">
   <path class="fil0" d="M21.063 4.247l15.5 7.798c0.526,0.266 0.739,0.907 0.474,1.434l-5.339 10.611c-0.266,0.527 -0.908,0.739 -1.434,0.474l-15.499 -7.799c-0.265,-0.133 -0.45,-0.361 -0.536,-0.622l-2.692 -7.996c-0.188,-0.559 0.112,-1.164 0.671,-1.353 2.685,-0.859 5.365,-1.739 8.046,-2.609 0.278,-0.091 0.567,-0.061 0.809,0.062zm-6.717 4.463c0.273,-0.544 0.936,-0.763 1.48,-0.489 0.545,0.274 0.764,0.937 0.49,1.481 -0.274,0.544 -0.937,0.763 -1.481,0.489 -0.544,-0.274 -0.763,-0.936 -0.489,-1.481zm6.869 -3.667l14.513 7.303c0.279,0.14 0.477,0.375 0.573,0.641 0.097,0.269 0.089,0.569 -0.046,0.837l-4.746 9.432c-0.135,0.269 -0.372,0.454 -0.645,0.536 -0.271,0.082 -0.578,0.063 -0.857,-0.077l-14.512 -7.302c-0.137,-0.069 -0.255,-0.161 -0.35,-0.268 -0.099,-0.111 -0.175,-0.24 -0.223,-0.377l-2.648 -7.234 -0.019 -0.055c-0.084,-0.272 -0.055,-0.55 0.061,-0.783 0.116,-0.234 0.32,-0.424 0.586,-0.522l0.057 -0.019c1.637,-0.477 3.295,-0.97 4.953,-1.463l2.453 -0.728c0.143,-0.042 0.289,-0.055 0.43,-0.042 0.148,0.014 0.291,0.056 0.42,0.121zm14.392 7.544l-14.513 -7.303c-0.101,-0.05 -0.212,-0.082 -0.324,-0.093 -0.108,-0.011 -0.219,-0.001 -0.328,0.031l-2.453 0.728c-1.642,0.489 -3.284,0.977 -4.951,1.463l-0.043 0.014c-0.2,0.074 -0.352,0.215 -0.438,0.388 -0.086,0.174 -0.107,0.381 -0.044,0.584l2.662 7.277c0.037,0.104 0.095,0.203 0.171,0.289 0.073,0.082 0.164,0.153 0.27,0.206l14.513 7.302c0.215,0.109 0.45,0.124 0.657,0.062 0.204,-0.062 0.381,-0.2 0.482,-0.4l4.745 -9.432c0.101,-0.2 0.107,-0.424 0.034,-0.625 -0.073,-0.203 -0.226,-0.383 -0.44,-0.491z"/>
   <path class="fil1" d="M21.187 4.002l15.5 7.799c0.33,0.166 0.563,0.451 0.67,0.777 0.108,0.326 0.091,0.693 -0.076,1.024l-5.341 10.615c-0.167,0.33 -0.451,0.56 -0.775,0.668 -0.326,0.107 -0.692,0.09 -1.024,-0.076l-15.5 -7.799c-0.162,-0.082 -0.302,-0.193 -0.414,-0.324 -0.117,-0.136 -0.204,-0.292 -0.258,-0.458l-2.692 -7.994c-0.118,-0.351 -0.082,-0.716 0.07,-1.023 0.152,-0.308 0.423,-0.558 0.774,-0.676l0.004 -0.001c1.715,-0.549 3.514,-1.135 5.312,-1.721l2.732 -0.888c0.172,-0.057 0.347,-0.076 0.516,-0.063 0.176,0.013 0.347,0.062 0.502,0.14zm15.252 8.288l-15.499 -7.799c-0.092,-0.046 -0.192,-0.074 -0.296,-0.082 -0.1,-0.008 -0.204,0.004 -0.305,0.037l-2.733 0.889c-1.741,0.566 -3.484,1.135 -5.313,1.72 -0.206,0.07 -0.365,0.217 -0.455,0.398 -0.09,0.182 -0.111,0.399 -0.042,0.606l2.695 7.999c0.031,0.1 0.083,0.192 0.151,0.271 0.067,0.077 0.149,0.143 0.246,0.192l15.502 7.801c0.194,0.096 0.411,0.105 0.603,0.041 0.193,-0.063 0.362,-0.201 0.459,-0.395l0.246 -0.488 4.847 -9.634 0.247 -0.491c0.098,-0.194 0.108,-0.412 0.044,-0.605 -0.064,-0.193 -0.201,-0.362 -0.397,-0.46zm-22.338 -3.703c0.171,-0.34 0.463,-0.578 0.798,-0.689 0.334,-0.11 0.711,-0.093 1.051,0.078 0.34,0.171 0.578,0.464 0.689,0.798 0.11,0.334 0.093,0.711 -0.079,1.051 -0.17,0.34 -0.463,0.578 -0.797,0.689 -0.334,0.11 -0.711,0.093 -1.051,-0.078 -0.34,-0.171 -0.579,-0.463 -0.689,-0.798 -0.111,-0.334 -0.093,-0.711 0.078,-1.051zm0.969 -0.167c-0.201,0.066 -0.377,0.21 -0.48,0.414 -0.102,0.203 -0.112,0.431 -0.046,0.633 0.067,0.2 0.21,0.377 0.415,0.48 0.203,0.102 0.43,0.112 0.632,0.046 0.202,-0.067 0.378,-0.21 0.48,-0.415 0.103,-0.203 0.113,-0.431 0.046,-0.632 -0.066,-0.202 -0.21,-0.378 -0.414,-0.48 -0.204,-0.103 -0.431,-0.113 -0.633,-0.046z"/>
   <path class="fil2" d="M24.386 9.973c0.195,-0.229 0.422,-0.407 0.683,-0.534 0.26,-0.127 0.533,-0.202 0.817,-0.225 0.285,-0.022 0.568,0.012 0.852,0.101 0.284,0.09 0.55,0.241 0.798,0.452 0.248,0.212 0.44,0.452 0.577,0.721 0.137,0.269 0.218,0.545 0.24,0.829 0.023,0.284 -0.008,0.566 -0.092,0.843 -0.084,0.277 -0.224,0.53 -0.419,0.759 -0.194,0.228 -0.424,0.408 -0.687,0.538 -0.263,0.131 -0.536,0.206 -0.817,0.225 -0.281,0.02 -0.566,-0.017 -0.853,-0.11 -0.287,-0.093 -0.555,-0.245 -0.803,-0.456 -0.248,-0.212 -0.439,-0.45 -0.573,-0.717 -0.134,-0.265 -0.213,-0.539 -0.239,-0.82 -0.025,-0.28 0.006,-0.562 0.093,-0.843 0.087,-0.28 0.228,-0.535 0.423,-0.763zm1.048 0.893c-0.184,0.215 -0.266,0.444 -0.247,0.685 0.019,0.242 0.124,0.444 0.313,0.605 0.189,0.161 0.405,0.233 0.647,0.213 0.241,-0.019 0.454,-0.136 0.637,-0.352 0.184,-0.215 0.266,-0.443 0.248,-0.685 -0.02,-0.242 -0.124,-0.444 -0.313,-0.606 -0.19,-0.161 -0.406,-0.231 -0.647,-0.212 -0.242,0.019 -0.455,0.136 -0.638,0.352zm-3.911 4.984l9.88 -2.786 0.332 1.178 -9.88 2.787 -0.332 -1.179zm3.893 1.323c0.195,-0.228 0.423,-0.406 0.683,-0.533 0.261,-0.128 0.533,-0.202 0.817,-0.225 0.284,-0.023 0.569,0.011 0.853,0.101 0.284,0.09 0.549,0.24 0.797,0.452 0.248,0.211 0.441,0.451 0.578,0.72 0.137,0.269 0.217,0.546 0.24,0.83 0.022,0.284 -0.008,0.565 -0.093,0.842 -0.084,0.278 -0.224,0.531 -0.419,0.759 -0.195,0.229 -0.424,0.408 -0.686,0.539 -0.264,0.13 -0.537,0.205 -0.818,0.224 -0.281,0.02 -0.566,-0.017 -0.853,-0.11 -0.287,-0.092 -0.555,-0.244 -0.803,-0.456 -0.248,-0.211 -0.439,-0.45 -0.573,-0.717 -0.133,-0.265 -0.213,-0.539 -0.238,-0.82 -0.026,-0.28 0.005,-0.561 0.093,-0.842 0.086,-0.281 0.228,-0.535 0.422,-0.764zm1.048 0.893c-0.184,0.216 -0.266,0.444 -0.247,0.686 0.02,0.242 0.124,0.443 0.313,0.605 0.189,0.161 0.405,0.232 0.647,0.213 0.242,-0.02 0.454,-0.137 0.638,-0.353 0.183,-0.215 0.266,-0.443 0.247,-0.685 -0.02,-0.242 -0.124,-0.443 -0.313,-0.605 -0.189,-0.161 -0.405,-0.232 -0.647,-0.213 -0.242,0.019 -0.454,0.137 -0.638,0.352z"/>
   <path class="fil3" d="M1.318 1.194c-0.306,0.441 -0.272,1.201 0.028,2.048 0.316,0.891 0.925,1.857 1.749,2.66 0.765,0.747 1.721,1.356 2.741,1.837 1.212,0.572 2.514,0.964 3.704,1.196 1.04,0.203 1.988,0.285 2.783,0.274 0.864,-0.013 1.54,-0.132 1.947,-0.32 0.291,-0.134 0.409,-0.303 0.416,-0.523 0.001,-0.018 0.001,-0.036 0,-0.055 0.184,-0.132 0.405,-0.205 0.632,-0.208 0.013,0.097 0.018,0.191 0.016,0.281 -0.015,0.484 -0.241,0.84 -0.792,1.095 -0.483,0.223 -1.252,0.364 -2.212,0.377 -0.841,0.012 -1.835,-0.072 -2.914,-0.282 -1.236,-0.242 -2.592,-0.651 -3.857,-1.248 -1.08,-0.509 -2.095,-1.158 -2.917,-1.959 -0.897,-0.875 -1.562,-1.931 -1.908,-2.909 -0.368,-1.038 -0.381,-2.011 0.051,-2.633 0.437,-0.631 1.288,-0.869 2.332,-0.872 0.972,-0.003 2.121,0.195 3.242,0.459 1.19,0.28 2.359,0.636 3.412,1.087 0.936,0.401 1.781,0.878 2.473,1.443 0.743,0.608 1.306,1.318 1.742,2.02 0.227,0.366 0.418,0.729 0.582,1.072l-0.623 0.202c-0.146,-0.303 -0.314,-0.617 -0.51,-0.933 -0.4,-0.645 -0.919,-1.298 -1.603,-1.858 -0.643,-0.526 -1.435,-0.972 -2.315,-1.349 -1.014,-0.434 -2.147,-0.779 -3.306,-1.051 -1.084,-0.255 -2.185,-0.447 -3.094,-0.444 -0.838,0.002 -1.501,0.164 -1.799,0.593zm12.985 5.848c-0.033,-0.081 -0.068,-0.164 -0.105,-0.25l0.627 -0.184c0.036,0.085 0.07,0.169 0.103,0.25l-0.625 0.184z"/>
   <path class="fil4" d="M23.735 9.424c0.195,-0.229 0.422,-0.407 0.683,-0.534 0.26,-0.127 0.533,-0.202 0.817,-0.225 0.285,-0.022 0.568,0.011 0.852,0.101 0.284,0.09 0.55,0.241 0.798,0.452 0.248,0.212 0.441,0.452 0.578,0.721 0.137,0.269 0.217,0.545 0.239,0.829 0.023,0.284 -0.008,0.565 -0.092,0.843 -0.084,0.277 -0.224,0.53 -0.419,0.759 -0.194,0.228 -0.423,0.407 -0.687,0.538 -0.263,0.13 -0.536,0.205 -0.817,0.225 -0.281,0.019 -0.566,-0.017 -0.853,-0.11 -0.287,-0.093 -0.555,-0.245 -0.803,-0.457 -0.248,-0.211 -0.439,-0.45 -0.573,-0.716 -0.133,-0.266 -0.212,-0.539 -0.238,-0.82 -0.026,-0.281 0.005,-0.562 0.092,-0.843 0.087,-0.28 0.228,-0.535 0.423,-0.763zm1.048 0.892c-0.184,0.216 -0.266,0.445 -0.247,0.687 0.019,0.241 0.124,0.443 0.313,0.604 0.189,0.162 0.405,0.232 0.647,0.213 0.242,-0.019 0.454,-0.136 0.637,-0.352 0.185,-0.216 0.267,-0.443 0.248,-0.686 -0.02,-0.241 -0.124,-0.443 -0.313,-0.604 -0.19,-0.162 -0.405,-0.232 -0.647,-0.214 -0.242,0.02 -0.455,0.137 -0.638,0.352zm-3.91 4.985l9.88 -2.787 0.331 1.179 -9.88 2.787 -0.331 -1.179zm3.893 1.323c0.194,-0.228 0.422,-0.406 0.682,-0.533 0.261,-0.128 0.533,-0.203 0.818,-0.226 0.284,-0.022 0.568,0.012 0.852,0.101 0.284,0.091 0.55,0.241 0.798,0.453 0.248,0.211 0.44,0.451 0.577,0.72 0.137,0.269 0.218,0.546 0.24,0.83 0.022,0.284 -0.008,0.564 -0.093,0.843 -0.084,0.277 -0.224,0.529 -0.418,0.758 -0.195,0.228 -0.424,0.408 -0.687,0.538 -0.264,0.131 -0.536,0.206 -0.818,0.225 -0.281,0.02 -0.565,-0.017 -0.852,-0.11 -0.288,-0.092 -0.555,-0.244 -0.804,-0.456 -0.248,-0.211 -0.438,-0.45 -0.572,-0.716 -0.134,-0.267 -0.214,-0.54 -0.239,-0.821 -0.025,-0.281 0.005,-0.561 0.093,-0.842 0.087,-0.281 0.228,-0.535 0.423,-0.764zm1.047 0.893c-0.184,0.216 -0.265,0.444 -0.247,0.686 0.02,0.241 0.124,0.443 0.313,0.604 0.189,0.162 0.406,0.233 0.647,0.214 0.242,-0.02 0.454,-0.137 0.638,-0.352 0.184,-0.216 0.266,-0.444 0.247,-0.686 -0.02,-0.242 -0.124,-0.443 -0.313,-0.605 -0.189,-0.161 -0.405,-0.232 -0.647,-0.213 -0.241,0.019 -0.454,0.137 -0.638,0.352z"/>
  </g>
 </g>
</svg>
