<?xml version="1.0" encoding="UTF-8"?>
<!DOCTYPE svg PUBLIC "-//W3C//DTD SVG 1.1//EN" "http://www.w3.org/Graphics/SVG/1.1/DTD/svg11.dtd">
<!-- Creator: CorelDRAW 2018 (64-Bit Evaluation Version) -->
<svg xmlns="http://www.w3.org/2000/svg" xml:space="preserve" width="57px" height="45px" version="1.1" style="shape-rendering:geometricPrecision; text-rendering:geometricPrecision; image-rendering:optimizeQuality; fill-rule:evenodd; clip-rule:evenodd"
viewBox="0 0 57 45"
 xmlns:xlink="http://www.w3.org/1999/xlink">
 <defs>
  <style type="text/css">
   <![CDATA[
    .fil2 {fill:#86A9C2}
    .fil0 {fill:#AEECFC}
    .fil3 {fill:#6F92AB;fill-rule:nonzero}
    .fil1 {fill:#86A9C2;fill-rule:nonzero}
    .fil4 {fill:white;fill-rule:nonzero}
   ]]>
  </style>
 </defs>
 <g id="Layer_x0020_1">
  <metadata id="CorelCorpID_0Corel-Layer"/>
  <g id="_2463541933296">
   <path class="fil0" d="M45.254 15.532c5.73,0 10.375,4.645 10.375,10.374 0,5.73 -4.645,10.375 -10.375,10.375 -10.674,0 -22.086,-0.701 -33.114,-0.701 -6.165,0 -11.162,-4.998 -11.162,-11.162 0,-6.013 4.753,-10.913 10.707,-11.152 1.381,-7.005 7.556,-12.289 14.966,-12.289 8.375,0 15.173,6.751 15.252,15.108 1.052,-0.358 2.178,-0.553 3.351,-0.553z"/>
   <path class="fil1" d="M45.254 14.553c3.13,0 5.97,1.272 8.025,3.328 2.057,2.052 3.328,4.891 3.328,8.025 0,3.13 -1.271,5.967 -3.326,8.023 -2.059,2.059 -4.897,3.33 -8.027,3.33 -5.195,0 -10.735,-0.175 -16.319,-0.351 -5.546,-0.174 -11.14,-0.35 -16.795,-0.35 -3.347,0 -6.382,-1.359 -8.58,-3.556 -2.201,-2.202 -3.56,-5.238 -3.56,-8.584 0,-3.26 1.289,-6.223 3.384,-8.405 1.936,-2.016 4.565,-3.365 7.504,-3.667 0.849,-3.453 2.807,-6.475 5.471,-8.662 2.803,-2.302 6.388,-3.684 10.291,-3.684 4.451,0 8.487,1.795 11.421,4.702 2.654,2.629 4.406,6.17 4.746,10.117l0.579 -0.112c0.613,-0.1 1.235,-0.154 1.858,-0.154zm6.644 4.706c-1.697,-1.699 -4.047,-2.75 -6.644,-2.75 -0.535,0 -1.052,0.044 -1.545,0.125 -0.51,0.084 -1.01,0.211 -1.493,0.376l-1.275 0.435 -0.012 -1.352c-0.037,-3.911 -1.649,-7.449 -4.233,-10.008 -2.576,-2.552 -6.125,-4.129 -10.046,-4.129 -3.44,0 -6.593,1.213 -9.054,3.233 -2.506,2.058 -4.3,4.957 -4.952,8.264l-0.148 0.757 -0.773 0.03c-2.72,0.109 -5.168,1.287 -6.933,3.126 -1.755,1.827 -2.834,4.313 -2.834,7.052 0,2.815 1.139,5.361 2.979,7.201 1.844,1.844 4.39,2.983 7.205,2.983 5.461,0 11.183,0.18 16.857,0.358 5.455,0.172 10.867,0.342 16.257,0.342 2.598,0 4.947,-1.051 6.644,-2.748 1.702,-1.701 2.753,-4.05 2.753,-6.648 0,-2.595 -1.053,-4.945 -2.753,-6.647z"/>
   <circle class="fil2" cx="26.651" cy="31.487" r="13.514"/>
   <path class="fil3" d="M22.35 30.625c-0.177,0.5 -0.273,1.013 -0.294,1.524 -0.024,0.628 0.065,1.25 0.257,1.835 0.212,0.64 0.55,1.242 1.001,1.765 0.434,0.503 0.969,0.93 1.595,1.244 0.221,0.112 0.446,0.206 0.675,0.283 0.917,0.299 1.976,0.268 2.911,-0.256l-2.944 -2.118c-0.399,-0.288 -0.489,-0.847 -0.2,-1.246 0.288,-0.399 0.846,-0.489 1.245,-0.201l5.563 4.003c0.399,0.289 0.489,0.847 0.2,1.246 -0.034,0.047 -0.072,0.09 -0.112,0.128l-4.749 4.883c-0.343,0.353 -0.907,0.362 -1.261,0.019 -0.16,-0.155 -0.25,-0.356 -0.268,-0.563l-0.003 0.001 -0.181 -2.069c-0.175,-0.029 -0.35,-0.064 -0.524,-0.104 -0.674,-0.155 -1.346,-0.396 -2.002,-0.727 -1.075,-0.541 -1.991,-1.269 -2.727,-2.123 -0.765,-0.887 -1.341,-1.915 -1.704,-3.015 -0.353,-1.071 -0.505,-2.209 -0.431,-3.352 0.055,-0.871 0.241,-1.746 0.568,-2.595l0.119 0.049c0.374,-0.903 1.409,-1.335 2.314,-0.963 0.906,0.372 1.34,1.409 0.968,2.315l-0.016 0.037zm13.192 4.61l-0.001 0.002c-0.372,0.907 -1.409,1.34 -2.315,0.968 -0.907,-0.371 -1.341,-1.407 -0.97,-2.314l-0.044 -0.018c0.135,-0.446 0.208,-0.903 0.222,-1.361 0.018,-0.615 -0.071,-1.22 -0.258,-1.786 -0.211,-0.64 -0.549,-1.242 -1,-1.764 -0.434,-0.503 -0.97,-0.93 -1.595,-1.246 -0.084,-0.041 -0.169,-0.081 -0.254,-0.118 -1.719,-0.652 -2.273,-0.246 -2.924,0.073l2.806 2.299c0.381,0.312 0.435,0.875 0.122,1.255 -0.312,0.381 -0.875,0.436 -1.255,0.123l-5.302 -4.343c-0.38,-0.313 -0.434,-0.876 -0.122,-1.256 0.037,-0.045 0.078,-0.085 0.121,-0.121l5.045 -4.576c0.364,-0.331 0.929,-0.304 1.26,0.06 0.15,0.165 0.226,0.372 0.232,0.578l0.003 0 0.051 2.052c0.625,0.155 1.251,0.386 1.867,0.696 1.075,0.541 1.991,1.269 2.728,2.123 0.764,0.887 1.34,1.915 1.703,3.015 0.339,1.027 0.492,2.112 0.441,3.201 -0.04,0.835 -0.197,1.674 -0.482,2.49l-0.079 -0.032z"/>
   <path class="fil4" d="M21.756 29.709c-0.177,0.5 -0.274,1.013 -0.294,1.524 -0.026,0.628 0.063,1.25 0.257,1.835 0.211,0.64 0.549,1.242 1,1.765 0.434,0.503 0.97,0.93 1.595,1.245 0.221,0.111 0.447,0.204 0.676,0.282 0.916,0.299 1.975,0.268 2.911,-0.256l-2.944 -2.118c-0.4,-0.288 -0.489,-0.847 -0.201,-1.246 0.288,-0.399 0.846,-0.489 1.245,-0.201l5.563 4.003c0.399,0.288 0.489,0.847 0.2,1.246 -0.034,0.047 -0.071,0.09 -0.112,0.128l-4.748 4.882c-0.343,0.354 -0.908,0.363 -1.262,0.02 -0.16,-0.155 -0.25,-0.356 -0.268,-0.563l-0.002 0.001 -0.182 -2.069c-0.175,-0.029 -0.35,-0.064 -0.524,-0.104 -0.674,-0.156 -1.346,-0.397 -2.002,-0.727 -1.075,-0.541 -1.991,-1.269 -2.727,-2.123 -0.766,-0.887 -1.341,-1.915 -1.704,-3.015 -0.354,-1.071 -0.504,-2.209 -0.432,-3.352 0.056,-0.871 0.242,-1.746 0.569,-2.595l0.119 0.049c0.374,-0.904 1.408,-1.335 2.314,-0.963 0.907,0.372 1.34,1.408 0.969,2.315l-0.016 0.037zm13.191 4.609l0 0.003c-0.372,0.907 -1.409,1.34 -2.317,0.968 -0.906,-0.372 -1.34,-1.407 -0.969,-2.314l-0.045 -0.018c0.136,-0.446 0.209,-0.904 0.223,-1.361 0.018,-0.615 -0.07,-1.22 -0.257,-1.786 -0.212,-0.64 -0.55,-1.242 -1.001,-1.765 -0.434,-0.502 -0.97,-0.93 -1.595,-1.245 -0.084,-0.042 -0.168,-0.081 -0.254,-0.118 -1.719,-0.652 -2.274,-0.246 -2.923,0.073l2.805 2.299c0.38,0.312 0.435,0.875 0.122,1.255 -0.312,0.381 -0.875,0.436 -1.255,0.123l-5.301 -4.344c-0.381,-0.312 -0.435,-0.875 -0.122,-1.255 0.036,-0.045 0.077,-0.085 0.12,-0.121l5.045 -4.576c0.364,-0.331 0.929,-0.304 1.26,0.06 0.15,0.165 0.227,0.371 0.232,0.578l0.003 0 0.051 2.052c0.625,0.155 1.251,0.386 1.867,0.696 1.075,0.541 1.991,1.269 2.727,2.123 0.765,0.887 1.341,1.915 1.704,3.014 0.339,1.028 0.493,2.113 0.441,3.202 -0.039,0.835 -0.197,1.674 -0.482,2.49l-0.079 -0.033z"/>
  </g>
 </g>
</svg>
