<?xml version="1.0" encoding="UTF-8"?>
<!DOCTYPE svg PUBLIC "-//W3C//DTD SVG 1.1//EN" "http://www.w3.org/Graphics/SVG/1.1/DTD/svg11.dtd">
<!-- Creator: CorelDRAW 2018 (64-Bit Evaluation Version) -->
<svg xmlns="http://www.w3.org/2000/svg" xml:space="preserve" width="23px" height="25px" version="1.1" style="shape-rendering:geometricPrecision; text-rendering:geometricPrecision; image-rendering:optimizeQuality; fill-rule:evenodd; clip-rule:evenodd"
viewBox="0 0 23 25"
 xmlns:xlink="http://www.w3.org/1999/xlink">
 <defs>
  <style type="text/css">
   <![CDATA[
    .fil0 {fill:#666666}
    .fil2 {fill:#CCCCCC}
    .fil3 {fill:#E6E6E6}
    .fil5 {fill:white}
    .fil4 {fill:#1A1A1A;fill-rule:nonzero}
    .fil1 {fill:#333333;fill-rule:nonzero}
   ]]>
  </style>
 </defs>
 <g id="Layer_x0020_1">
  <metadata id="CorelCorpID_0Corel-Layer"/>
  <ellipse class="fil0" cx="12.954" cy="12.5" rx="8.867" ry="12.064"/>
  <path class="fil1" d="M18.027 5.286c-0.16,0 -0.29,-0.131 -0.29,-0.291 0,-0.161 0.13,-0.291 0.29,-0.291l1.816 0c0.161,0 0.291,0.13 0.291,0.291 0,0.16 -0.13,0.291 -0.291,0.291l-1.816 0z"/>
  <path class="fil1" d="M19.19 12.408c-0.16,0 -0.29,-0.131 -0.29,-0.291 0,-0.16 0.13,-0.291 0.29,-0.291l2.625 0c0.16,0 0.29,0.131 0.29,0.291 0,0.16 -0.13,0.291 -0.29,0.291l-2.625 0z"/>
  <path class="fil1" d="M19.833 15.169c-0.16,0 -0.29,-0.13 -0.29,-0.29 0,-0.161 0.13,-0.291 0.29,-0.291l1.684 0c0.16,0 0.29,0.13 0.29,0.291 0,0.16 -0.13,0.29 -0.29,0.29l-1.684 0z"/>
  <path class="fil1" d="M18.237 19.82c-0.161,0 -0.29,-0.13 -0.29,-0.29 0,-0.161 0.129,-0.291 0.29,-0.291l1.034 0c0.161,0 0.291,0.13 0.291,0.291 0,0.16 -0.13,0.29 -0.291,0.29l-1.034 0z"/>
  <path class="fil1" d="M15.824 22.873c-0.161,0 -0.291,-0.13 -0.291,-0.291 0,-0.16 0.13,-0.291 0.291,-0.291l1.048 0c0.161,0 0.291,0.131 0.291,0.291 0,0.161 -0.13,0.291 -0.291,0.291l-1.048 0z"/>
  <ellipse class="fil2" cx="10.046" cy="12.5" rx="8.867" ry="12.064"/>
  <path class="fil3" d="M10.046 0.436c-4.897,0 -8.867,5.401 -8.867,12.064 0,3.123 0.872,5.967 2.303,8.11l10.835 -18.684c-1.267,-0.95 -2.723,-1.49 -4.271,-1.49z"/>
  <path class="fil4" d="M5.697 7.519l2.523 0c0.348,0 0.664,0.073 0.947,0.221 0.284,0.147 0.528,0.35 0.73,0.61 0.203,0.26 0.36,0.569 0.47,0.928 0.109,0.36 0.164,0.752 0.164,1.176 0,0.311 -0.038,0.604 -0.116,0.877 -0.077,0.272 -0.184,0.519 -0.319,0.739 -0.136,0.221 -0.293,0.416 -0.474,0.585 -0.181,0.168 -0.37,0.301 -0.57,0.396l-0.01 0.091 1.856 3.571 0 0.104 -1.498 0 -1.789 -3.493 -0.609 0 0 3.493 -1.305 0 0 -9.298zm2.514 4.194c0.296,0 0.539,-0.121 0.73,-0.363 0.19,-0.243 0.285,-0.55 0.285,-0.922 0,-0.165 -0.021,-0.325 -0.063,-0.481 -0.042,-0.155 -0.105,-0.294 -0.189,-0.415 -0.084,-0.121 -0.188,-0.219 -0.314,-0.293 -0.126,-0.073 -0.269,-0.11 -0.431,-0.11l-1.227 0 0 2.584 1.209 0z"/>
  <path id="1" class="fil4" d="M10.781 10.454l1.19 0 0 0.766 0.077 0c0.116,-0.269 0.297,-0.498 0.541,-0.689 0.245,-0.19 0.548,-0.285 0.909,-0.285 0.303,0 0.592,0.084 0.866,0.253 0.273,0.169 0.515,0.403 0.725,0.702 0.209,0.298 0.375,0.655 0.498,1.071 0.122,0.415 0.183,0.87 0.183,1.363 0,0.494 -0.061,0.948 -0.183,1.364 -0.123,0.415 -0.289,0.773 -0.498,1.071 -0.21,0.299 -0.451,0.532 -0.725,0.701 -0.274,0.169 -0.563,0.254 -0.866,0.254 -0.361,0 -0.664,-0.095 -0.908,-0.286 -0.245,-0.19 -0.426,-0.42 -0.542,-0.688l-0.077 0 0.077 0.909 0 2.662 -1.267 0 0 -9.168zm2.456 4.999c0.168,0 0.328,-0.043 0.479,-0.13 0.152,-0.086 0.285,-0.208 0.401,-0.363 0.116,-0.156 0.209,-0.347 0.28,-0.572 0.072,-0.225 0.107,-0.476 0.107,-0.753 0,-0.277 -0.035,-0.528 -0.107,-0.753 -0.071,-0.225 -0.164,-0.415 -0.28,-0.571 -0.116,-0.156 -0.249,-0.277 -0.401,-0.364 -0.151,-0.086 -0.311,-0.13 -0.479,-0.13 -0.168,0 -0.327,0.041 -0.479,0.124 -0.151,0.082 -0.284,0.201 -0.401,0.357 -0.115,0.156 -0.209,0.346 -0.28,0.571 -0.071,0.225 -0.106,0.481 -0.106,0.766 0,0.286 0.035,0.541 0.106,0.766 0.071,0.225 0.165,0.416 0.28,0.572 0.117,0.155 0.25,0.275 0.401,0.357 0.152,0.082 0.312,0.123 0.479,0.123z"/>
  <path class="fil1" d="M5.273 6.958l2.524 0c0.347,0 0.663,0.073 0.947,0.221 0.283,0.147 0.527,0.35 0.73,0.61 0.203,0.26 0.359,0.569 0.469,0.928 0.11,0.36 0.164,0.751 0.164,1.175 0,0.312 -0.038,0.605 -0.115,0.877 -0.078,0.273 -0.185,0.52 -0.32,0.74 -0.135,0.221 -0.293,0.416 -0.473,0.585 -0.181,0.168 -0.371,0.301 -0.571,0.396l-0.01 0.091 1.857 3.571 0 0.104 -1.499 0 -1.788 -3.493 -0.61 0 0.001 3.493 -1.306 0 0 -9.298zm2.514 4.194c0.297,0 0.54,-0.121 0.73,-0.363 0.19,-0.243 0.285,-0.55 0.285,-0.922 0,-0.165 -0.02,-0.325 -0.063,-0.481 -0.042,-0.156 -0.104,-0.294 -0.188,-0.415 -0.084,-0.121 -0.189,-0.219 -0.314,-0.293 -0.126,-0.073 -0.27,-0.11 -0.431,-0.11l-1.228 0 0 2.584 1.209 0z"/>
  <path id="1" class="fil1" d="M10.358 9.892l1.189 0 0 0.767 0.078 0c0.115,-0.269 0.296,-0.498 0.541,-0.689 0.245,-0.19 0.548,-0.285 0.908,-0.285 0.303,0 0.592,0.084 0.866,0.253 0.274,0.169 0.516,0.403 0.725,0.702 0.209,0.298 0.375,0.655 0.498,1.071 0.122,0.415 0.184,0.87 0.184,1.363 0,0.494 -0.062,0.948 -0.184,1.364 -0.123,0.415 -0.289,0.772 -0.498,1.071 -0.209,0.299 -0.451,0.532 -0.725,0.701 -0.274,0.169 -0.563,0.254 -0.866,0.254 -0.36,0 -0.663,-0.095 -0.908,-0.286 -0.245,-0.19 -0.426,-0.42 -0.541,-0.688l-0.078 0 0.078 0.909 0 2.662 -1.267 0 0 -9.169zm2.456 5c0.167,0 0.327,-0.043 0.478,-0.13 0.152,-0.086 0.286,-0.208 0.402,-0.363 0.116,-0.156 0.209,-0.347 0.28,-0.572 0.071,-0.225 0.106,-0.476 0.106,-0.753 0,-0.277 -0.035,-0.528 -0.106,-0.753 -0.071,-0.225 -0.164,-0.415 -0.28,-0.571 -0.116,-0.156 -0.25,-0.277 -0.402,-0.364 -0.151,-0.086 -0.311,-0.13 -0.478,-0.13 -0.168,0 -0.327,0.041 -0.479,0.124 -0.151,0.082 -0.285,0.201 -0.401,0.357 -0.116,0.156 -0.21,0.346 -0.28,0.571 -0.071,0.225 -0.107,0.481 -0.107,0.766 0,0.286 0.036,0.541 0.107,0.766 0.07,0.225 0.164,0.416 0.28,0.572 0.116,0.155 0.25,0.275 0.401,0.357 0.152,0.082 0.311,0.123 0.479,0.123z"/>
  <path class="fil0" d="M9.428 1.697c-3.934,0 -7.122,4.836 -7.122,10.803 0,5.966 3.188,10.803 7.122,10.803 0.147,0 0.291,-0.008 0.436,-0.021 -3.73,-0.342 -6.687,-5.038 -6.687,-10.782 0,-5.745 2.957,-10.441 6.687,-10.783 -0.145,-0.013 -0.289,-0.02 -0.436,-0.02z"/>
  <path class="fil5" d="M11.335 1.199c3.933,0 7.122,5.059 7.122,11.301 0,6.241 -3.189,11.301 -7.122,11.301 -0.147,0 -0.292,-0.008 -0.436,-0.022 3.73,-0.357 6.686,-5.27 6.686,-11.279 0,-6.009 -2.956,-10.922 -6.686,-11.279 0.144,-0.014 0.289,-0.022 0.436,-0.022z"/>
  <path class="fil4" d="M10.046 0.872c-2.302,0 -4.396,1.282 -5.919,3.354 -1.552,2.112 -2.512,5.037 -2.512,8.274 0,3.237 0.96,6.162 2.512,8.274 1.523,2.072 3.617,3.354 5.919,3.354 2.302,0 4.396,-1.282 5.919,-3.354 1.552,-2.112 2.511,-5.037 2.511,-8.274 0,-3.237 -0.959,-6.162 -2.511,-8.274 -1.207,-1.642 -2.735,-2.896 -4.478,-3.301l-1.441 -0.053zm2.885 24.128l-2.862 0 -0.023 0c-2.595,0 -4.935,-1.419 -6.621,-3.712 -1.657,-2.255 -2.681,-5.363 -2.681,-8.788 0,-3.425 1.024,-6.534 2.681,-8.788 1.686,-2.293 4.026,-3.713 6.621,-3.713l1.441 0.054 1.468 -0.054c2.594,0 4.934,1.42 6.62,3.713 1.657,2.254 2.682,5.363 2.682,8.788 0,3.425 -1.025,6.533 -2.682,8.788 -1.686,2.293 -4.026,3.712 -6.62,3.712l-0.024 0zm0.59 -0.898c2.077,-0.191 3.955,-1.427 5.352,-3.328 1.552,-2.112 2.512,-5.037 2.512,-8.274 0,-3.237 -0.96,-6.162 -2.512,-8.274 -1.397,-1.901 -3.275,-3.137 -5.352,-3.328 1.19,0.643 2.259,1.607 3.145,2.814 1.657,2.254 2.683,5.363 2.683,8.788 0,3.425 -1.026,6.533 -2.683,8.788 -0.886,1.206 -1.955,2.171 -3.145,2.814z"/>
 </g>
</svg>
