<?xml version="1.0" encoding="UTF-8"?>
<!DOCTYPE svg PUBLIC "-//W3C//DTD SVG 1.1//EN" "http://www.w3.org/Graphics/SVG/1.1/DTD/svg11.dtd">
<!-- Creator: CorelDRAW 2018 (64-Bit Evaluation Version) -->
<svg xmlns="http://www.w3.org/2000/svg" xml:space="preserve" width="85px" height="45px" version="1.1" style="shape-rendering:geometricPrecision; text-rendering:geometricPrecision; image-rendering:optimizeQuality; fill-rule:evenodd; clip-rule:evenodd"
viewBox="0 0 85 44.999"
 xmlns:xlink="http://www.w3.org/1999/xlink">
 <defs>
  <style type="text/css">
   <![CDATA[
    .fil5 {fill:#01AFE4}
    .fil6 {fill:#0B7C9E}
    .fil0 {fill:#9872B5}
    .fil7 {fill:white}
    .fil3 {fill:#4D4D4D;fill-rule:nonzero}
    .fil1 {fill:#653E82;fill-rule:nonzero}
    .fil2 {fill:#75538F;fill-rule:nonzero}
    .fil4 {fill:white;fill-rule:nonzero}
   ]]>
  </style>
 </defs>
 <g id="Layer_x0020_1">
  <metadata id="CorelCorpID_0Corel-Layer"/>
  <g id="_2500198018880">
   <path class="fil0" d="M37.108 7.678l27.716 13.946c0.942,0.474 1.321,1.622 0.848,2.564l-9.548 18.975c-0.474,0.942 -1.622,1.321 -2.564,0.848l-27.716 -13.946c-0.473,-0.238 -0.804,-0.646 -0.956,-1.113l-4.815 -14.299c-0.337,-0.999 0.201,-2.082 1.2,-2.418 4.801,-1.537 9.593,-3.112 14.388,-4.667 0.498,-0.162 1.014,-0.107 1.447,0.11zm-12.013 7.982c0.49,-0.972 1.676,-1.364 2.648,-0.875 0.973,0.49 1.366,1.676 0.876,2.648 -0.49,0.973 -1.675,1.365 -2.649,0.875 -0.972,-0.489 -1.364,-1.674 -0.875,-2.648zm12.285 -6.557l25.951 13.059c0.498,0.25 0.854,0.67 1.025,1.146 0.172,0.48 0.158,1.018 -0.083,1.497l-8.487 16.867c-0.241,0.48 -0.664,0.811 -1.153,0.959 -0.484,0.146 -1.033,0.111 -1.531,-0.139l-25.952 -13.058c-0.244,-0.123 -0.455,-0.288 -0.626,-0.48 -0.176,-0.197 -0.312,-0.427 -0.399,-0.672l-4.735 -12.938 -0.033 -0.098c-0.15,-0.486 -0.099,-0.982 0.109,-1.4 0.207,-0.418 0.571,-0.759 1.048,-0.933l0.102 -0.034c2.926,-0.853 5.892,-1.735 8.857,-2.616l4.387 -1.302c0.254,-0.076 0.516,-0.099 0.769,-0.074 0.264,0.025 0.519,0.1 0.751,0.216zm25.735 13.489l-25.952 -13.058c-0.182,-0.09 -0.379,-0.148 -0.579,-0.167 -0.194,-0.018 -0.393,-0.001 -0.587,0.057l-4.387 1.301c-2.935,0.873 -5.872,1.746 -8.853,2.616l-0.077 0.026c-0.357,0.13 -0.629,0.384 -0.783,0.694 -0.154,0.309 -0.191,0.679 -0.079,1.042l4.76 13.014c0.066,0.187 0.17,0.363 0.307,0.516 0.131,0.147 0.294,0.274 0.483,0.369l25.951 13.058c0.384,0.194 0.806,0.221 1.175,0.11 0.365,-0.111 0.681,-0.358 0.861,-0.715l8.487 -16.867c0.179,-0.357 0.189,-0.758 0.06,-1.118 -0.13,-0.362 -0.404,-0.684 -0.787,-0.878z"/>
   <path class="fil1" d="M37.328 7.241l27.717 13.945c0.592,0.298 1.008,0.809 1.2,1.391 0.192,0.582 0.163,1.239 -0.136,1.832l-9.551 18.98c-0.299,0.59 -0.807,1.003 -1.387,1.194 -0.581,0.193 -1.237,0.163 -1.83,-0.135l-27.717 -13.946c-0.291,-0.146 -0.54,-0.345 -0.741,-0.579 -0.208,-0.243 -0.364,-0.523 -0.461,-0.82l-4.813 -14.294c-0.212,-0.628 -0.148,-1.281 0.124,-1.83 0.273,-0.55 0.756,-0.997 1.384,-1.209l0.007 -0.002c3.068,-0.982 6.283,-2.03 9.499,-3.077l4.887 -1.588c0.306,-0.101 0.619,-0.135 0.921,-0.113 0.315,0.024 0.62,0.111 0.897,0.251zm27.275 14.82l-27.716 -13.945c-0.163,-0.082 -0.343,-0.133 -0.529,-0.147 -0.179,-0.014 -0.365,0.006 -0.546,0.066l-4.886 1.589c-3.114,1.014 -6.231,2.029 -9.501,3.076 -0.369,0.125 -0.653,0.389 -0.813,0.712 -0.162,0.326 -0.2,0.714 -0.075,1.084l4.817 14.304c0.058,0.177 0.15,0.343 0.271,0.485 0.12,0.138 0.267,0.255 0.44,0.342l27.721 13.95c0.347,0.172 0.734,0.188 1.078,0.075 0.345,-0.115 0.648,-0.36 0.822,-0.708l0.439 -0.873 8.668 -17.227 0.441 -0.877c0.175,-0.349 0.193,-0.737 0.079,-1.083 -0.114,-0.345 -0.361,-0.647 -0.71,-0.823zm-39.945 -6.621c0.305,-0.608 0.829,-1.035 1.427,-1.232 0.597,-0.197 1.271,-0.166 1.879,0.14 0.608,0.305 1.034,0.829 1.232,1.426 0.197,0.598 0.166,1.272 -0.14,1.88 -0.305,0.608 -0.829,1.034 -1.427,1.232 -0.597,0.197 -1.271,0.166 -1.879,-0.14 -0.608,-0.306 -1.034,-0.829 -1.232,-1.427 -0.197,-0.597 -0.166,-1.271 0.14,-1.879zm1.733 -0.299c-0.359,0.118 -0.675,0.375 -0.858,0.74 -0.183,0.364 -0.202,0.77 -0.082,1.131 0.119,0.36 0.375,0.676 0.74,0.859 0.365,0.183 0.77,0.201 1.131,0.083 0.36,-0.12 0.676,-0.377 0.859,-0.742 0.183,-0.363 0.202,-0.77 0.082,-1.131 -0.119,-0.359 -0.376,-0.675 -0.741,-0.858 -0.363,-0.183 -0.769,-0.202 -1.131,-0.082z"/>
   <path class="fil2" d="M43.049 17.918c0.349,-0.409 0.756,-0.726 1.221,-0.954 0.466,-0.228 0.954,-0.362 1.462,-0.402 0.507,-0.041 1.016,0.02 1.523,0.18 0.508,0.161 0.984,0.431 1.428,0.809 0.443,0.378 0.787,0.807 1.032,1.288 0.246,0.48 0.388,0.975 0.429,1.484 0.04,0.508 -0.015,1.01 -0.166,1.506 -0.15,0.496 -0.4,0.948 -0.749,1.357 -0.347,0.409 -0.757,0.73 -1.229,0.963 -0.47,0.233 -0.957,0.367 -1.46,0.402 -0.504,0.034 -1.012,-0.031 -1.525,-0.196 -0.514,-0.167 -0.993,-0.438 -1.436,-0.816 -0.444,-0.379 -0.785,-0.806 -1.025,-1.282 -0.238,-0.475 -0.381,-0.964 -0.427,-1.466 -0.045,-0.502 0.01,-1.005 0.166,-1.507 0.156,-0.502 0.408,-0.957 0.756,-1.366zm1.873 1.597c-0.328,0.385 -0.475,0.794 -0.44,1.227 0.034,0.431 0.221,0.792 0.559,1.081 0.339,0.288 0.724,0.415 1.156,0.381 0.433,-0.035 0.814,-0.245 1.142,-0.63 0.328,-0.385 0.475,-0.793 0.441,-1.226 -0.035,-0.433 -0.221,-0.793 -0.56,-1.082 -0.338,-0.288 -0.724,-0.415 -1.157,-0.381 -0.432,0.035 -0.812,0.245 -1.141,0.63zm-6.992 8.913l17.668 -4.983 0.593 2.107 -17.668 4.983 -0.593 -2.107zm6.961 2.366c0.349,-0.409 0.755,-0.727 1.221,-0.954 0.466,-0.228 0.954,-0.362 1.461,-0.402 0.51,-0.041 1.017,0.02 1.525,0.18 0.507,0.161 0.983,0.43 1.427,0.808 0.444,0.378 0.788,0.809 1.033,1.289 0.245,0.481 0.388,0.975 0.428,1.484 0.04,0.508 -0.015,1.01 -0.166,1.506 -0.15,0.496 -0.4,0.948 -0.748,1.357 -0.348,0.408 -0.758,0.729 -1.229,0.962 -0.471,0.234 -0.958,0.368 -1.461,0.403 -0.503,0.034 -1.011,-0.031 -1.525,-0.197 -0.514,-0.165 -0.993,-0.438 -1.436,-0.816 -0.444,-0.378 -0.785,-0.805 -1.024,-1.281 -0.239,-0.476 -0.382,-0.965 -0.427,-1.467 -0.046,-0.502 0.009,-1.005 0.166,-1.507 0.155,-0.502 0.407,-0.956 0.755,-1.365zm1.873 1.597c-0.327,0.385 -0.474,0.794 -0.44,1.226 0.035,0.433 0.221,0.793 0.559,1.082 0.339,0.288 0.725,0.415 1.157,0.381 0.432,-0.035 0.813,-0.245 1.141,-0.63 0.328,-0.385 0.475,-0.794 0.441,-1.226 -0.035,-0.433 -0.221,-0.794 -0.56,-1.082 -0.338,-0.289 -0.724,-0.415 -1.156,-0.381 -0.432,0.035 -0.813,0.244 -1.142,0.63z"/>
   <path class="fil3" d="M1.8 2.218c-0.548,0.791 -0.487,2.149 0.05,3.664 0.565,1.594 1.653,3.321 3.126,4.757 1.37,1.335 3.078,2.424 4.903,3.285 2.167,1.022 4.496,1.723 6.623,2.139 1.859,0.363 3.554,0.509 4.976,0.488 1.545,-0.022 2.755,-0.236 3.482,-0.571 0.52,-0.24 0.732,-0.542 0.743,-0.935 0.002,-0.032 0.002,-0.065 0,-0.099 0.33,-0.236 0.725,-0.366 1.131,-0.371 0.023,0.174 0.033,0.341 0.028,0.502 -0.025,0.866 -0.429,1.502 -1.416,1.958 -0.862,0.398 -2.239,0.65 -3.954,0.675 -1.505,0.021 -3.283,-0.13 -5.213,-0.506 -2.208,-0.432 -4.633,-1.162 -6.896,-2.23 -1.931,-0.911 -3.746,-2.071 -5.215,-3.504 -1.606,-1.565 -2.794,-3.453 -3.413,-5.202 -0.659,-1.857 -0.682,-3.595 0.091,-4.709 0.783,-1.128 2.305,-1.554 4.17,-1.559 1.739,-0.005 3.793,0.349 5.798,0.82 2.128,0.501 4.217,1.138 6.102,1.946 1.673,0.717 3.185,1.569 4.421,2.58 1.329,1.087 2.337,2.357 3.115,3.612 0.406,0.654 0.748,1.302 1.041,1.917l-1.114 0.36c-0.262,-0.541 -0.562,-1.104 -0.913,-1.668 -0.715,-1.153 -1.642,-2.321 -2.865,-3.322 -1.15,-0.941 -2.567,-1.738 -4.139,-2.412 -1.814,-0.777 -3.839,-1.393 -5.912,-1.881 -1.939,-0.456 -3.908,-0.798 -5.534,-0.794 -1.498,0.004 -2.684,0.295 -3.216,1.06zm23.219 10.46c-0.06,-0.145 -0.122,-0.295 -0.187,-0.448l1.119 -0.33c0.065,0.153 0.127,0.303 0.186,0.449l-1.118 0.329z"/>
   <path class="fil4" d="M41.886 16.936c0.348,-0.409 0.755,-0.726 1.221,-0.954 0.465,-0.228 0.953,-0.362 1.461,-0.402 0.507,-0.041 1.016,0.02 1.524,0.181 0.508,0.16 0.983,0.43 1.427,0.808 0.443,0.378 0.787,0.807 1.032,1.288 0.246,0.481 0.388,0.975 0.429,1.484 0.04,0.508 -0.015,1.01 -0.166,1.506 -0.15,0.496 -0.4,0.948 -0.748,1.357 -0.348,0.408 -0.758,0.73 -1.229,0.963 -0.471,0.234 -0.958,0.367 -1.461,0.402 -0.503,0.034 -1.012,-0.031 -1.525,-0.197 -0.514,-0.165 -0.993,-0.437 -1.436,-0.815 -0.444,-0.378 -0.785,-0.806 -1.024,-1.281 -0.239,-0.477 -0.382,-0.966 -0.427,-1.468 -0.046,-0.502 0.009,-1.004 0.165,-1.506 0.156,-0.502 0.408,-0.957 0.757,-1.366zm1.873 1.597c-0.328,0.385 -0.475,0.794 -0.441,1.226 0.034,0.433 0.221,0.794 0.56,1.082 0.338,0.289 0.723,0.415 1.156,0.381 0.432,-0.035 0.813,-0.244 1.141,-0.63 0.328,-0.385 0.475,-0.794 0.441,-1.226 -0.035,-0.433 -0.221,-0.793 -0.56,-1.082 -0.338,-0.288 -0.724,-0.416 -1.157,-0.381 -0.431,0.035 -0.812,0.245 -1.14,0.63zm-6.992 8.913l17.668 -4.983 0.592 2.107 -17.668 4.983 -0.592 -2.107zm6.961 2.366c0.348,-0.409 0.755,-0.726 1.221,-0.954 0.465,-0.228 0.953,-0.362 1.461,-0.402 0.509,-0.041 1.016,0.019 1.524,0.18 0.508,0.161 0.984,0.43 1.427,0.808 0.444,0.379 0.788,0.808 1.033,1.289 0.245,0.481 0.388,0.975 0.428,1.484 0.04,0.508 -0.015,1.01 -0.166,1.506 -0.15,0.496 -0.4,0.948 -0.748,1.357 -0.348,0.408 -0.758,0.729 -1.228,0.962 -0.471,0.234 -0.959,0.368 -1.461,0.402 -0.504,0.036 -1.012,-0.03 -1.525,-0.196 -0.514,-0.166 -0.993,-0.438 -1.437,-0.816 -0.443,-0.378 -0.785,-0.805 -1.024,-1.281 -0.239,-0.476 -0.381,-0.965 -0.427,-1.467 -0.045,-0.502 0.01,-1.005 0.166,-1.506 0.156,-0.503 0.407,-0.957 0.756,-1.366zm1.873 1.597c-0.328,0.385 -0.475,0.793 -0.441,1.226 0.035,0.433 0.221,0.793 0.56,1.082 0.338,0.288 0.724,0.415 1.157,0.381 0.431,-0.035 0.812,-0.245 1.14,-0.63 0.328,-0.385 0.475,-0.794 0.441,-1.227 -0.034,-0.431 -0.221,-0.792 -0.56,-1.081 -0.338,-0.288 -0.723,-0.415 -1.156,-0.381 -0.432,0.035 -0.813,0.245 -1.141,0.63z"/>
  </g>
  <g id="_2500198011488">
   <circle class="fil5" cx="70.82" cy="30.819" r="14.181"/>
   <path class="fil6" d="M69.725 21.789l3.499 0c0.427,0 0.777,0.35 0.777,0.779l0 6.379 6.381 0c0.427,0 0.777,0.35 0.777,0.777l0 3.5c0,0.428 -0.35,0.778 -0.777,0.778l-6.381 0 0 6.381c0,0.428 -0.35,0.778 -0.777,0.778l-3.499 0c-0.429,0 -0.779,-0.35 -0.779,-0.778l0 -6.381 -6.38 0c-0.428,0 -0.778,-0.35 -0.778,-0.778l0 -3.5c0,-0.427 0.35,-0.777 0.778,-0.777l6.38 0 0 -6.379c0,-0.429 0.35,-0.779 0.779,-0.779z"/>
   <path class="fil7" d="M69.07 21.133l3.499 0c0.428,0 0.778,0.35 0.778,0.778l0 6.38 6.38 0c0.428,0 0.778,0.35 0.778,0.777l0 3.5c0,0.428 -0.35,0.778 -0.778,0.778l-6.38 0 0 6.381c0,0.428 -0.35,0.778 -0.778,0.778l-3.499 0c-0.428,0 -0.779,-0.35 -0.779,-0.778l0 -6.381 -6.379 0c-0.429,0 -0.779,-0.35 -0.779,-0.778l0 -3.5c0,-0.427 0.35,-0.777 0.779,-0.777l6.379 0 0 -6.38c0,-0.428 0.351,-0.778 0.779,-0.778z"/>
  </g>
 </g>
</svg>
