<?xml version="1.0" encoding="UTF-8"?>
<!DOCTYPE svg PUBLIC "-//W3C//DTD SVG 1.1//EN" "http://www.w3.org/Graphics/SVG/1.1/DTD/svg11.dtd">
<!-- Creator: CorelDRAW 2018 (64-Bit Evaluation Version) -->
<svg xmlns="http://www.w3.org/2000/svg" xml:space="preserve" width="41px" height="38px" version="1.1" style="shape-rendering:geometricPrecision; text-rendering:geometricPrecision; image-rendering:optimizeQuality; fill-rule:evenodd; clip-rule:evenodd"
viewBox="0 0 41 38"
 xmlns:xlink="http://www.w3.org/1999/xlink">
 <defs>
  <style type="text/css">
   <![CDATA[
    .fil0 {fill:#FEFEFE}
    .fil3 {fill:#01AFE4}
    .fil14 {fill:#0493BF}
    .fil6 {fill:#0C9DC9}
    .fil5 {fill:#0D96BF}
    .fil4 {fill:#1EC3F5}
    .fil9 {fill:#755F42}
    .fil7 {fill:#C2A47C}
    .fil1 {fill:#CCCCCC}
    .fil12 {fill:#D1C2A5}
    .fil13 {fill:#EBB01A}
    .fil10 {fill:#F7E7C3}
    .fil11 {fill:#FAF2E1}
    .fil2 {fill:#25323D;fill-rule:nonzero}
    .fil8 {fill:#755F42;fill-rule:nonzero}
   ]]>
  </style>
 </defs>
 <g id="Layer_x0020_1">
  <metadata id="CorelCorpID_0Corel-Layer"/>
  <g id="_2500198027008">
   <circle class="fil0" cx="14.516" cy="15.157" r="8.257"/>
   <path class="fil0" d="M14.516 25.759c6.957,0 12.745,4.955 13.966,11.495l-27.932 0c1.221,-6.54 7.009,-11.495 13.966,-11.495z"/>
   <path class="fil1" d="M13.034 23.323c-3.782,-0.794 -6.622,-4.149 -6.622,-8.166 0,-4.402 3.407,-8.007 7.728,-8.323 -3.44,1.034 -5.964,4.429 -5.964,8.458 0,3.584 1.996,6.665 4.858,8.031z"/>
   <path class="fil1" d="M20.457 11.083c-0.92,0.498 -3.253,1.495 -5.913,2.064 -2.661,0.569 -5.65,0.71 -6.946,0.205 -1.298,-0.506 -0.902,-1.657 -0.689,-2.258 0.213,-0.6 0.245,-0.65 2.461,-0.643 2.217,0.007 6.617,0.07 9.064,0.102 2.448,0.032 2.942,0.032 2.023,0.53z"/>
   <path class="fil2" d="M14.516 6.469c2.399,0 4.571,0.973 6.143,2.545 1.573,1.572 2.545,3.744 2.545,6.143 0,2.398 -0.972,4.571 -2.545,6.143 -1.572,1.572 -3.744,2.544 -6.143,2.544 -2.398,0 -4.57,-0.972 -6.142,-2.544 -1.573,-1.572 -2.545,-3.745 -2.545,-6.143 0,-2.399 0.972,-4.571 2.545,-6.143 1.572,-1.572 3.744,-2.545 6.142,-2.545zm5.66 3.028c-1.448,-1.448 -3.45,-2.344 -5.66,-2.344 -2.21,0 -4.211,0.896 -5.659,2.344 -1.448,1.448 -2.344,3.449 -2.344,5.66 0,2.21 0.896,4.211 2.344,5.659 1.448,1.448 3.449,2.344 5.659,2.344 2.21,0 4.212,-0.896 5.66,-2.344 1.448,-1.448 2.344,-3.449 2.344,-5.659 0,-2.211 -0.896,-4.212 -2.344,-5.66z"/>
   <path class="fil1" d="M14.691 25.759c0.248,0 0.495,0.006 0.741,0.018l-0.069 0.004c1.438,0.074 2.818,0.337 4.108,0.759 -1.46,0.532 -3.233,1.022 -4.785,1.022 -1.551,0 -1.201,-0.046 -2.359,-0.348 -3.981,1.827 -8.32,5.348 -8.626,9.846l-2.812 0c0.363,-4.798 3.917,-8.833 8.82,-10.491l-0.112 -0.041c1.53,-0.496 3.188,-0.769 4.919,-0.769l0.127 0 0.048 0z"/>
   <path class="fil2" d="M14.516 25.076c4.043,0 7.703,1.67 10.352,4.369 0.327,0.333 0.639,0.682 0.933,1.045l-0.892 0c-0.171,-0.194 -0.347,-0.382 -0.527,-0.566 -2.524,-2.574 -6.013,-4.165 -9.866,-4.165 -3.853,0 -7.341,1.591 -9.866,4.165 -0.181,0.184 -0.356,0.372 -0.526,0.566l-0.893 0c0.295,-0.363 0.606,-0.712 0.932,-1.045 2.65,-2.699 6.311,-4.369 10.353,-4.369z"/>
   <path class="fil3" d="M9.709 1.018l9.747 0c1.358,0 2.469,1.111 2.469,2.469l0 7.098 -14.685 0 0 -7.098c0,-1.358 1.111,-2.469 2.469,-2.469z"/>
   <path class="fil4" d="M18.336 1.018l3.588 9.216 0 -6.747c0,-1.358 -1.11,-2.469 -2.468,-2.469l-1.12 0z"/>
   <path class="fil5" d="M8.61 1.278c-0.81,0.406 -1.37,1.245 -1.37,2.209l0 7.098 14.684 0 0 -1.26 -13.506 0 0 -7.097c0,-0.336 0.069,-0.658 0.192,-0.95z"/>
   <path class="fil3" d="M3.753 30.649l21.526 0c1.606,1.846 2.737,4.11 3.203,6.605l-27.932 0c0.466,-2.495 1.597,-4.759 3.203,-6.605z"/>
   <polygon class="fil6" points="22.827,33.727 19.648,33.727 19.648,30.649 18.631,30.649 18.631,33.727 18.631,34.664 22.827,34.664 "/>
   <polygon class="fil6" points="9.616,33.727 6.437,33.727 6.437,30.649 5.42,30.649 5.42,33.727 5.42,34.664 9.616,34.664 "/>
   <path class="fil6" d="M5.108 31c-0.427,0.507 -1.166,1.364 -1.822,2.466 -0.656,1.1 -1.23,2.444 -1.61,3.116 -0.301,0.532 -0.481,0.643 -1.114,0.611 0.473,-2.471 1.598,-4.713 3.192,-6.544l1.643 0c-0.075,0.095 -0.17,0.209 -0.289,0.351z"/>
   <path class="fil2" d="M3.753 30.329l21.672 0 0.095 0.11c0.83,0.953 1.536,2.018 2.094,3.168 0.544,1.122 0.946,2.327 1.182,3.589l0.07 0.378 -28.701 0 0.071 -0.378c0.236,-1.262 0.638,-2.467 1.182,-3.589 0.557,-1.15 1.264,-2.215 2.093,-3.168l0.096 -0.11 0.146 0zm21.379 0.64l-21.232 0c-0.754,0.885 -1.397,1.864 -1.906,2.916 -0.466,0.96 -0.822,1.982 -1.053,3.048l27.151 0c-0.231,-1.066 -0.588,-2.088 -1.053,-3.048 -0.511,-1.052 -1.153,-2.031 -1.907,-2.916z"/>
   <path class="fil7" d="M6.537 33.727l3.079 0 0 -7.108c-1.096,0.399 -2.128,0.929 -3.079,1.568l0 5.54z"/>
   <path class="fil7" d="M19.749 33.727l3.078 0 0 -5.308c-0.945,-0.677 -1.978,-1.242 -3.078,-1.674l0 6.982z"/>
   <path class="fil8" d="M6.858 33.407l2.437 0 0 -6.323c-0.379,0.153 -0.753,0.324 -1.119,0.51 -0.455,0.231 -0.895,0.488 -1.318,0.765l0 5.048zm2.758 0.641l-3.399 0 0 -6.03 0.142 -0.096c0.488,-0.329 0.998,-0.63 1.526,-0.899 0.519,-0.264 1.061,-0.5 1.622,-0.704l0.429 -0.157 0 7.886 -0.32 0z"/>
   <path class="fil8" d="M20.069 33.407l2.438 0 0 -4.822c-0.427,-0.299 -0.869,-0.573 -1.321,-0.819 -0.361,-0.196 -0.734,-0.378 -1.117,-0.543l0 6.184zm2.758 0.641l-3.398 0 0 -7.772 0.436 0.171c0.557,0.218 1.1,0.473 1.626,0.759 0.533,0.289 1.042,0.608 1.522,0.952l0.134 0.097 0 5.793 -0.32 0z"/>
   <circle class="fil9" cx="8.125" cy="32.188" r="0.769"/>
   <circle class="fil9" cx="21.288" cy="32.188" r="0.769"/>
   <path class="fil10" d="M39.7 21.076l-5.52 0 0.001 8.406c0,0.098 -0.018,0.198 -0.054,0.29l-0.002 0.002c-0.036,0.093 -0.09,0.181 -0.161,0.256 -0.024,0.023 -0.051,0.048 -0.081,0.072 -0.138,0.106 -0.3,0.153 -0.461,0.143 -0.161,-0.009 -0.317,-0.075 -0.441,-0.195 -0.026,-0.025 -0.052,-0.054 -0.074,-0.084l-0.224 -0.291c-0.09,0.118 -0.179,0.232 -0.267,0.335l-0.018 0.02c-0.025,0.026 -0.053,0.051 -0.08,0.072 -0.138,0.106 -0.301,0.153 -0.462,0.143 -0.16,-0.009 -0.316,-0.075 -0.44,-0.195 -0.027,-0.025 -0.052,-0.054 -0.075,-0.084l-0.224 -0.291c-0.09,0.118 -0.179,0.232 -0.266,0.335l-0.019 0.02c-0.024,0.026 -0.052,0.05 -0.08,0.072l-0.002 0.002c-0.137,0.104 -0.299,0.151 -0.459,0.142 -0.161,-0.01 -0.316,-0.076 -0.441,-0.196l-0.003 -0.003c-0.024,-0.024 -0.049,-0.05 -0.071,-0.081l-0.227 -0.295 -0.198 0.257c-0.062,0.092 -0.144,0.171 -0.241,0.226 -0.104,0.061 -0.222,0.096 -0.344,0.096 -0.21,0 -0.397,-0.096 -0.529,-0.249 -0.118,-0.137 -0.191,-0.321 -0.191,-0.519l0 -8.406 -5.518 0c-0.574,0 -1.044,0.47 -1.044,1.044l0 14.227c0,0.574 0.47,1.044 1.044,1.044l17.172 0c0.575,0 1.044,-0.47 1.044,-1.044l0 -14.227c0,-0.574 -0.469,-1.044 -1.044,-1.044z"/>
   <path class="fil11" d="M37.264 21.024l3.3 15.909 0.098 -0.257c0.028,-0.106 0.043,-0.216 0.043,-0.33l0.04 -14.226c0,-0.356 -0.036,-0.566 -0.272,-0.801 -0.234,-0.236 -0.415,-0.243 -0.773,-0.243l-2.436 -0.052z"/>
   <path class="fil12" d="M22.529 21.076l0.916 0 -0.001 0.049 0 14.226c0,0.575 0.469,1.044 1.044,1.044l16.256 0c-0.026,0.553 -0.485,0.996 -1.043,0.996l-17.172 0c-0.574,0 -1.044,-0.47 -1.044,-1.044l0 -14.227c0,-0.574 0.47,-1.044 1.044,-1.044z"/>
   <path class="fil13" d="M33.463 20.224l-4.698 0c-0.161,0 -0.293,0.152 -0.293,0.34l0 8.918c0,0.189 0.132,0.341 0.293,0.341 0.097,0 0.182,-0.054 0.236,-0.137l0.548 -0.71 0.564 0.733c0.108,0.14 0.293,0.151 0.413,0.026 0.199,-0.234 0.396,-0.51 0.588,-0.759l0.565 0.733c0.108,0.14 0.293,0.151 0.413,0.026 0.199,-0.234 0.396,-0.51 0.588,-0.759l0.565 0.733c0.107,0.14 0.292,0.151 0.413,0.026 0.064,-0.067 0.097,-0.159 0.097,-0.253l0.001 -8.918c0,-0.188 -0.131,-0.34 -0.293,-0.34z"/>
   <path class="fil2" d="M39.7 20.821l-5.944 0 0 0.511 5.944 0c0.217,0 0.414,0.089 0.557,0.232 0.143,0.142 0.232,0.339 0.232,0.556l0 14.227c0,0.217 -0.089,0.415 -0.231,0.556 -0.143,0.144 -0.34,0.232 -0.558,0.232l-17.172 0c-0.217,0 -0.415,-0.088 -0.556,-0.231 -0.143,-0.144 -0.232,-0.341 -0.232,-0.557l0 -14.227c0,-0.216 0.089,-0.413 0.232,-0.556 0.142,-0.143 0.34,-0.232 0.556,-0.232l5.944 0 0 -0.511 -5.944 0c-0.357,0 -0.683,0.146 -0.918,0.381 -0.235,0.235 -0.382,0.561 -0.382,0.918l0 14.227c0,0.357 0.147,0.683 0.382,0.918 0.236,0.235 0.561,0.382 0.918,0.382l17.172 0c0.357,0 0.682,-0.147 0.917,-0.382 0.237,-0.236 0.383,-0.561 0.383,-0.918l0 -14.227c0,-0.356 -0.146,-0.682 -0.382,-0.917 -0.235,-0.236 -0.56,-0.382 -0.918,-0.382z"/>
   <path class="fil2" d="M9.709 0.647l9.747 0c0.78,0 1.49,0.319 2.005,0.834 0.515,0.514 0.835,1.224 0.835,2.006l0 7.469 -15.427 0 0 -7.469c0,-0.782 0.319,-1.492 0.834,-2.006 0.514,-0.515 1.224,-0.834 2.006,-0.834zm9.747 0.743l-9.747 0c-0.577,0 -1.101,0.236 -1.481,0.616 -0.379,0.38 -0.616,0.905 -0.616,1.481l0 6.725 13.941 0 0 -6.725c0,-0.576 -0.236,-1.101 -0.616,-1.481 -0.38,-0.38 -0.905,-0.616 -1.481,-0.616z"/>
   <path class="fil14" d="M21.726 9.792c-0.405,-0.792 -1.215,-2.376 -1.987,-3.169 -0.771,-0.794 -1.504,-0.795 -3.971,-0.846 -2.467,-0.051 -6.67,-0.151 -8.907,-0.003 -2.238,0.148 -2.51,0.544 -2.18,1.42 0.33,0.875 1.264,2.23 1.729,2.912 0.467,0.682 0.467,0.691 3.009,0.659 2.543,-0.032 7.627,-0.107 10.17,-0.143 2.543,-0.037 2.543,-0.037 2.137,-0.83z"/>
   <path class="fil2" d="M21.399 9.965l-0.005 -0.01c-0.398,-0.777 -1.189,-2.322 -1.921,-3.074 -0.653,-0.671 -1.337,-0.685 -3.586,-0.731l-0.584 -0.012c-2.494,-0.052 -6.322,-0.133 -8.419,0.006 -1.042,0.069 -1.61,0.183 -1.855,0.365 -0.129,0.095 -0.104,0.282 -0.001,0.554 0.306,0.811 1.186,2.099 1.654,2.783l0.038 0.056c0.353,0.515 0.357,0.523 2.695,0.493 2.406,-0.031 7.089,-0.099 9.739,-0.137l0.431 -0.007c1.935,-0.027 1.946,-0.028 1.814,-0.286zm0.652 -0.351l0.005 0.01c0.676,1.321 0.676,1.322 -2.463,1.368l-0.43 0.006c-2.65,0.038 -7.334,0.107 -9.739,0.137 -2.73,0.035 -2.743,0.024 -3.313,-0.811l-0.041 -0.06c-0.485,-0.709 -1.398,-2.044 -1.735,-2.94 -0.228,-0.602 -0.231,-1.053 0.252,-1.411 0.367,-0.271 1.056,-0.43 2.251,-0.509 2.111,-0.14 5.968,-0.059 8.479,-0.007l0.584 0.013c2.484,0.05 3.24,0.067 4.103,0.954 0.807,0.828 1.631,2.438 2.047,3.25z"/>
  </g>
 </g>
</svg>
