<?xml version="1.0" encoding="UTF-8"?>
<!DOCTYPE svg PUBLIC "-//W3C//DTD SVG 1.1//EN" "http://www.w3.org/Graphics/SVG/1.1/DTD/svg11.dtd">
<!-- Creator: CorelDRAW 2018 (64-Bit Evaluation Version) -->
<svg xmlns="http://www.w3.org/2000/svg" xml:space="preserve" width="12px" height="15px" version="1.1" style="shape-rendering:geometricPrecision; text-rendering:geometricPrecision; image-rendering:optimizeQuality; fill-rule:evenodd; clip-rule:evenodd"
viewBox="0 0 12 15"
 xmlns:xlink="http://www.w3.org/1999/xlink">
 <defs>
  <style type="text/css">
   <![CDATA[
    .fil0 {fill:#F54F60;fill-rule:nonzero}
   ]]>
  </style>
 </defs>
 <g id="Layer_x0020_1">
  <metadata id="CorelCorpID_0Corel-Layer"/>
  <path class="fil0" d="M7.096 3.364c0.567,0.108 1.106,0.299 1.602,0.559 0.531,0.277 1.009,0.63 1.421,1.042 0.534,0.534 0.967,1.177 1.264,1.893 0.285,0.688 0.442,1.441 0.442,2.226 0,0.784 -0.157,1.536 -0.442,2.225 -0.297,0.716 -0.73,1.358 -1.264,1.893 -0.535,0.534 -1.177,0.967 -1.893,1.264 -0.689,0.285 -1.44,0.443 -2.225,0.443 -0.785,0 -1.538,-0.158 -2.226,-0.443 -0.716,-0.297 -1.359,-0.73 -1.893,-1.264 -0.535,-0.535 -0.967,-1.177 -1.264,-1.893 -0.285,-0.689 -0.443,-1.441 -0.443,-2.225 0,-0.256 0.018,-0.511 0.052,-0.765 0.056,-0.616 0.575,-1.099 1.206,-1.099 0.641,0 1.166,0.498 1.209,1.128l0.022 0.001c-0.007,0.031 -0.013,0.062 -0.019,0.094 -0.001,0.108 -0.017,0.214 -0.045,0.314 -0.009,0.105 -0.014,0.214 -0.014,0.327 0,0.466 0.091,0.908 0.257,1.308 0.171,0.414 0.426,0.789 0.743,1.107 0.317,0.316 0.692,0.571 1.106,0.742 0.4,0.166 0.842,0.257 1.309,0.257 0.466,0 0.908,-0.091 1.308,-0.257 0.414,-0.171 0.789,-0.426 1.107,-0.742 0.316,-0.318 0.571,-0.693 0.742,-1.107 0.166,-0.4 0.257,-0.842 0.257,-1.308 0,-0.467 -0.091,-0.909 -0.257,-1.309 -0.171,-0.414 -0.426,-0.789 -0.742,-1.106 -0.225,-0.225 -0.478,-0.417 -0.749,-0.569 -0.267,-0.15 -0.561,-0.265 -0.875,-0.339 -0.018,-0.005 -0.037,-0.01 -0.055,-0.016l-2.265 0 2.283 1.969c0.31,0.268 0.344,0.736 0.076,1.046 -0.268,0.31 -0.737,0.344 -1.046,0.076l-4.316 -3.721c-0.309,-0.267 -0.343,-0.736 -0.075,-1.046 0.032,-0.036 0.066,-0.069 0.103,-0.098l4.288 -3.698c0.309,-0.268 0.778,-0.234 1.046,0.076 0.121,0.14 0.181,0.313 0.181,0.485l0.002 0 0 1.125 0 1.388c0.028,0.004 0.055,0.009 0.082,0.017z"/>
 </g>
</svg>
