<?xml version="1.0" encoding="UTF-8"?>
<!DOCTYPE svg PUBLIC "-//W3C//DTD SVG 1.1//EN" "http://www.w3.org/Graphics/SVG/1.1/DTD/svg11.dtd">
<!-- Creator: CorelDRAW 2018 (64-Bit Evaluation Version) -->
<svg xmlns="http://www.w3.org/2000/svg" xml:space="preserve" width="19px" height="25px" version="1.1" style="shape-rendering:geometricPrecision; text-rendering:geometricPrecision; image-rendering:optimizeQuality; fill-rule:evenodd; clip-rule:evenodd"
viewBox="0 0 19 25"
 xmlns:xlink="http://www.w3.org/1999/xlink">
 <defs>
  <style type="text/css">
   <![CDATA[
    .fil0 {fill:white}
   ]]>
  </style>
 </defs>
 <g id="Layer_x0020_1">
  <metadata id="CorelCorpID_0Corel-Layer"/>
  <path class="fil0" d="M1.113 1.352l7.374 0.941c-0.384,-0.054 -0.658,-0.41 -0.609,-0.796l0.115 -0.901c0.05,-0.389 0.409,-0.666 0.798,-0.617l2.337 0.299c0.389,0.049 0.666,0.408 0.617,0.797l-0.115 0.9c-0.049,0.388 -0.407,0.665 -0.794,0.618l7.38 0.94c0.283,0.036 0.485,0.297 0.449,0.581l-0.197 1.543c-0.037,0.282 -0.298,0.484 -0.581,0.448l-17.103 -2.181c-0.283,-0.036 -0.485,-0.297 -0.449,-0.58l0.197 -1.543c0.037,-0.283 0.298,-0.485 0.581,-0.449zm1.098 4.846l7.262 0 7.263 0c0.818,0 1.567,0.675 1.487,1.489l-1.555 15.821c-0.08,0.814 -0.608,1.521 -1.426,1.519l-5.769 -0.012 0 -0.001 -5.769 0.012c-0.818,0.002 -1.346,-0.704 -1.426,-1.519l-1.556 -15.82c-0.079,-0.815 0.67,-1.489 1.489,-1.489zm0.985 1.086l0 0c-0.461,0.049 -0.797,0.467 -0.747,0.927l1.612 14.983c0.05,0.461 0.468,0.798 0.928,0.748l0.001 0c0.46,-0.05 0.797,-0.468 0.747,-0.928l-1.612 -14.983c-0.05,-0.461 -0.468,-0.797 -0.929,-0.747zm12.354 0l0 0c0.461,0.049 0.798,0.467 0.748,0.927l-1.613 14.983c-0.05,0.461 -0.467,0.798 -0.928,0.748l0 0c-0.461,-0.05 -0.797,-0.468 -0.748,-0.928l1.613 -14.983c0.05,-0.461 0.467,-0.797 0.928,-0.747zm-6.077 -0.049l0 0c0.463,0 0.843,0.379 0.843,0.843l0 15.069c0,0.464 -0.38,0.843 -0.843,0.843l0 0c-0.464,0 -0.843,-0.379 -0.843,-0.843l0 -15.069c0,-0.464 0.379,-0.843 0.843,-0.843z"/>
 </g>
</svg>
