<?xml version="1.0" encoding="UTF-8"?>
<!DOCTYPE svg PUBLIC "-//W3C//DTD SVG 1.1//EN" "http://www.w3.org/Graphics/SVG/1.1/DTD/svg11.dtd">
<!-- Creator: CorelDRAW 2018 (64-Bit Evaluation Version) -->
<svg xmlns="http://www.w3.org/2000/svg" xml:space="preserve" width="23px" height="22px" version="1.1" style="shape-rendering:geometricPrecision; text-rendering:geometricPrecision; image-rendering:optimizeQuality; fill-rule:evenodd; clip-rule:evenodd"
viewBox="0 0 23 22"
 xmlns:xlink="http://www.w3.org/1999/xlink">
 <defs>
  <style type="text/css">
   <![CDATA[
    .fil0 {fill:#1A1A1A}
    .fil2 {fill:#1A1A1A;fill-rule:nonzero}
    .fil1 {fill:#F73F4B;fill-rule:nonzero}
   ]]>
  </style>
 </defs>
 <g id="Layer_x0020_1">
  <metadata id="CorelCorpID_0Corel-Layer"/>
  <path class="fil0" d="M3.441 2.732l5.047 0c0.134,0 0.243,0.11 0.243,0.243l0 5.046c0,0.134 -0.109,0.243 -0.243,0.243l-5.047 0c-0.133,0 -0.243,-0.109 -0.243,-0.243l0 -5.046c0,-0.133 0.11,-0.243 0.243,-0.243zm1.81 12.919l1.32 0c0.109,0 0.199,0.089 0.199,0.198l0 1.32c0,0.11 -0.09,0.199 -0.199,0.199l-1.32 0c-0.109,0 -0.198,-0.089 -0.198,-0.199l0 -1.32c0,-0.109 0.089,-0.198 0.198,-0.198zm11.1 -11.011l1.32 0c0.11,0 0.199,0.089 0.199,0.198l0 1.32c0,0.11 -0.089,0.199 -0.199,0.199l-1.32 0c-0.109,0 -0.198,-0.089 -0.198,-0.199l0 -1.32c0,-0.109 0.089,-0.198 0.198,-0.198zm-11.154 0l1.32 0c0.109,0 0.198,0.089 0.198,0.198l0 1.32c0,0.11 -0.089,0.199 -0.198,0.199l-1.32 0c-0.109,0 -0.198,-0.089 -0.198,-0.199l0 -1.32c0,-0.109 0.089,-0.198 0.198,-0.198zm5.441 14.362l0 -5.088c0,-0.15 0.124,-0.274 0.274,-0.274l1.329 0c0.15,0 0.274,0.124 0.274,0.274l0 5.088c0,0.15 -0.124,0.274 -0.274,0.274l-1.329 0c-0.15,0 -0.274,-0.124 -0.274,-0.274zm7.669 -8.978l1.298 0c0.109,0 0.197,0.088 0.197,0.197l0 1.483c0,0.108 -0.088,0.196 -0.197,0.196l-1.298 0c-0.108,0 -0.196,-0.088 -0.196,-0.196l0 -1.483c0,-0.109 0.088,-0.197 0.196,-0.197zm-7.669 0l0 -7.182c0,-0.06 0.049,-0.11 0.11,-0.11l1.657 0c0.061,0 0.11,0.05 0.11,0.11l0 7.182 3.221 0c0.06,0 0.109,0.049 0.109,0.109l0 1.658c0,0.06 -0.049,0.109 -0.109,0.109l-3.328 0 -0.003 0 -1.657 0 -0.003 0 -7.437 0c-0.061,0 -0.11,-0.049 -0.11,-0.109l0 -1.658c0,-0.06 0.049,-0.109 0.11,-0.109l7.33 0zm3.954 -7.299l4.749 0c0.215,0 0.392,0.176 0.392,0.392l0 4.749c0,0.215 -0.177,0.391 -0.392,0.391l-4.749 0c-0.216,0 -0.392,-0.176 -0.392,-0.391l0 -4.749c0,-0.216 0.176,-0.392 0.392,-0.392zm0.932 1.192l2.884 0c0.077,0 0.14,0.063 0.14,0.14l0 2.883c0,0.077 -0.063,0.139 -0.14,0.139l-2.884 0c-0.076,0 -0.139,-0.062 -0.139,-0.139l0 -2.883c0,-0.077 0.063,-0.14 0.139,-0.14zm-12.058 9.827l4.997 0c0.147,0 0.268,0.119 0.268,0.267l0 4.997c0,0.147 -0.121,0.268 -0.268,0.268l-4.997 0c-0.148,0 -0.268,-0.121 -0.268,-0.268l0 -4.997c0,-0.148 0.12,-0.267 0.268,-0.267zm1.057 1.184l2.884 0c0.076,0 0.139,0.063 0.139,0.14l0 2.883c0,0.077 -0.063,0.14 -0.139,0.14l-2.884 0c-0.077,0 -0.14,-0.063 -0.14,-0.14l0 -2.883c0,-0.077 0.063,-0.14 0.14,-0.14zm0 -11.011l2.884 0c0.076,0 0.139,0.063 0.139,0.14l0 2.883c0,0.077 -0.063,0.139 -0.139,0.139l-2.884 0c-0.077,0 -0.14,-0.062 -0.14,-0.139l0 -2.883c0,-0.077 0.063,-0.14 0.14,-0.14z"/>
  <path class="fil1" d="M0.945 9.584c-0.217,0 -0.393,-0.176 -0.393,-0.393 0,-0.216 0.176,-0.392 0.393,-0.392l21.018 0c0.217,0 0.393,0.176 0.393,0.392 0,0.217 -0.176,0.393 -0.393,0.393l-21.018 0z"/>
  <path class="fil2" d="M2.44 0.001l6.506 0 0 1.106 -6.506 0c-0.229,0 -0.437,0.094 -0.587,0.243 -0.15,0.151 -0.243,0.358 -0.243,0.587l0 6.51 -1.107 0 0 -6.51c0,-0.531 0.218,-1.015 0.569,-1.366l0.002 -0.002c0.35,-0.35 0.835,-0.568 1.366,-0.568zm-0.83 13.553l0 6.51c0,0.228 0.093,0.436 0.243,0.586 0.151,0.15 0.359,0.243 0.587,0.243l6.506 0 0 1.107 -6.506 0c-0.533,0 -1.017,-0.218 -1.368,-0.569l0 -0.001c-0.351,-0.351 -0.569,-0.835 -0.569,-1.366l0 -6.51 1.107 0zm12.444 -13.553l6.506 0c0.532,0 1.016,0.218 1.366,0.568l0.003 0c0.351,0.351 0.568,0.835 0.568,1.368l0 6.51 -1.107 0 0 -6.51c0,-0.227 -0.093,-0.435 -0.244,-0.586 -0.149,-0.15 -0.357,-0.244 -0.586,-0.244l-6.506 0 0 -1.106zm8.443 13.553l0 6.51c0,0.532 -0.217,1.017 -0.568,1.367 -0.351,0.351 -0.835,0.569 -1.369,0.569l-6.506 0 0 -1.107 6.506 0c0.228,0 0.436,-0.093 0.586,-0.243 0.151,-0.151 0.244,-0.359 0.244,-0.586l0 -6.51 1.107 0z"/>
 </g>
</svg>
