<?xml version="1.0" encoding="UTF-8"?>
<!DOCTYPE svg PUBLIC "-//W3C//DTD SVG 1.1//EN" "http://www.w3.org/Graphics/SVG/1.1/DTD/svg11.dtd">
<!-- Creator: CorelDRAW 2018 (64-Bit Evaluation Version) -->
<svg xmlns="http://www.w3.org/2000/svg" xml:space="preserve" width="29px" height="38px" version="1.1" style="shape-rendering:geometricPrecision; text-rendering:geometricPrecision; image-rendering:optimizeQuality; fill-rule:evenodd; clip-rule:evenodd"
viewBox="0 0 29 38"
 xmlns:xlink="http://www.w3.org/1999/xlink">
 <defs>
  <style type="text/css">
   <![CDATA[
    .fil4 {fill:#333333}
    .fil7 {fill:#666666}
    .fil0 {fill:#79872B}
    .fil5 {fill:gray}
    .fil2 {fill:white}
    .fil3 {fill:#1A1A1A;fill-rule:nonzero}
    .fil1 {fill:#291F17;fill-rule:nonzero}
    .fil6 {fill:#666666;fill-rule:nonzero}
   ]]>
  </style>
 </defs>
 <g id="Layer_x0020_1">
  <metadata id="CorelCorpID_0Corel-Layer"/>
  <g id="_2500141888256">
   <path class="fil0" d="M1.892 4.868l25.164 0c0.743,0 1.35,0.71 1.35,1.578l0 29.394c0,0.869 -0.607,1.578 -1.35,1.578l-25.164 0c-0.743,0 -1.351,-0.709 -1.351,-1.578l0 -29.394c0,-0.868 0.608,-1.578 1.351,-1.578z"/>
   <path class="fil1" d="M1.892 4.396l25.164 0c0.515,0 0.98,0.241 1.312,0.629 0.315,0.368 0.511,0.872 0.511,1.421l0 29.394c0,0.55 -0.196,1.053 -0.511,1.421 -0.332,0.388 -0.797,0.629 -1.312,0.629l-25.164 0c-0.516,0 -0.98,-0.241 -1.313,-0.629 -0.314,-0.368 -0.51,-0.871 -0.51,-1.421l0 -29.394c0,-0.549 0.196,-1.052 0.51,-1.421 0.333,-0.388 0.797,-0.629 1.313,-0.629zm25.164 0.944l-25.164 0c-0.228,0 -0.44,0.114 -0.597,0.297 -0.174,0.204 -0.282,0.49 -0.282,0.809l0 29.394c0,0.319 0.108,0.605 0.282,0.809 0.157,0.183 0.369,0.297 0.597,0.297l25.164 0c0.228,0 0.439,-0.114 0.596,-0.297 0.174,-0.204 0.282,-0.49 0.282,-0.809l0 -29.394c0,-0.319 -0.108,-0.605 -0.282,-0.809 -0.157,-0.183 -0.368,-0.297 -0.596,-0.297z"/>
   <path class="fil2" d="M4.369 8.345l20.209 0c0.597,0 1.085,0.57 1.085,1.267l0 23.598c0,0.697 -0.488,1.267 -1.085,1.267l-20.209 0c-0.597,0 -1.084,-0.57 -1.084,-1.267l0 -23.598c0,-0.697 0.487,-1.267 1.084,-1.267z"/>
   <path class="fil3" d="M4.37 7.906l20.208 0c0.432,0 0.821,0.202 1.099,0.527 0.262,0.306 0.425,0.724 0.425,1.179l0 23.598c0,0.455 -0.163,0.874 -0.425,1.179 -0.278,0.325 -0.667,0.527 -1.099,0.527l-20.208 0c-0.433,0 -0.822,-0.202 -1.099,-0.527 -0.262,-0.305 -0.425,-0.724 -0.425,-1.179l0 -23.598c0,-0.455 0.163,-0.873 0.425,-1.179 0.277,-0.325 0.666,-0.527 1.099,-0.527zm20.208 0.878l-20.208 0c-0.165,0 -0.319,0.083 -0.435,0.218 -0.13,0.152 -0.212,0.368 -0.212,0.61l0 23.598c0,0.242 0.082,0.458 0.212,0.61 0.116,0.134 0.27,0.218 0.435,0.218l20.208 0c0.165,0 0.319,-0.084 0.434,-0.218 0.13,-0.152 0.212,-0.368 0.212,-0.61l0 -23.598c0,-0.242 -0.082,-0.458 -0.212,-0.61 -0.115,-0.135 -0.269,-0.218 -0.434,-0.218z"/>
   <rect class="fil4" x="5.723" y="0.362" width="3.75" height="9.819" rx="0.182" ry="0.476"/>
   <rect class="fil5" x="5.723" y="0.362" width="3.75" height="1.704" rx="0.182" ry="0.083"/>
   <rect class="fil5" x="5.795" y="0.362" width="1.08" height="9.782"/>
   <rect class="fil4" x="19.343" y="0.362" width="3.75" height="9.819" rx="0.182" ry="0.476"/>
   <rect class="fil5" x="19.343" y="0.362" width="3.75" height="1.704" rx="0.182" ry="0.083"/>
   <rect class="fil5" x="19.351" y="0.362" width="1.08" height="9.782"/>
   <rect class="fil4" x="12.599" y="0.362" width="3.75" height="9.819" rx="0.182" ry="0.476"/>
   <rect class="fil5" x="12.599" y="0.362" width="3.75" height="1.704" rx="0.182" ry="0.083"/>
   <rect class="fil5" x="12.639" y="0.362" width="1.08" height="9.782"/>
   <path class="fil6" d="M10.154 16.106c-0.401,0 -0.726,-0.491 -0.726,-1.097 0,-0.605 0.325,-1.097 0.726,-1.097l12.808 0c0.401,0 0.727,0.492 0.727,1.097 0,0.606 -0.326,1.097 -0.727,1.097l-12.808 0zm0 15.265c-0.401,0 -0.726,-0.491 -0.726,-1.097 0,-0.605 0.325,-1.097 0.726,-1.097l12.808 0c0.401,0 0.727,0.492 0.727,1.097 0,0.606 -0.326,1.097 -0.727,1.097l-12.808 0zm0 -5.089c-0.401,0 -0.726,-0.491 -0.726,-1.096 0,-0.606 0.325,-1.097 0.726,-1.097l12.808 0c0.401,0 0.727,0.491 0.727,1.097 0,0.605 -0.326,1.096 -0.727,1.096l-12.808 0zm0 -5.088c-0.401,0 -0.726,-0.491 -0.726,-1.097 0,-0.606 0.325,-1.097 0.726,-1.097l12.808 0c0.401,0 0.727,0.491 0.727,1.097 0,0.606 -0.326,1.097 -0.727,1.097l-12.808 0z"/>
   <circle class="fil7" cx="6.575" cy="15.009" r="1.097"/>
   <circle class="fil7" cx="6.575" cy="20.097" r="1.097"/>
   <circle class="fil7" cx="6.575" cy="25.186" r="1.097"/>
   <circle class="fil7" cx="6.575" cy="30.274" r="1.097"/>
   <path class="fil3" d="M5.905 -0.11l3.387 0c0.18,0 0.344,0.073 0.462,0.191 0.118,0.119 0.192,0.283 0.192,0.462l0 9.456c0,0.182 -0.074,0.345 -0.192,0.463 -0.118,0.118 -0.282,0.192 -0.462,0.192l-3.387 0c-0.181,0 -0.344,-0.074 -0.462,-0.192 -0.119,-0.118 -0.192,-0.281 -0.192,-0.463l0 -9.456c0,-0.179 0.073,-0.343 0.192,-0.462 0.118,-0.118 0.281,-0.191 0.462,-0.191zm3.096 0.944l-2.805 0 0 8.875 2.805 0 0 -8.875z"/>
   <path class="fil3" d="M19.525 -0.11l3.387 0c0.18,0 0.344,0.073 0.462,0.191 0.118,0.119 0.192,0.283 0.192,0.462l0 9.456c0,0.182 -0.074,0.345 -0.192,0.463 -0.118,0.118 -0.282,0.192 -0.462,0.192l-3.387 0c-0.181,0 -0.344,-0.074 -0.462,-0.192 -0.118,-0.118 -0.192,-0.281 -0.192,-0.463l0 -9.456c0,-0.179 0.074,-0.343 0.192,-0.462 0.118,-0.118 0.281,-0.191 0.462,-0.191zm3.096 0.944l-2.805 0 0 8.875 2.805 0 0 -8.875z"/>
   <path class="fil3" d="M12.78 -0.11l3.387 0c0.18,0 0.344,0.073 0.463,0.191 0.118,0.119 0.191,0.283 0.191,0.462l0 9.456c0,0.182 -0.073,0.345 -0.191,0.463 -0.119,0.118 -0.283,0.192 -0.463,0.192l-3.387 0c-0.181,0 -0.344,-0.074 -0.462,-0.192 -0.118,-0.118 -0.191,-0.281 -0.191,-0.463l0 -9.456c0,-0.179 0.073,-0.343 0.191,-0.462 0.118,-0.118 0.281,-0.191 0.462,-0.191zm3.097 0.944l-2.806 0 0 8.875 2.806 0 0 -8.875z"/>
  </g>
 </g>
</svg>
