<?xml version="1.0" encoding="UTF-8"?>
<!DOCTYPE svg PUBLIC "-//W3C//DTD SVG 1.1//EN" "http://www.w3.org/Graphics/SVG/1.1/DTD/svg11.dtd">
<!-- Creator: CorelDRAW 2018 (64-Bit Evaluation Version) -->
<svg xmlns="http://www.w3.org/2000/svg" xml:space="preserve" width="20px" height="20px" version="1.1" style="shape-rendering:geometricPrecision; text-rendering:geometricPrecision; image-rendering:optimizeQuality; fill-rule:evenodd; clip-rule:evenodd"
viewBox="0 0 20 20"
 xmlns:xlink="http://www.w3.org/1999/xlink">
 <defs>
  <style type="text/css">
   <![CDATA[
    .fil2 {fill:#4D4D4D}
    .fil15 {fill:#9E895C}
    .fil12 {fill:#AB8229}
    .fil17 {fill:#AB9E80}
    .fil14 {fill:#B07943}
    .fil13 {fill:#B88F37}
    .fil7 {fill:#B8A171}
    .fil18 {fill:#BA8D52}
    .fil11 {fill:#BF9B4F}
    .fil4 {fill:#C29431}
    .fil5 {fill:#C99E42}
    .fil9 {fill:#CCBFA3}
    .fil6 {fill:#CF8F4F}
    .fil10 {fill:#D6A361}
    .fil16 {fill:#D9C08B}
    .fil3 {fill:#E0B55A}
    .fil8 {fill:#EBD29E}
    .fil0 {fill:black;fill-rule:nonzero}
    .fil19 {fill:#5E5B54;fill-rule:nonzero}
    .fil1 {fill:black;fill-opacity:0.200000}
   ]]>
  </style>
 </defs>
 <g id="Layer_x0020_1">
  <metadata id="CorelCorpID_0Corel-Layer"/>
  <g id="_2507756048656">
   <path class="fil0" d="M0.546 1.725c-0.27,0 -0.488,-0.218 -0.488,-0.487 0,-0.268 0.218,-0.486 0.488,-0.486l3.132 0c0.269,0 0.487,0.218 0.487,0.486l0 13.436 15.348 0c0.27,0 0.488,0.218 0.488,0.486 0,0.269 -0.218,0.488 -0.488,0.488l-15.835 0c-0.269,0 -0.487,-0.219 -0.487,-0.488l0 -13.435 -2.645 0z"/>
   <path class="fil1" d="M11.207 18.73c4.778,0 8.651,0.284 8.651,0.635 0,0.35 -3.873,0.634 -8.651,0.634 -4.778,0 -8.652,-0.284 -8.652,-0.634 0,-0.351 3.874,-0.635 8.652,-0.635z"/>
   <path class="fil2" d="M6.655 16.446c0.889,0 1.609,0.721 1.609,1.61 0,0.889 -0.72,1.609 -1.609,1.609 -0.889,0 -1.609,-0.72 -1.609,-1.609 0,-0.889 0.72,-1.61 1.609,-1.61zm0 1.107c0.278,0 0.503,0.225 0.503,0.503 0,0.278 -0.225,0.503 -0.503,0.503 -0.278,0 -0.503,-0.225 -0.503,-0.503 0,-0.278 0.225,-0.503 0.503,-0.503z"/>
   <path class="fil2" d="M17.077 16.446c0.89,0 1.61,0.721 1.61,1.61 0,0.889 -0.72,1.609 -1.61,1.609 -0.888,0 -1.609,-0.72 -1.609,-1.609 0,-0.889 0.721,-1.61 1.609,-1.61zm0 1.107c0.278,0 0.504,0.225 0.504,0.503 0,0.278 -0.226,0.503 -0.504,0.503 -0.277,0 -0.503,-0.225 -0.503,-0.503 0,-0.278 0.226,-0.503 0.503,-0.503z"/>
   <g>
    <rect class="fil3" x="4.896" y="9.476" width="8.701" height="4.641" rx="0.345" ry="0.345"/>
    <rect class="fil4" x="4.896" y="4.835" width="4.35" height="4.641" rx="0.172" ry="0.345"/>
    <rect class="fil5" x="13.597" y="11.796" width="4.35" height="2.32" rx="0.172" ry="0.172"/>
    <rect class="fil6" x="13.597" y="9.476" width="4.35" height="2.32" rx="0.172" ry="0.172"/>
    <rect class="fil7" x="9.247" y="4.835" width="6.041" height="4.641" rx="0.239" ry="0.345"/>
    <rect class="fil8" x="6.748" y="2.515" width="4.35" height="2.32" rx="0.172" ry="0.172"/>
    <rect class="fil9" x="6.748" y="0.194" width="4.35" height="2.32" rx="0.172" ry="0.172"/>
    <rect class="fil10" transform="matrix(-0.0388667 -0.140822 0.186382 -0.0514437 11.9374 4.88065)" width="22.5" height="12" rx="0.891" ry="0.891"/>
   </g>
   <path class="fil11" d="M5.241 14.116l8.012 0c0.189,0 0.344,-0.155 0.344,-0.345l0 -0.208 -7.759 0c-0.189,0 -0.345,-0.155 -0.345,-0.345l0 -3.742 -0.252 0c-0.19,0 -0.345,0.155 -0.345,0.344l0 3.951c0,0.19 0.155,0.345 0.345,0.345z"/>
   <path class="fil12" d="M5.219 9.476l3.704 0c0.178,0 0.323,-0.146 0.323,-0.323l0 -0.231 -3.43 0c-0.177,0 -0.323,-0.145 -0.323,-0.323l0 -3.764 -0.274 0c-0.177,0 -0.323,0.145 -0.323,0.323l0 3.995c0,0.177 0.146,0.323 0.323,0.323z"/>
   <path class="fil13" d="M13.77 14.116l4.005 0c0.095,0 0.172,-0.077 0.172,-0.172l0 -0.381 -3.58 0c-0.095,0 -0.173,-0.077 -0.173,-0.173l0 -1.594 -0.424 0c-0.096,0 -0.173,0.077 -0.173,0.172l0 1.976c0,0.095 0.077,0.172 0.173,0.172z"/>
   <path class="fil14" d="M13.77 11.796l4.005 0c0.095,0 0.172,-0.077 0.172,-0.173l0 -0.38 -3.58 0c-0.095,0 -0.173,-0.078 -0.173,-0.173l0 -1.594 -0.424 0c-0.096,0 -0.173,0.077 -0.173,0.172l0 1.975c0,0.096 0.077,0.173 0.173,0.173z"/>
   <path class="fil15" d="M9.591 9.476l5.353 0c0.189,0 0.344,-0.156 0.344,-0.345l0 -0.209 -5.1 0c-0.189,0 -0.344,-0.155 -0.344,-0.345l0 -3.742 -0.253 0c-0.19,0 -0.345,0.155 -0.345,0.344l0 3.952c0,0.189 0.155,0.345 0.345,0.345z"/>
   <path class="fil16" d="M6.921 4.835l4.006 0c0.095,0 0.172,-0.077 0.172,-0.173l0 -0.38 -3.581 0c-0.095,0 -0.172,-0.078 -0.172,-0.173l0 -1.594 -0.425 0c-0.095,0 -0.173,0.077 -0.173,0.172l0 1.975c0,0.096 0.078,0.173 0.173,0.173z"/>
   <path class="fil17" d="M6.921 2.515l4.006 0c0.095,0 0.172,-0.078 0.172,-0.173l0 -0.381 -3.581 0c-0.095,0 -0.172,-0.077 -0.172,-0.172l0 -1.595 -0.425 0c-0.095,0 -0.173,0.078 -0.173,0.173l0 1.975c0,0.095 0.078,0.173 0.173,0.173z"/>
   <path class="fil18" d="M14.128 4.097l-0.054 -0.195 -1.373 0.38c-0.091,0.024 -0.187,-0.029 -0.212,-0.121l-0.729 -2.641 -0.531 0.146c-0.092,0.025 -0.145,0.12 -0.121,0.212l0.784 2.836c0.025,0.092 0.12,0.146 0.212,0.121l1.904 -0.526c0.092,-0.025 0.145,-0.12 0.12,-0.212z"/>
   <g>
    <path class="fil19" d="M5.241 13.921l8.012 0c0.041,0 0.078,-0.017 0.105,-0.044 0.027,-0.027 0.044,-0.064 0.044,-0.105l0 -3.952c0,-0.041 -0.017,-0.079 -0.044,-0.105 -0.027,-0.027 -0.064,-0.045 -0.105,-0.045l-8.012 0c-0.041,0 -0.079,0.018 -0.106,0.045 -0.027,0.026 -0.044,0.064 -0.044,0.105l0 3.952c0,0.041 0.017,0.079 0.043,0.105 0.028,0.028 0.065,0.044 0.107,0.044zm8.012 0.39l-8.012 0c-0.148,0 -0.283,-0.061 -0.381,-0.158 -0.098,-0.099 -0.159,-0.233 -0.159,-0.381l0 -3.952c0,-0.148 0.061,-0.284 0.159,-0.381 0.097,-0.097 0.232,-0.158 0.381,-0.158l8.012 0c0.148,0 0.283,0.061 0.381,0.158 0.097,0.097 0.158,0.233 0.158,0.381l0 3.952c0,0.149 -0.061,0.283 -0.158,0.381 -0.098,0.097 -0.233,0.158 -0.381,0.158z"/>
    <path class="fil19" d="M5.219 9.281l3.705 0c0.035,0 0.067,-0.015 0.09,-0.038 0.023,-0.023 0.038,-0.056 0.038,-0.09l0 -3.995c0,-0.035 -0.015,-0.068 -0.037,-0.091 -0.024,-0.022 -0.056,-0.037 -0.091,-0.037l-3.705 0c-0.035,0 -0.068,0.015 -0.091,0.038 -0.023,0.022 -0.037,0.055 -0.037,0.09l0 3.995c0,0.034 0.014,0.067 0.037,0.09 0.023,0.023 0.056,0.038 0.091,0.038zm3.705 0.389l-3.705 0c-0.143,0 -0.272,-0.058 -0.366,-0.151 -0.093,-0.094 -0.152,-0.224 -0.152,-0.366l0 -3.995c0,-0.142 0.059,-0.271 0.152,-0.365 0.094,-0.094 0.223,-0.153 0.366,-0.153l3.705 0c0.143,0 0.272,0.059 0.366,0.152 0.093,0.095 0.151,0.224 0.151,0.366l0 3.995c0,0.142 -0.058,0.272 -0.151,0.366 -0.094,0.093 -0.223,0.151 -0.366,0.151z"/>
    <path class="fil19" d="M13.792 13.921l3.961 0 0 -1.93 -3.961 0 0 1.93zm3.983 0.39l-4.005 0c-0.102,0 -0.194,-0.041 -0.26,-0.108 -0.066,-0.066 -0.108,-0.158 -0.108,-0.259l0 -1.976c0,-0.101 0.042,-0.193 0.108,-0.26 0.066,-0.066 0.158,-0.107 0.26,-0.107l4.005 0c0.101,0 0.193,0.041 0.26,0.107 0.066,0.067 0.107,0.159 0.107,0.26l0 1.976c0,0.101 -0.041,0.193 -0.107,0.259 -0.067,0.067 -0.159,0.108 -0.26,0.108z"/>
    <path class="fil19" d="M13.792 11.601l3.961 0 0 -1.931 -3.961 0 0 1.931zm3.983 0.39l-4.005 0c-0.102,0 -0.194,-0.042 -0.26,-0.108 -0.066,-0.066 -0.108,-0.158 -0.108,-0.26l0 -1.975c0,-0.102 0.042,-0.193 0.108,-0.26 0.066,-0.066 0.158,-0.107 0.26,-0.107l4.005 0c0.101,0 0.193,0.041 0.26,0.107 0.066,0.067 0.107,0.158 0.107,0.26l0 1.975c0,0.102 -0.041,0.194 -0.107,0.26 -0.067,0.066 -0.159,0.108 -0.26,0.108z"/>
    <path class="fil19" d="M9.591 9.281l5.353 0c0.041,0 0.079,-0.017 0.106,-0.044 0.026,-0.028 0.044,-0.065 0.044,-0.106l0 -3.951c0,-0.042 -0.018,-0.079 -0.044,-0.106 -0.027,-0.027 -0.065,-0.044 -0.106,-0.044l-5.353 0c-0.041,0 -0.079,0.017 -0.106,0.044 -0.027,0.027 -0.044,0.064 -0.044,0.106l0 3.951c0,0.041 0.017,0.078 0.045,0.105 0.027,0.028 0.064,0.045 0.105,0.045zm5.353 0.389l-5.353 0c-0.148,0 -0.284,-0.06 -0.381,-0.158 -0.098,-0.097 -0.158,-0.232 -0.158,-0.381l0 -3.951c0,-0.148 0.06,-0.283 0.158,-0.38 0.098,-0.099 0.234,-0.16 0.381,-0.16l5.353 0c0.147,0 0.282,0.061 0.38,0.158 0.098,0.099 0.159,0.234 0.159,0.382l0 3.951c0,0.149 -0.061,0.284 -0.158,0.381 -0.099,0.098 -0.234,0.158 -0.381,0.158z"/>
    <path class="fil19" d="M6.943 4.64l3.961 0 0 -1.93 -3.961 0 0 1.93zm3.984 0.39l-4.006 0c-0.102,0 -0.193,-0.042 -0.26,-0.108 -0.066,-0.066 -0.108,-0.158 -0.108,-0.26l0 -1.975c0,-0.102 0.042,-0.193 0.108,-0.26 0.067,-0.066 0.158,-0.107 0.26,-0.107l4.006 0c0.101,0 0.193,0.041 0.259,0.107 0.067,0.067 0.108,0.158 0.108,0.26l0 1.975c0,0.102 -0.041,0.194 -0.108,0.26 -0.066,0.066 -0.158,0.108 -0.259,0.108z"/>
    <path class="fil19" d="M6.943 2.32l3.961 0 0 -1.931 -3.961 0 0 1.931zm3.984 0.39l-4.006 0c-0.102,0 -0.193,-0.042 -0.26,-0.109 -0.066,-0.066 -0.108,-0.158 -0.108,-0.258l0 -1.976c0,-0.101 0.042,-0.193 0.108,-0.26 0.067,-0.066 0.158,-0.108 0.26,-0.108l4.006 0c0.101,0 0.193,0.042 0.259,0.108 0.067,0.067 0.108,0.159 0.108,0.26l0 1.976c0,0.1 -0.042,0.192 -0.108,0.258 -0.066,0.067 -0.158,0.109 -0.259,0.109z"/>
    <path class="fil19" d="M13.936 4.128l-0.772 -2.795 -1.862 0.514 0.771 2.795 1.863 -0.514zm-0.404 -2.919l0.783 2.836c0.027,0.098 0.012,0.198 -0.034,0.279 -0.047,0.081 -0.124,0.145 -0.221,0.172l-1.904 0.526c-0.099,0.026 -0.199,0.011 -0.28,-0.035 -0.08,-0.046 -0.144,-0.123 -0.17,-0.22l-0.784 -2.837c-0.027,-0.098 -0.011,-0.198 0.035,-0.279 0.046,-0.081 0.123,-0.145 0.221,-0.172l1.904 -0.525c0.098,-0.027 0.197,-0.012 0.278,0.034 0.081,0.046 0.146,0.124 0.172,0.221z"/>
   </g>
  </g>
 </g>
</svg>
