<?xml version="1.0" encoding="UTF-8"?>
<!DOCTYPE svg PUBLIC "-//W3C//DTD SVG 1.1//EN" "http://www.w3.org/Graphics/SVG/1.1/DTD/svg11.dtd">
<!-- Creator: CorelDRAW 2018 (64-Bit Evaluation Version) -->
<svg xmlns="http://www.w3.org/2000/svg" xml:space="preserve" width="20px" height="20px" version="1.1" style="shape-rendering:geometricPrecision; text-rendering:geometricPrecision; image-rendering:optimizeQuality; fill-rule:evenodd; clip-rule:evenodd"
viewBox="0 0 20 20"
 xmlns:xlink="http://www.w3.org/1999/xlink">
 <defs>
  <style type="text/css">
   <![CDATA[
    .fil0 {fill:#01AFE4}
    .fil2 {fill:#8EC63F}
    .fil4 {fill:#F54F60}
    .fil6 {fill:#FDBB40}
    .fil1 {fill:#0496C2;fill-rule:nonzero}
    .fil3 {fill:#528C02;fill-rule:nonzero}
    .fil5 {fill:#B82837;fill-rule:nonzero}
    .fil7 {fill:#CC8502;fill-rule:nonzero}
   ]]>
  </style>
 </defs>
 <g id="Layer_x0020_1">
  <metadata id="CorelCorpID_0Corel-Layer"/>
  <g id="_2500198024544">
   <rect class="fil0" x="0.27" y="0.501" width="13.041" height="8.36" rx="0.84" ry="0.538"/>
   <path class="fil1" d="M0.808 -0.001l11.966 0c0.285,0 0.544,0.117 0.733,0.305l0.002 0.002c0.187,0.188 0.304,0.448 0.304,0.733l0 7.284c0,0.285 -0.117,0.544 -0.304,0.733 -0.189,0.19 -0.449,0.307 -0.735,0.307l-11.966 0c-0.286,0 -0.546,-0.117 -0.734,-0.306 -0.189,-0.187 -0.305,-0.448 -0.305,-0.734l0 -7.284c0,-0.286 0.116,-0.546 0.305,-0.735l0.038 -0.035c0.185,-0.167 0.43,-0.27 0.696,-0.27zm11.966 1.004l-11.966 0 -0.02 0.005 -0.005 0.005c-0.006,0.007 -0.011,0.016 -0.011,0.026l0 7.284c0,0.009 0.005,0.019 0.011,0.025 0.007,0.007 0.016,0.011 0.025,0.011l11.966 0c0.009,0 0.019,-0.004 0.025,-0.011 0.007,-0.006 0.011,-0.015 0.011,-0.025l0 -7.284c0,-0.01 -0.004,-0.02 -0.01,-0.026 -0.006,-0.006 -0.016,-0.01 -0.026,-0.01z"/>
   <rect class="fil2" x="15.318" y="0.501" width="4.18" height="8.36" rx="0.269" ry="0.538"/>
   <path class="fil3" d="M15.587 -0.001l3.642 0c0.212,0 0.405,0.087 0.545,0.226 0.139,0.139 0.225,0.332 0.225,0.545l0 7.822c0,0.211 -0.086,0.403 -0.226,0.543 -0.139,0.141 -0.332,0.228 -0.544,0.228l-3.642 0c-0.211,0 -0.402,-0.087 -0.542,-0.226l-0.002 -0.002c-0.14,-0.141 -0.226,-0.333 -0.226,-0.543l0 -7.822c0,-0.213 0.086,-0.406 0.226,-0.545l0.046 -0.041c0.135,-0.115 0.309,-0.185 0.498,-0.185zm3.41 1.004l-3.177 0 0 7.356 3.177 0 0 -7.356z"/>
   <rect class="fil4" x="0.27" y="11.138" width="4.013" height="8.36" rx="0.258" ry="0.538"/>
   <path class="fil5" d="M0.529 10.636l3.496 0c0.209,0 0.4,0.086 0.537,0.223 0.137,0.137 0.223,0.327 0.223,0.537l0 7.843c0,0.21 -0.086,0.401 -0.223,0.538 -0.137,0.137 -0.328,0.222 -0.537,0.222l-3.496 0c-0.21,0 -0.4,-0.085 -0.537,-0.222 -0.138,-0.137 -0.223,-0.328 -0.223,-0.538l0 -7.843c0,-0.21 0.085,-0.4 0.223,-0.537 0.137,-0.137 0.327,-0.223 0.537,-0.223zm3.252 1.003l-3.009 0 0 7.357 3.009 0 0 -7.357z"/>
   <rect class="fil6" x="6.289" y="11.138" width="13.208" height="8.36" rx="0.851" ry="0.538"/>
   <path class="fil7" d="M6.827 10.636l12.133 0c0.285,0 0.545,0.118 0.733,0.305l0.002 0.002c0.187,0.189 0.304,0.448 0.304,0.733l0 7.284c0,0.285 -0.117,0.545 -0.304,0.733 -0.189,0.19 -0.449,0.306 -0.735,0.306l-12.133 0c-0.286,0 -0.546,-0.116 -0.734,-0.304 -0.189,-0.189 -0.305,-0.449 -0.305,-0.735l0 -7.284c0,-0.286 0.116,-0.547 0.305,-0.735l0.038 -0.034c0.185,-0.168 0.43,-0.271 0.696,-0.271zm12.133 1.003l-12.133 0 -0.019 0.006 -0.006 0.006c-0.006,0.006 -0.011,0.016 -0.011,0.025l0 7.284c0,0.009 0.005,0.019 0.011,0.025 0.007,0.007 0.016,0.011 0.025,0.011l12.133 0c0.009,0 0.019,-0.004 0.025,-0.011 0.007,-0.005 0.012,-0.016 0.012,-0.025l0 -7.284c0,-0.01 -0.005,-0.02 -0.01,-0.027 -0.007,-0.005 -0.017,-0.01 -0.027,-0.01z"/>
  </g>
 </g>
</svg>
