<?xml version="1.0" encoding="UTF-8"?>
<!DOCTYPE svg PUBLIC "-//W3C//DTD SVG 1.1//EN" "http://www.w3.org/Graphics/SVG/1.1/DTD/svg11.dtd">
<!-- Creator: CorelDRAW 2018 (64-Bit Evaluation Version) -->
<svg xmlns="http://www.w3.org/2000/svg" xml:space="preserve" width="15px" height="15px" version="1.1" style="shape-rendering:geometricPrecision; text-rendering:geometricPrecision; image-rendering:optimizeQuality; fill-rule:evenodd; clip-rule:evenodd"
viewBox="0 0 15 15"
 xmlns:xlink="http://www.w3.org/1999/xlink">
 <defs>
  <style type="text/css">
   <![CDATA[
    .fil0 {fill:#999999}
   ]]>
  </style>
 </defs>
 <g id="Layer_x0020_1">
  <metadata id="CorelCorpID_0Corel-Layer"/>
  <path class="fil0" d="M0.285 0.285l0 0c0.381,-0.38 1.003,-0.38 1.384,0l5.831 5.831 5.831 -5.831c0.381,-0.38 1.003,-0.38 1.384,0l0 0c0.38,0.381 0.38,1.003 0,1.384l-5.831 5.831 5.831 5.832c0.381,0.38 0.381,1.002 0,1.383l0 0c-0.381,0.381 -1.003,0.381 -1.383,0l-5.832 -5.831 -5.832 5.831c-0.38,0.381 -1.002,0.381 -1.383,0l0 0c-0.381,-0.381 -0.381,-1.003 0,-1.383l5.831 -5.832 -5.831 -5.831c-0.38,-0.381 -0.38,-1.003 0,-1.384z"/>
 </g>
</svg>
