<?xml version="1.0" encoding="UTF-8"?>
<!DOCTYPE svg PUBLIC "-//W3C//DTD SVG 1.1//EN" "http://www.w3.org/Graphics/SVG/1.1/DTD/svg11.dtd">
<!-- Creator: CorelDRAW 2018 (64-Bit Evaluation Version) -->
<svg xmlns="http://www.w3.org/2000/svg" xml:space="preserve" width="65px" height="45px" version="1.1" style="shape-rendering:geometricPrecision; text-rendering:geometricPrecision; image-rendering:optimizeQuality; fill-rule:evenodd; clip-rule:evenodd"
viewBox="0 0 65 44.999"
 xmlns:xlink="http://www.w3.org/1999/xlink">
 <defs>
  <style type="text/css">
   <![CDATA[
    .fil4 {fill:#E6E7E8}
    .fil20 {fill:#D2D3D5}
    .fil12 {fill:#848688}
    .fil0 {fill:#01AFE4}
    .fil1 {fill:#0B7C9E}
    .fil5 {fill:#1A1A1A}
    .fil14 {fill:#333333}
    .fil9 {fill:#456B0F}
    .fil13 {fill:#4D4D4D}
    .fil8 {fill:#8EC63F}
    .fil3 {fill:#999999}
    .fil17 {fill:#CBED9A}
    .fil19 {fill:#D8F0B7}
    .fil11 {fill:#F54F60}
    .fil6 {fill:#F5BC9F}
    .fil2 {fill:white}
    .fil21 {fill:#848688;fill-rule:nonzero}
    .fil15 {fill:black;fill-rule:nonzero}
    .fil10 {fill:#456B0F;fill-rule:nonzero}
    .fil7 {fill:#4D4D4D;fill-rule:nonzero}
    .fil18 {fill:#CBED9A;fill-rule:nonzero}
    .fil16 {fill:#FFD84C;fill-rule:nonzero}
   ]]>
  </style>
 </defs>
 <g id="Layer_x0020_1">
  <metadata id="CorelCorpID_0Corel-Layer"/>
  <g id="_2463541954864">
   <ellipse class="fil0" cx="50.295" cy="24.176" rx="14.433" ry="14.432"/>
   <path class="fil1" d="M49.181 14.986l3.561 0c0.436,0 0.792,0.356 0.792,0.792l0 6.492 6.493 0c0.435,0 0.791,0.357 0.791,0.792l0 3.561c0,0.436 -0.356,0.792 -0.791,0.792l-6.493 0 0 6.495c0,0.435 -0.356,0.791 -0.792,0.791l-3.561 0c-0.436,0 -0.792,-0.356 -0.792,-0.791l0 -6.495 -6.494 0c-0.436,0 -0.792,-0.356 -0.792,-0.792l0 -3.561c0,-0.435 0.356,-0.792 0.792,-0.792l6.494 0 0 -6.492c0,-0.436 0.356,-0.792 0.792,-0.792z"/>
   <path class="fil2" d="M48.515 14.318l3.561 0c0.436,0 0.792,0.356 0.792,0.792l0 6.493 6.493 0c0.435,0 0.791,0.356 0.791,0.791l0 3.561c0,0.437 -0.356,0.793 -0.791,0.793l-6.493 0 0 6.494c0,0.435 -0.356,0.791 -0.792,0.791l-3.561 0c-0.436,0 -0.792,-0.356 -0.792,-0.791l0 -6.494 -6.494 0c-0.436,0 -0.792,-0.356 -0.792,-0.793l0 -3.561c0,-0.435 0.356,-0.791 0.792,-0.791l6.494 0 0 -6.493c0,-0.436 0.356,-0.792 0.792,-0.792z"/>
  </g>
  <g id="_2463515529104">
   <rect class="fil3" x="33.152" y="37.295" width="5.016" height="1.764"/>
   <ellipse class="fil4" cx="22.497" cy="44.198" rx="19.966" ry="0.803"/>
   <path class="fil5" d="M3.326 36.568c-1.376,0.663 -2.326,2.071 -2.326,3.701 0,2.267 1.838,4.106 4.105,4.106 2.268,0 4.106,-1.839 4.106,-4.106 0,-0.213 -0.016,-0.423 -0.047,-0.628 -0.257,-0.214 -0.622,-0.586 -1.173,-1.292l-0.098 -0.126c-1.18,-0.429 -3.34,-1.215 -4.567,-1.655zm1.779 1.942c-0.971,0 -1.758,0.788 -1.758,1.759 0,0.971 0.787,1.758 1.758,1.758 0.972,0 1.759,-0.787 1.759,-1.758 0,-0.971 -0.787,-1.759 -1.759,-1.759z"/>
   <path class="fil5" d="M24.519 40.119c-0.002,0.049 -0.002,0.1 -0.002,0.15 0,2.267 1.838,4.106 4.106,4.106 2.267,0 4.106,-1.839 4.106,-4.106 0,-0.05 -0.001,-0.101 -0.003,-0.15l-2.191 0c0.004,0.049 0.006,0.1 0.006,0.15 0,1.059 -0.859,1.918 -1.918,1.918 -1.059,0 -1.918,-0.859 -1.918,-1.918 0,-0.05 0.002,-0.101 0.005,-0.15l-2.191 0z"/>
   <path class="fil6" d="M26.02 12.639c-0.802,0.29 -1.68,0.41 -2.586,0.32 -2.815,-0.28 -4.969,-2.496 -5.276,-5.197 0.095,0.024 0.194,0.047 0.294,0.069 0.535,0.12 1.138,0.214 1.816,0.236 0.678,0.022 1.431,-0.028 1.827,-0.056 0.396,-0.027 0.435,-0.033 0.42,-0.055 -0.013,-0.022 -0.08,-0.061 -0.933,-0.426l-0.153 -0.067 0.205 0.087c1.154,0.484 1.177,0.5 1.215,0.73 0.039,0.23 0.094,0.673 0.208,1.093 0.113,0.421 0.285,0.82 0.493,1.201 0.207,0.383 0.45,0.748 0.78,1.077 0.329,0.33 0.744,0.622 1.124,0.8 0.191,0.089 0.373,0.149 0.566,0.188z"/>
   <polygon class="fil3" points="8.01,17.338 9.756,17.914 9.756,22.322 8.01,22.322 "/>
   <path class="fil7" d="M8.09 17.094l1.922 0.635 0 4.849 -2.259 0 0 -5.595 0.337 0.111zm1.409 1.006l-1.233 -0.408 0 4.373 1.233 0 0 -3.965z"/>
   <path class="fil8" d="M9.756 22.322l0 -4.408 2.021 0.673c-0.155,0.24 -0.245,0.527 -0.245,0.836 0,0.854 0.692,1.546 1.546,1.546 0.384,0 0.734,-0.139 1.004,-0.369l-0.439 1.728 -3.887 -0.006z"/>
   <path class="fil9" d="M13.853 21.222c-0.249,0.171 -0.55,0.272 -0.875,0.272 -0.813,0 -1.479,-0.627 -1.541,-1.423 0.166,0.675 0.774,1.175 1.501,1.175 0.383,0 0.733,-0.139 1.003,-0.369l-0.088 0.345z"/>
   <path class="fil8" d="M10.117 22.439c-0.216,0.116 -0.563,0.348 -1.046,0.934 -0.484,0.585 -1.103,1.524 -1.859,3.021 -0.755,1.498 -1.647,3.553 -2.112,4.628 -0.465,1.075 -0.503,1.169 -0.521,1.281 -0.019,0.113 -0.019,0.245 0.695,1.357 0.713,1.112 2.14,3.206 3.055,4.379 0.916,1.173 1.319,1.427 1.563,1.558 0.244,0.132 0.329,0.141 4.238,0.146 3.91,0.004 11.645,0.004 15.583,0.004 3.938,0 4.079,0 4.449,-0.558 0.371,-0.559 0.972,-1.676 1.338,-2.394 0.366,-0.718 0.498,-1.037 -0.328,-2.112 -0.827,-1.075 -2.61,-2.905 -3.577,-3.84 -0.967,-0.933 -1.117,-0.971 -1.741,-0.985 -0.624,-0.014 -1.723,-0.004 -2.291,0.014 -0.568,0.019 -0.605,0.047 -1.37,1.089 -0.765,1.042 -2.258,3.098 -3.262,4.309 -1.005,1.211 -1.521,1.576 -1.797,1.773 -0.275,0.197 -0.309,0.224 -0.528,0.247 -0.219,0.024 -0.623,0.044 -1.867,0.054 -1.243,0.01 -3.326,0.01 -4.453,-0.004 -1.128,-0.015 -1.301,-0.043 -1.467,-0.133 -0.166,-0.088 -0.326,-0.238 -0.622,-0.985 -0.296,-0.746 -0.728,-2.088 -0.949,-2.924 -0.22,-0.835 -0.229,-1.164 0.104,-2.675 0.333,-1.511 1.009,-4.205 1.408,-5.698 0.399,-1.492 0.52,-1.784 0.621,-2.016 0.102,-0.233 0.182,-0.407 0.196,-0.494 0.014,-0.087 -0.038,-0.087 -0.562,-0.088 -0.523,-0.001 -1.518,-0.003 -2.058,-0.003 -0.54,-0.001 -0.624,-0.001 -0.84,0.115z"/>
   <path class="fil9" d="M9.481 23.056l3.448 0.752c0.094,-0.292 0.15,-0.423 0.201,-0.54 0.101,-0.233 0.181,-0.407 0.195,-0.494 0.014,-0.088 -0.038,-0.088 -0.561,-0.088 -0.524,-0.002 -1.519,-0.003 -2.058,-0.003 -0.54,-0.002 -0.625,-0.002 -0.841,0.115 -0.1,0.053 -0.227,0.131 -0.384,0.258z"/>
   <path class="fil9" d="M11.691 39.513l11.53 0 0 -0.455 -13.779 0c0.202,0.177 0.342,0.259 0.45,0.317 0.177,0.095 0.271,0.127 1.799,0.138z"/>
   <g>
    <path class="fil9" d="M35.091 36.814c-0.007,-0.236 -0.023,-0.494 -0.063,-0.733 -0.076,-0.449 -0.235,-0.834 -0.527,-1.28 -0.29,-0.445 -0.713,-0.952 -1.224,-1.394 -0.512,-0.441 -1.113,-0.816 -1.718,-1.079 -0.606,-0.263 -1.216,-0.413 -1.826,-0.442 -0.135,-0.005 -0.27,-0.006 -0.405,0l0.011 0c0.61,0.029 1.22,0.179 1.825,0.442 0.606,0.263 1.207,0.638 1.718,1.079 0.512,0.442 0.934,0.949 1.225,1.394 0.291,0.446 0.451,0.831 0.527,1.28 0.075,0.449 0.066,0.962 0.066,1.272 0,0.07 0.001,0.13 0.002,0.184 0.134,-0.243 0.267,-0.491 0.389,-0.723zm-5.014 2.482l0.047 0 0.585 0 -0.632 0zm3.423 -0.148c0.023,-0.007 0.044,-0.014 0.064,-0.021l-0.064 0.021zm0.248 -0.121c0.013,-0.01 0.025,-0.02 0.037,-0.03 -0.012,0.01 -0.024,0.02 -0.037,0.03z"/>
   </g>
   <path class="fil10" d="M35.391 36.424c0.01,0.117 0.015,0.249 0.019,0.382l-0.036 0.158 -0.189 0.357 -0.202 0.37 -0.6 -0.148 -0.003 -0.19 0.002 -0.086c0,-0.301 0.001,-0.746 -0.064,-1.133 -0.033,-0.202 -0.086,-0.389 -0.162,-0.573 -0.078,-0.189 -0.182,-0.38 -0.317,-0.586 -0.144,-0.221 -0.324,-0.46 -0.533,-0.698 -0.192,-0.217 -0.405,-0.432 -0.632,-0.628 -0.242,-0.209 -0.506,-0.403 -0.781,-0.576 -0.279,-0.174 -0.567,-0.327 -0.855,-0.452 -0.287,-0.125 -0.576,-0.223 -0.865,-0.293 -0.283,-0.068 -0.566,-0.109 -0.848,-0.122l-0.019 -0.001 0.007 -0.638 0.217 -0.006 0.218 0.007c0.324,0.015 0.647,0.062 0.969,0.139 0.326,0.079 0.649,0.189 0.969,0.328 0.32,0.14 0.637,0.307 0.941,0.498 0.301,0.19 0.591,0.402 0.859,0.633 0.257,0.222 0.49,0.457 0.695,0.689 0.229,0.262 0.427,0.526 0.589,0.772 0.155,0.239 0.278,0.465 0.371,0.692 0.095,0.231 0.161,0.462 0.202,0.708 0.022,0.13 0.038,0.264 0.048,0.397z"/>
   <path class="fil9" d="M27.865 30.26l2.169 0c0.336,0.018 0.54,0.079 0.925,0.396l0 0.001 -4.232 0c0.303,-0.358 0.442,-0.376 0.836,-0.389 0.089,-0.003 0.191,-0.006 0.302,-0.008z"/>
   <path class="fil11" d="M32.918 31.917l2.182 0c0.513,0 0.932,0.419 0.932,0.933l0 2.488c-0.825,-1.003 -2.005,-2.275 -3.114,-3.421z"/>
   <path class="fil10" d="M10.299 22.777c-0.089,0.048 -0.209,0.122 -0.358,0.247 -0.158,0.132 -0.349,0.321 -0.574,0.593 -0.246,0.296 -0.532,0.697 -0.863,1.234 -0.289,0.471 -0.607,1.037 -0.95,1.716 -0.378,0.749 -0.787,1.631 -1.157,2.456 -0.388,0.862 -0.719,1.627 -0.946,2.151 -0.215,0.498 -0.336,0.781 -0.423,0.994 -0.056,0.138 -0.066,0.171 -0.07,0.199 -0.001,0.004 0.003,-0.006 0.042,0.077 0.078,0.171 0.249,0.468 0.596,1.009 0.398,0.62 1.006,1.53 1.618,2.405 0.499,0.716 1.008,1.421 1.417,1.945 0.442,0.567 0.758,0.909 0.991,1.124 0.215,0.198 0.35,0.279 0.451,0.332 0.072,0.038 0.125,0.06 0.577,0.075 0.541,0.02 1.536,0.024 3.481,0.025l15.582 0.006c3.74,-0.002 3.874,-0.002 4.13,-0.388 0.159,-0.24 0.362,-0.586 0.57,-0.958 0.258,-0.463 0.535,-0.988 0.744,-1.398 0.154,-0.301 0.259,-0.517 0.243,-0.718 -0.019,-0.227 -0.169,-0.516 -0.531,-0.986 -0.349,-0.453 -0.878,-1.05 -1.442,-1.656 -0.747,-0.802 -1.555,-1.616 -2.098,-2.141 -0.457,-0.441 -0.715,-0.668 -0.915,-0.776 -0.162,-0.088 -0.317,-0.097 -0.568,-0.103 -0.297,-0.006 -0.702,-0.008 -1.103,-0.006 -0.433,0.003 -0.87,0.011 -1.168,0.02 -0.198,0.007 -0.303,0.014 -0.384,0.078 -0.138,0.11 -0.327,0.362 -0.689,0.855l-0.25 0.341c-0.812,1.109 -2.117,2.89 -3.025,3.986 -1.029,1.24 -1.574,1.629 -1.865,1.838l-0.018 0.011c-0.335,0.24 -0.382,0.273 -0.698,0.308 -0.114,0.012 -0.278,0.024 -0.577,0.033 -0.281,0.009 -0.696,0.017 -1.327,0.022 -0.646,0.005 -1.522,0.008 -2.372,0.007 -0.785,-0.001 -1.548,-0.005 -2.089,-0.011 -0.576,-0.007 -0.911,-0.019 -1.125,-0.04 -0.27,-0.026 -0.391,-0.07 -0.517,-0.137 -0.13,-0.07 -0.256,-0.161 -0.398,-0.367 -0.113,-0.164 -0.24,-0.412 -0.4,-0.816 -0.15,-0.378 -0.332,-0.896 -0.502,-1.423 -0.178,-0.547 -0.348,-1.111 -0.462,-1.544 -0.119,-0.451 -0.181,-0.77 -0.168,-1.194 0.013,-0.408 0.096,-0.887 0.267,-1.661 0.16,-0.719 0.389,-1.678 0.627,-2.641 0.281,-1.138 0.575,-2.286 0.786,-3.074 0.199,-0.743 0.332,-1.198 0.428,-1.498 0.097,-0.3 0.159,-0.443 0.213,-0.57l0.021 -0.048 -2.094 -0.003c-0.248,0 -0.392,-0.001 -0.495,0.012 -0.055,0.005 -0.098,0.023 -0.163,0.058zm-0.851 -0.342c0.199,-0.166 0.362,-0.267 0.487,-0.334 0.15,-0.08 0.259,-0.122 0.435,-0.144 0.127,-0.017 0.297,-0.017 0.587,-0.016l2.059 0.003c0.287,0 0.443,0 0.546,0.016 0.398,0.063 0.44,0.214 0.393,0.514 -0.02,0.125 -0.091,0.287 -0.184,0.5l-0.038 0.088c-0.046,0.104 -0.097,0.224 -0.186,0.5 -0.088,0.275 -0.216,0.713 -0.416,1.462 -0.217,0.81 -0.51,1.953 -0.783,3.059 -0.243,0.982 -0.471,1.938 -0.623,2.622 -0.16,0.737 -0.239,1.179 -0.249,1.522 -0.01,0.326 0.042,0.591 0.143,0.974 0.11,0.416 0.275,0.965 0.449,1.502 0.168,0.521 0.344,1.024 0.484,1.378 0.136,0.343 0.237,0.543 0.32,0.663 0.052,0.076 0.091,0.106 0.127,0.126 0.04,0.021 0.089,0.036 0.231,0.05 0.194,0.019 0.511,0.03 1.061,0.036 0.54,0.007 1.3,0.011 2.079,0.012l2.366 -0.007c0.613,-0.005 1.023,-0.012 1.309,-0.022 0.267,-0.009 0.416,-0.019 0.52,-0.031 0.115,-0.012 0.143,-0.031 0.332,-0.166l0.019 -0.014c0.262,-0.187 0.751,-0.536 1.719,-1.703 0.899,-1.084 2.193,-2.851 2.998,-3.949l0.25 -0.342c0.403,-0.548 0.616,-0.831 0.831,-1.002 0.27,-0.214 0.469,-0.231 0.837,-0.243 0.294,-0.009 0.74,-0.017 1.19,-0.02 0.409,-0.002 0.82,-0.001 1.12,0.006 0.372,0.008 0.606,0.025 0.916,0.193 0.273,0.147 0.574,0.407 1.083,0.9 0.555,0.535 1.374,1.361 2.128,2.17 0.578,0.621 1.122,1.236 1.487,1.711 0.463,0.604 0.66,1.014 0.691,1.394 0.033,0.407 -0.111,0.71 -0.323,1.126 -0.2,0.392 -0.479,0.919 -0.761,1.422 -0.218,0.392 -0.432,0.756 -0.6,1.01 -0.486,0.731 -0.634,0.731 -4.769,0.731l-15.582 -0.006c-1.964,-0.003 -2.968,-0.006 -3.508,-0.026 -0.627,-0.022 -0.739,-0.072 -0.913,-0.165 -0.142,-0.077 -0.332,-0.19 -0.607,-0.444 -0.258,-0.237 -0.603,-0.609 -1.076,-1.216 -0.411,-0.527 -0.929,-1.245 -1.441,-1.978 -0.632,-0.907 -1.246,-1.823 -1.635,-2.43 -0.366,-0.57 -0.553,-0.897 -0.646,-1.098 -0.136,-0.288 -0.124,-0.411 -0.104,-0.528 0.014,-0.085 0.032,-0.156 0.115,-0.361l0.433 -1.009c0.238,-0.551 0.585,-1.353 0.948,-2.161 0.38,-0.845 0.796,-1.741 1.172,-2.488 0.359,-0.712 0.687,-1.296 0.981,-1.774 0.343,-0.558 0.652,-0.988 0.925,-1.318 0.258,-0.314 0.483,-0.535 0.673,-0.695z"/>
   <path class="fil8" d="M5.117 33.412c-0.323,0.104 -0.687,0.244 -1.006,0.411 -0.559,0.294 -0.981,0.674 -1.27,1.003 -0.288,0.328 -0.443,0.605 -0.521,0.755 -0.077,0.151 -0.077,0.174 -0.07,0.181 0.007,0.007 0.021,-0.003 1.227,0.429 1.183,0.423 3.512,1.271 4.755,1.722 -0.917,-1.192 -2.27,-3.18 -2.958,-4.253l-0.157 -0.248z"/>
   <polygon class="fil9" points="6.758,37.64 4.739,33.537 7.853,38.037 "/>
   <rect class="fil5" x="24.287" y="27.497" width="7.521" height="2.367" rx="1.538" ry="1.184"/>
   <path class="fil5" d="M30.199 29.864l11.067 0 0 1.237 -9.407 0c-0.094,-0.092 -0.182,-0.178 -0.264,-0.258 -0.762,-0.735 -1.017,-0.914 -1.396,-0.964l0 -0.015z"/>
   <path class="fil8" d="M23.946 0.384c3.65,0 6.609,2.959 6.609,6.609 0,2.435 -1.317,4.561 -3.277,5.708 -0.218,0.005 -0.434,0.008 -0.629,0.002 -0.473,-0.014 -0.816,-0.075 -1.195,-0.252 -0.38,-0.178 -0.795,-0.47 -1.124,-0.8 -0.33,-0.329 -0.573,-0.694 -0.78,-1.077 -0.208,-0.381 -0.38,-0.78 -0.493,-1.201 -0.114,-0.42 -0.169,-0.863 -0.208,-1.093 -0.038,-0.23 -0.061,-0.246 -1.215,-0.73 -1.02,-0.429 -2.924,-1.222 -4.193,-1.725 0.551,-3.093 3.254,-5.441 6.505,-5.441z"/>
   <path class="fil12" d="M17.237 5.926c-0.215,0.161 -0.647,0.489 -0.86,0.673 -0.213,0.184 -0.208,0.222 -0.069,0.336 0.138,0.114 0.409,0.302 0.777,0.468 0.369,0.166 0.834,0.31 1.367,0.428 0.535,0.12 1.138,0.214 1.816,0.236 0.678,0.022 1.431,-0.028 1.827,-0.056 0.396,-0.027 0.434,-0.033 0.42,-0.055 -0.013,-0.022 -0.08,-0.06 -0.933,-0.426 -0.853,-0.367 -2.493,-1.06 -3.312,-1.41 -0.82,-0.35 -0.819,-0.356 -1.033,-0.194z"/>
   <path class="fil7" d="M17.389 6.131l-0.515 0.394c-0.126,0.098 -0.246,0.195 -0.331,0.268 0.067,0.051 0.153,0.11 0.256,0.171 0.112,0.068 0.244,0.139 0.391,0.205 0.172,0.078 0.368,0.151 0.585,0.219 0.229,0.072 0.475,0.137 0.733,0.195 0.257,0.056 0.534,0.108 0.833,0.149 0.296,0.04 0.609,0.069 0.935,0.08 0.331,0.01 0.683,0.004 1.002,-0.009l0.263 -0.012c-1.144,-0.492 -2.291,-0.974 -3.436,-1.463 -0.62,-0.265 -0.623,-0.266 -0.716,-0.197zm-0.83 -0.009l0.524 -0.401c0.328,-0.246 0.333,-0.244 1.222,0.136l3.377 1.437c0.432,0.185 0.665,0.288 0.79,0.345 0.186,0.087 0.231,0.134 0.261,0.182 0.149,0.241 0.155,0.362 -0.241,0.414l-0.38 0.032c-0.194,0.014 -0.477,0.033 -0.815,0.046 -0.326,0.014 -0.691,0.02 -1.036,0.009 -0.35,-0.011 -0.68,-0.041 -0.988,-0.083 -0.306,-0.042 -0.599,-0.096 -0.875,-0.158 -0.283,-0.063 -0.543,-0.132 -0.776,-0.204 -0.234,-0.074 -0.45,-0.154 -0.642,-0.241 -0.169,-0.076 -0.319,-0.157 -0.445,-0.233 -0.172,-0.104 -0.305,-0.2 -0.39,-0.27 -0.143,-0.118 -0.215,-0.209 -0.186,-0.382 0.019,-0.118 0.097,-0.212 0.251,-0.345 0.089,-0.077 0.215,-0.179 0.349,-0.284z"/>
   <path class="fil13" d="M17.539 26.11l0 0c-0.027,-0.122 -0.041,-0.248 -0.041,-0.378 0,-0.975 0.79,-1.766 1.765,-1.766l5.167 0 -0.124 -6.089 3.592 -1.239c1.585,-0.545 1.134,-2.687 -0.355,-2.687 -0.318,0 -1.851,0.816 -3.284,1.614l-0.017 -0.828c-0.007,-0.356 0.211,-0.674 0.563,-0.721l3.228 -0.43c0.353,-0.046 0.654,0.214 0.721,0.564l1.861 9.816 0.009 0.049c0.212,1.122 0.34,2.511 -0.38,3.482l-9.919 0 0.443 7.462c0.485,0.122 0.846,0.63 0.846,1.163l0 0c0,0.651 -0.532,1.183 -1.183,1.183l-3.21 0c-0.651,0 -1.183,-0.124 -1.183,-0.774l0 0c0,-0.651 0.538,-1.101 1.183,-1.183l1.626 -0.207 -1.308 -9.031z"/>
   <polygon class="fil14" points="26.102,17.258 28.428,16.342 24.388,21.882 24.35,20.049 "/>
   <path class="fil15" d="M17.162 26.182c-0.015,-0.069 -0.027,-0.142 -0.035,-0.219 -0.009,-0.081 -0.014,-0.158 -0.014,-0.231 0,-0.592 0.241,-1.13 0.63,-1.519 0.39,-0.389 0.928,-0.631 1.52,-0.631l4.776 0 -0.122 -5.978 3.856 -1.329c0.372,-0.128 0.592,-0.367 0.683,-0.631 0.054,-0.159 0.065,-0.33 0.038,-0.493 -0.027,-0.164 -0.094,-0.322 -0.193,-0.453 -0.163,-0.214 -0.423,-0.362 -0.758,-0.362 -0.093,0 -0.499,0.188 -1.051,0.466 -0.602,0.303 -1.338,0.704 -2.047,1.098l-0.556 0.31 -0.03 -1.465c-0.005,-0.271 0.079,-0.53 0.236,-0.73 0.156,-0.201 0.382,-0.341 0.66,-0.379l3.228 -0.429c0.28,-0.038 0.541,0.044 0.746,0.204 0.203,0.159 0.351,0.398 0.402,0.668 0.479,2.53 1.149,7.701 1.871,9.866 0.11,0.584 0.198,1.242 0.165,1.887 -0.035,0.677 -0.204,1.339 -0.615,1.893l-0.116 0.157 -9.703 0 0.404 6.807c0.214,0.108 0.4,0.271 0.543,0.468 0.2,0.273 0.319,0.615 0.319,0.965 0,0.431 -0.177,0.824 -0.46,1.108 -0.284,0.283 -0.676,0.459 -1.108,0.459l-3.21 0c-0.378,0 -0.731,-0.041 -1.013,-0.188 -0.342,-0.179 -0.555,-0.478 -0.555,-0.97 0,-0.422 0.169,-0.782 0.44,-1.053 0.275,-0.277 0.661,-0.457 1.08,-0.51l1.239 -0.158 -1.25 -8.628zm0.728 -0.301c0.526,3.162 0.932,6.411 1.393,9.59l-2.014 0.257c-0.249,0.031 -0.475,0.135 -0.632,0.292 -0.133,0.131 -0.214,0.306 -0.214,0.51 0,0.159 0.053,0.247 0.14,0.292 0.146,0.077 0.385,0.098 0.658,0.098l3.21 0c0.22,0 0.419,-0.089 0.564,-0.234 0.144,-0.145 0.235,-0.345 0.235,-0.564 0,-0.186 -0.065,-0.368 -0.17,-0.514 -0.098,-0.137 -0.233,-0.239 -0.385,-0.276l-0.273 -0.069 -0.484 -8.151 10.123 0c0.233,-0.386 0.335,-0.844 0.36,-1.319 0.029,-0.572 -0.052,-1.17 -0.153,-1.707 -0.474,-2.527 -0.959,-5.052 -1.437,-7.578 -0.197,0.208 -0.458,0.38 -0.789,0.494l-3.327 1.147 0.126 6.203 -5.558 0c-0.382,0 -0.728,0.154 -0.977,0.403 -0.249,0.249 -0.403,0.595 -0.403,0.977l0.007 0.149zm6.739 -10.959c0.429,-0.235 0.852,-0.462 1.232,-0.66l-1.006 0.135c-0.066,0.008 -0.12,0.042 -0.157,0.09 -0.048,0.062 -0.075,0.149 -0.073,0.243l0.004 0.192z"/>
   <path class="fil9" d="M13.273 23.178c-0.43,0.806 -1.397,3.73 -1.938,4.808 -0.54,1.078 -1.084,2.333 -1.281,3.046 -0.197,0.714 -0.225,1.239 -0.221,1.666 0.005,0.428 0.043,0.756 0.287,1.503 0.244,0.746 0.694,1.91 1.112,2.722 0.418,0.812 0.802,1.272 1.07,1.53 0.268,0.258 0.418,0.315 1.098,0.329 0.681,0.013 1.892,-0.014 2.99,-0.057 1.099,-0.042 2.084,-0.099 2.812,-0.244 0.727,-0.145 1.196,-0.38 1.966,-1.192 0.312,-0.328 0.672,-0.751 1.037,-1.195 -0.545,0.576 -0.871,0.807 -1.071,0.949 -0.275,0.197 -0.309,0.224 -0.528,0.247 -0.219,0.024 -0.623,0.044 -1.867,0.054 -1.243,0.01 -3.326,0.01 -4.453,-0.004 -1.128,-0.015 -1.301,-0.043 -1.467,-0.133 -0.166,-0.088 -0.326,-0.238 -0.622,-0.985 -0.296,-0.746 -0.728,-2.088 -0.949,-2.924 -0.22,-0.835 -0.207,-1.267 0.104,-2.675 0.31,-1.408 1.522,-5.911 1.921,-7.445z"/>
   <path class="fil16" d="M5.363 18.411l-1.464 -0.846c-0.229,-0.132 -0.307,-0.426 -0.174,-0.655l0.144 -0.249c0.133,-0.229 0.426,-0.307 0.655,-0.174l1.464 0.845c0.229,0.132 0.307,0.426 0.174,0.655l-0.144 0.249c-0.133,0.229 -0.426,0.307 -0.655,0.175zm0.333 4.244l-2.053 0.55c-0.256,0.068 -0.52,-0.084 -0.588,-0.339l-0.074 -0.281c-0.067,-0.255 0.085,-0.517 0.34,-0.585l2.052 -0.55c0.257,-0.069 0.52,0.083 0.588,0.339l0.074 0.28c0.067,0.256 -0.085,0.517 -0.339,0.586zm-0.19 -2.14l-3.238 0c-0.265,0 -0.48,-0.215 -0.48,-0.48l0 -0.289c0,-0.265 0.215,-0.48 0.48,-0.48l3.238 0c0.265,0 0.481,0.215 0.481,0.48l0 0.289c0,0.265 -0.216,0.48 -0.481,0.48z"/>
   <path class="fil13" d="M21.694 17.008c0.822,-0.444 5.278,-3.057 5.849,-3.057 1.489,0 1.94,2.142 0.355,2.687l-5.903 2.036 -7.244 1.307 -0.301 -1.666 7.244 -1.307z"/>
   <path class="fil15" d="M21.563 16.642l0.869 -0.489c1.625,-0.921 4.561,-2.586 5.111,-2.586 0.598,0 1.068,0.271 1.368,0.666 0.176,0.231 0.293,0.507 0.34,0.792 0.049,0.287 0.028,0.587 -0.068,0.868 -0.163,0.475 -0.538,0.894 -1.161,1.109l-5.903 2.035 -0.057 0.014 -7.62 1.375 -0.437 -2.42 7.558 -1.364zm1.248 0.178c-0.432,0.245 -0.773,0.438 -0.936,0.526l-0.114 0.039 -6.865 1.239 0.164 0.912 6.83 -1.233 5.883 -2.028c0.372,-0.128 0.592,-0.367 0.683,-0.631 0.054,-0.159 0.065,-0.33 0.038,-0.493 -0.027,-0.164 -0.094,-0.322 -0.193,-0.453 -0.163,-0.214 -0.423,-0.362 -0.758,-0.362 -0.352,0 -3.171,1.599 -4.732,2.484z"/>
   <path class="fil9" d="M24.294 11.432c0.849,-0.281 2.417,-0.826 3.478,-1.638 1.061,-0.812 1.615,-1.891 1.769,-3.013 0.156,-1.122 -0.089,-2.286 -0.38,-3.206 -0.135,-0.426 -0.279,-0.799 -0.409,-1.118 1.118,1.184 1.803,2.779 1.803,4.536 0,2.435 -1.317,4.561 -3.277,5.708 -0.218,0.005 -0.434,0.008 -0.629,0.002 -0.473,-0.014 -0.816,-0.075 -1.195,-0.252 -0.38,-0.178 -0.795,-0.47 -1.124,-0.8 -0.058,-0.058 -0.113,-0.116 -0.166,-0.176l0.13 -0.043z"/>
   <path class="fil17" d="M18.984 3.905c0.252,-0.415 0.738,-1.126 1.387,-1.648 0.65,-0.521 1.463,-0.855 2.191,-1.044 0.727,-0.189 1.368,-0.233 1.715,-0.247 0.348,-0.014 0.402,0.003 0.225,0.059 -0.179,0.056 -0.59,0.151 -1.085,0.31 -0.496,0.16 -1.077,0.383 -1.642,0.703 -0.565,0.321 -1.115,0.738 -1.625,1.175 -0.511,0.436 -0.981,0.893 -1.207,1.06 -0.227,0.168 -0.211,0.047 0.041,-0.368z"/>
   <path class="fil18" d="M18.71 3.739c0.151,-0.249 0.387,-0.605 0.694,-0.971 0.222,-0.263 0.48,-0.529 0.767,-0.76 0.323,-0.259 0.681,-0.474 1.048,-0.649 0.416,-0.199 0.851,-0.348 1.262,-0.455 0.385,-0.1 0.74,-0.161 1.042,-0.198 0.295,-0.037 0.556,-0.052 0.742,-0.059 0.209,-0.009 0.34,-0.004 0.405,0.013l0.025 0.008c0.638,0.182 0.672,0.361 0.192,0.559 -0.044,0.047 -0.113,0.077 -0.209,0.077l-0.081 0.027c-0.068,0.021 -0.166,0.047 -0.287,0.079 -0.209,0.056 -0.494,0.133 -0.796,0.229 -0.237,0.077 -0.497,0.169 -0.769,0.283 -0.269,0.112 -0.544,0.242 -0.812,0.394 -0.27,0.153 -0.539,0.331 -0.802,0.523 -0.266,0.195 -0.525,0.403 -0.773,0.616 -0.241,0.207 -0.454,0.399 -0.64,0.568 -0.246,0.222 -0.452,0.408 -0.585,0.507 -0.511,0.379 -0.732,0.296 -0.667,-0.259 0.013,-0.108 0.095,-0.285 0.244,-0.532z"/>
   <circle class="fil6" cx="13.079" cy="19.423" r="1.547"/>
   <circle class="fil12" cx="12.553" cy="20.084" r="0.711"/>
   <path class="fil17" d="M29.721 32.564c-2.938,0 -5.319,2.187 -5.319,4.885 0,0.429 0.06,0.845 0.173,1.241l0 0 -0.001 -0.447c0,-2.014 1.941,-5.616 5.49,-5.616l0.471 0 0 -0.007c-0.266,-0.037 -0.537,-0.056 -0.814,-0.056z"/>
   <path class="fil18" d="M25.743 33.759c1.02,-0.936 2.427,-1.516 3.978,-1.516 0.139,0 0.283,0.005 0.43,0.015 0.136,0.01 0.271,0.025 0.405,0.043 0.167,0.011 0.299,0.149 0.299,0.319l0 0.008c-0.001,0.176 -0.144,0.318 -0.32,0.318l-0.471 0c-1.437,0.001 -2.595,0.634 -3.445,1.504 -1.131,1.156 -1.725,2.718 -1.725,3.793l0 0.415c0.015,0.151 -0.08,0.297 -0.231,0.34 -0.03,0.008 -0.059,0.012 -0.088,0.012 -0.156,0 -0.285,-0.11 -0.314,-0.256 -0.058,-0.204 -0.102,-0.416 -0.132,-0.634 -0.031,-0.224 -0.048,-0.447 -0.048,-0.671 0,-1.442 0.635,-2.747 1.662,-3.69z"/>
   <polygon class="fil19" points="10.338,18.791 11.506,18.897 10.106,18.475 10.106,20.299 "/>
   <polygon class="fil18" points="11.477,19.215 10.609,19.136 10.422,20.347 9.785,20.299 9.785,18.044 11.598,18.591 "/>
   <path class="fil17" d="M8.851 24.695c-0.439,0.839 -1.373,2.709 -2.013,4.099 -0.64,1.39 -0.984,2.302 -1.152,2.853 -0.166,0.551 -0.155,0.74 -0.133,0.929 0.022,0.189 0.056,0.378 0.106,0.522 0.05,0.145 0.117,0.245 0.161,0.295 0.045,0.05 0.067,0.05 0.073,-0.178 0.005,-0.228 -0.006,-0.684 0.539,-2.219 0.545,-1.535 1.646,-4.149 2.224,-5.55 0.579,-1.402 0.635,-1.591 0.195,-0.751z"/>
   <path class="fil18" d="M7.511 26.645c0.417,-0.847 0.813,-1.633 1.057,-2.098 0.111,-0.211 0.214,-0.403 0.309,-0.578 0.178,-0.603 0.347,-0.817 0.458,-0.785 0.465,-0.717 0.518,-0.412 0.11,1.127 -0.035,0.13 -0.198,0.54 -0.493,1.256l-0.302 0.729c-0.603,1.454 -1.459,3.518 -1.916,4.806 -0.508,1.429 -0.517,1.872 -0.522,2.091l-0.001 0.029c-0.004,0.169 -0.023,0.271 -0.057,0.336 -0.197,0.367 -0.365,0.28 -0.572,0.048l-0.002 -0.001c-0.036,-0.041 -0.083,-0.105 -0.129,-0.19 -0.034,-0.063 -0.068,-0.134 -0.095,-0.212 -0.03,-0.091 -0.055,-0.189 -0.074,-0.288 -0.019,-0.097 -0.034,-0.199 -0.047,-0.303 -0.013,-0.113 -0.023,-0.226 -0.004,-0.399 0.018,-0.16 0.06,-0.364 0.149,-0.659 0.094,-0.308 0.241,-0.723 0.458,-1.261 0.183,-0.455 0.417,-0.996 0.709,-1.633 0.277,-0.603 0.624,-1.322 0.964,-2.015z"/>
   <path class="fil17" d="M5.087 33.994c-0.153,0.046 -0.497,0.173 -0.808,0.366 -0.312,0.193 -0.591,0.452 -0.771,0.691 -0.18,0.238 -0.261,0.457 -0.298,0.569 -0.037,0.113 -0.03,0.12 0.053,0.157 0.084,0.037 0.243,0.104 0.323,0.133 0.08,0.029 0.08,0.021 0.136,-0.184 0.058,-0.204 0.172,-0.606 0.421,-0.923 0.25,-0.319 0.636,-0.553 0.848,-0.688 0.212,-0.134 0.25,-0.168 0.096,-0.121z"/>
   <path class="fil18" d="M4.534 33.864c0.193,-0.087 0.363,-0.147 0.461,-0.177l0.048 -0.014c0.108,-0.085 0.207,-0.1 0.286,-0.073 0.491,-0.098 0.533,0.075 0.09,0.594 -0.042,0.049 -0.125,0.108 -0.256,0.192l-0.039 0.023c-0.199,0.126 -0.527,0.333 -0.729,0.591 -0.104,0.133 -0.181,0.285 -0.238,0.426 -0.06,0.15 -0.1,0.291 -0.126,0.386l-0.005 0.015c-0.018,0.065 -0.031,0.112 -0.045,0.151 -0.128,0.35 -0.22,0.337 -0.506,0.232l-0.158 -0.063 -0.182 -0.078c-0.123,-0.053 -0.192,-0.091 -0.243,-0.232 -0.041,-0.109 -0.028,-0.188 0.014,-0.316 0.02,-0.062 0.053,-0.154 0.111,-0.276 0.056,-0.116 0.132,-0.249 0.236,-0.387 0.103,-0.136 0.236,-0.28 0.389,-0.417 0.142,-0.128 0.301,-0.249 0.469,-0.353 0.145,-0.09 0.291,-0.164 0.423,-0.224z"/>
   <path class="fil20" d="M50.354 39.294c-1.17,0.432 -2.958,0.708 -4.963,0.708 -3.522,0 -6.379,-0.852 -6.379,-1.904 0,-1 2.586,-1.82 5.871,-1.897 -0.201,-0.348 -0.315,-0.744 -0.315,-1.163 0,-1.407 1.279,-2.547 2.855,-2.547 1.471,0 2.681,0.991 2.838,2.265 0.652,-0.48 1.515,-0.773 2.461,-0.773 2.031,0 3.678,1.348 3.678,3.009 0,1.663 -1.647,3.01 -3.678,3.01 -0.902,0 -1.728,-0.267 -2.368,-0.708z"/>
   <path class="fil21" d="M35.62 37.579l0 -0.091c0,-0.331 0.002,-0.821 -0.071,-1.252 -0.039,-0.233 -0.101,-0.451 -0.19,-0.667 -0.089,-0.218 -0.207,-0.435 -0.36,-0.67 -0.16,-0.246 -0.36,-0.51 -0.592,-0.774 -0.209,-0.238 -0.445,-0.475 -0.7,-0.695 -0.269,-0.232 -0.561,-0.447 -0.864,-0.638 -0.307,-0.192 -0.627,-0.362 -0.948,-0.501 -0.32,-0.139 -0.642,-0.248 -0.965,-0.326 -0.317,-0.077 -0.636,-0.123 -0.955,-0.138 -0.32,-0.014 -0.641,0.002 -0.966,0.055 -0.325,0.053 -0.655,0.142 -0.997,0.27 -0.333,0.126 -0.677,0.29 -1.005,0.474 -0.343,0.192 -0.668,0.407 -0.946,0.621 -0.271,0.21 -0.499,0.421 -0.703,0.643 -0.203,0.223 -0.384,0.457 -0.562,0.712 -0.188,0.267 -0.372,0.558 -0.541,0.861 -0.153,0.275 -0.292,0.558 -0.407,0.84 -0.121,0.297 -0.216,0.594 -0.292,0.88 -0.076,0.285 -0.132,0.56 -0.174,0.81 -0.042,0.249 -0.07,0.476 -0.085,0.694 -0.014,0.216 -0.016,0.424 -0.004,0.635l0.013 0.157 0.014 0.101 6.88 0c2.094,0 3.18,0 3.786,-0.074 0.582,-0.071 0.71,-0.21 0.896,-0.49 0.098,-0.147 0.209,-0.329 0.327,-0.53 0.13,-0.22 0.272,-0.47 0.412,-0.727l-0.001 -0.18zm0.138 -0.091l0.001 0.287 -0.008 0.035c-0.142,0.258 -0.287,0.514 -0.423,0.746 -0.121,0.206 -0.235,0.391 -0.331,0.536 -0.209,0.316 -0.354,0.473 -0.994,0.551 -0.615,0.075 -1.703,0.075 -3.803,0.075l-6.994 0 -0.011 -0.055c-0.012,-0.058 -0.02,-0.115 -0.026,-0.17l-0.013 -0.163c-0.013,-0.218 -0.012,-0.431 0.003,-0.653 0.016,-0.221 0.044,-0.452 0.088,-0.707 0.043,-0.254 0.099,-0.533 0.176,-0.823 0.077,-0.29 0.174,-0.593 0.297,-0.896 0.119,-0.289 0.26,-0.577 0.415,-0.854 0.17,-0.306 0.357,-0.602 0.548,-0.874 0.181,-0.26 0.366,-0.498 0.574,-0.726 0.208,-0.228 0.442,-0.444 0.72,-0.659 0.284,-0.219 0.614,-0.437 0.963,-0.632 0.333,-0.187 0.683,-0.354 1.024,-0.483 0.349,-0.131 0.689,-0.222 1.023,-0.277 0.335,-0.054 0.665,-0.072 0.994,-0.057 0.327,0.015 0.655,0.063 0.982,0.142 0.329,0.08 0.659,0.191 0.987,0.334 0.326,0.141 0.653,0.314 0.966,0.511 0.31,0.195 0.608,0.414 0.881,0.65 0.262,0.225 0.502,0.467 0.714,0.708 0.235,0.268 0.439,0.538 0.603,0.79 0.157,0.241 0.28,0.467 0.372,0.693 0.094,0.226 0.158,0.453 0.199,0.696 0.074,0.442 0.074,0.939 0.073,1.275z"/>
   <path class="fil10" d="M23.946 0c1.932,0 3.68,0.783 4.945,2.048 1.265,1.267 2.049,3.015 2.049,4.945 0,1.265 -0.337,2.452 -0.924,3.476 -0.609,1.059 -1.488,1.944 -2.543,2.562l-0.184 0.053 -0.333 0.005 -0.318 -0.003c-0.256,-0.007 -0.481,-0.029 -0.697,-0.072 -0.223,-0.045 -0.431,-0.114 -0.649,-0.216 -0.212,-0.099 -0.434,-0.23 -0.645,-0.38 -0.212,-0.151 -0.415,-0.32 -0.59,-0.495 -0.179,-0.18 -0.336,-0.371 -0.476,-0.568 -0.136,-0.194 -0.258,-0.394 -0.368,-0.597 -0.111,-0.205 -0.213,-0.414 -0.299,-0.622 -0.09,-0.216 -0.168,-0.437 -0.228,-0.664 -0.097,-0.356 -0.152,-0.717 -0.191,-0.969l-0.023 -0.16 -0.01 -0.004c-0.131,-0.079 -0.416,-0.2 -0.976,-0.436 -0.667,-0.279 -1.615,-0.675 -2.399,-0.997 -0.646,-0.265 -1.282,-0.524 -1.787,-0.725l-0.293 -0.116 0.055 -0.306c0.294,-1.651 1.168,-3.101 2.401,-4.133 1.215,-1.014 2.778,-1.626 4.483,-1.626zm4.402 2.592c-1.126,-1.126 -2.683,-1.823 -4.402,-1.823 -1.519,0 -2.911,0.544 -3.991,1.446 -1.021,0.855 -1.765,2.032 -2.074,3.373l1.497 0.609c1.015,0.417 1.875,0.776 2.405,0.998 0.593,0.25 0.898,0.379 1.076,0.487 0.3,0.181 0.33,0.305 0.369,0.536l0.026 0.169c0.037,0.237 0.09,0.576 0.174,0.888 0.052,0.193 0.118,0.383 0.194,0.567 0.079,0.19 0.168,0.373 0.264,0.549 0.096,0.178 0.202,0.352 0.32,0.519 0.115,0.163 0.245,0.321 0.394,0.469 0.153,0.152 0.321,0.293 0.491,0.414 0.176,0.124 0.356,0.232 0.525,0.311 0.161,0.075 0.315,0.126 0.476,0.159 0.169,0.034 0.352,0.051 0.567,0.057l0.51 0c0.901,-0.546 1.654,-1.316 2.179,-2.233 0.523,-0.91 0.822,-1.967 0.822,-3.094 0,-1.719 -0.696,-3.276 -1.822,-4.401z"/>
   <path class="fil10" d="M35.364 37.581l-0.001 -0.093c0.002,-0.161 0.002,-0.362 -0.006,-0.578 -0.008,-0.208 -0.026,-0.426 -0.06,-0.632 -0.018,-0.107 -0.041,-0.211 -0.07,-0.312 -0.03,-0.104 -0.065,-0.204 -0.104,-0.3 -0.04,-0.098 -0.089,-0.2 -0.145,-0.304 -0.055,-0.102 -0.119,-0.209 -0.194,-0.322 -0.077,-0.12 -0.167,-0.246 -0.265,-0.375 -0.091,-0.119 -0.192,-0.244 -0.304,-0.37 -0.107,-0.122 -0.218,-0.241 -0.33,-0.352 -0.111,-0.111 -0.228,-0.218 -0.345,-0.32 -0.127,-0.11 -0.262,-0.216 -0.401,-0.319 -0.141,-0.104 -0.286,-0.203 -0.433,-0.296 -0.148,-0.092 -0.299,-0.18 -0.452,-0.261 -0.155,-0.082 -0.31,-0.156 -0.46,-0.222 -0.156,-0.066 -0.31,-0.127 -0.463,-0.178 -0.154,-0.052 -0.308,-0.097 -0.461,-0.134 -0.148,-0.035 -0.3,-0.065 -0.455,-0.087 -0.154,-0.022 -0.305,-0.038 -0.451,-0.044 -0.15,-0.007 -0.303,-0.006 -0.456,0.002 -0.153,0.009 -0.305,0.026 -0.457,0.05 -0.149,0.025 -0.305,0.059 -0.467,0.103 -0.164,0.044 -0.324,0.095 -0.481,0.154 -0.159,0.061 -0.32,0.129 -0.477,0.203 -0.165,0.078 -0.332,0.164 -0.494,0.255 -0.162,0.091 -0.324,0.19 -0.48,0.292 -0.158,0.104 -0.304,0.208 -0.435,0.309 -0.127,0.098 -0.247,0.199 -0.36,0.303 -0.107,0.097 -0.21,0.201 -0.31,0.31 -0.096,0.105 -0.189,0.216 -0.278,0.329 -0.095,0.121 -0.183,0.239 -0.264,0.356 -0.096,0.136 -0.189,0.277 -0.276,0.416 -0.088,0.14 -0.172,0.282 -0.251,0.424 -0.073,0.132 -0.146,0.271 -0.216,0.415 -0.068,0.14 -0.128,0.273 -0.177,0.395 -0.057,0.141 -0.109,0.285 -0.156,0.43 -0.048,0.144 -0.089,0.285 -0.126,0.419 -0.036,0.137 -0.067,0.274 -0.096,0.407l-0.072 0.381 -0.051 0.348c-0.014,0.115 -0.025,0.222 -0.031,0.32 -0.008,0.109 -0.012,0.212 -0.012,0.304 -0.001,0.095 0.001,0.193 0.007,0.296l0.002 0.021 6.65 0.001c1.09,-0.001 1.918,-0.001 2.448,-0.009 0.594,-0.009 1.009,-0.028 1.308,-0.064 0.25,-0.03 0.397,-0.072 0.492,-0.131 0.085,-0.051 0.147,-0.134 0.221,-0.246l0.151 -0.238 0.169 -0.28 0.376 -0.664 -0.001 -0.112zm0.65 -0.093l0.001 0.287 -0.008 0.065 -0.032 0.093 -0.427 0.754 -0.177 0.294 -0.162 0.254c-0.122,0.184 -0.229,0.325 -0.412,0.44 -0.175,0.108 -0.403,0.179 -0.763,0.223 -0.31,0.038 -0.746,0.057 -1.373,0.067 -0.69,0.01 -1.454,0.01 -2.461,0.01l-7.204 -0.002c-0.037,-0.186 -0.095,-0.438 -0.095,-0.629 -0.007,-0.109 -0.01,-0.223 -0.009,-0.34 0,-0.119 0.004,-0.233 0.012,-0.343 0.008,-0.121 0.02,-0.239 0.034,-0.356l0.056 -0.376 0.078 -0.409c0.03,-0.143 0.064,-0.289 0.103,-0.438 0.041,-0.155 0.086,-0.31 0.135,-0.459 0.051,-0.153 0.108,-0.309 0.173,-0.468 0.062,-0.151 0.127,-0.297 0.195,-0.436 0.068,-0.142 0.147,-0.292 0.233,-0.447 0.086,-0.155 0.177,-0.306 0.268,-0.451 0.094,-0.15 0.193,-0.299 0.294,-0.444 0.098,-0.14 0.193,-0.27 0.285,-0.387 0.095,-0.121 0.198,-0.242 0.31,-0.365 0.109,-0.119 0.225,-0.236 0.349,-0.35 0.127,-0.116 0.261,-0.229 0.403,-0.339 0.151,-0.117 0.312,-0.232 0.476,-0.339 0.171,-0.112 0.346,-0.217 0.519,-0.314 0.173,-0.098 0.353,-0.191 0.534,-0.276 0.177,-0.083 0.354,-0.159 0.525,-0.223 0.188,-0.07 0.368,-0.128 0.541,-0.175 0.175,-0.047 0.352,-0.086 0.53,-0.115 0.177,-0.029 0.353,-0.048 0.527,-0.058 0.173,-0.01 0.347,-0.01 0.52,-0.003 0.176,0.009 0.349,0.025 0.516,0.049 0.168,0.025 0.34,0.058 0.514,0.101 0.175,0.041 0.347,0.091 0.516,0.149 0.17,0.057 0.343,0.124 0.514,0.199 0.176,0.076 0.346,0.157 0.506,0.243 0.166,0.088 0.332,0.184 0.494,0.286 0.166,0.104 0.323,0.212 0.47,0.319 0.151,0.112 0.3,0.23 0.441,0.352 0.134,0.116 0.262,0.234 0.381,0.352 0.126,0.125 0.246,0.254 0.359,0.383 0.121,0.137 0.232,0.273 0.333,0.406 0.107,0.14 0.205,0.278 0.292,0.413 0.082,0.123 0.155,0.246 0.222,0.37 0.065,0.12 0.122,0.241 0.173,0.364 0.051,0.125 0.095,0.248 0.129,0.37 0.035,0.124 0.064,0.252 0.086,0.382 0.076,0.458 0.076,0.968 0.075,1.313l0.001 0.004z"/>
   <path class="fil10" d="M4.954 33.873l-0.233 0.09c-0.15,0.062 -0.297,0.129 -0.431,0.2 -0.233,0.122 -0.44,0.26 -0.618,0.4 -0.214,0.17 -0.396,0.349 -0.543,0.516 -0.128,0.145 -0.229,0.283 -0.306,0.402l-0.038 0.058 0.821 0.29 3.561 1.29c-0.217,-0.301 -0.438,-0.616 -0.655,-0.927 -0.593,-0.853 -1.173,-1.721 -1.558,-2.319zm-0.521 -0.619c0.198,-0.081 0.392,-0.15 0.567,-0.207l0.283 -0.09 0.315 0.497c0.372,0.581 0.947,1.44 1.544,2.299 0.497,0.715 0.998,1.412 1.393,1.927l-0.434 0.593 -1.026 -0.372c-1.164,-0.423 -2.65,-0.962 -3.727,-1.348 -0.92,-0.329 -1.13,-0.397 -1.188,-0.416 -0.105,-0.034 -0.117,-0.038 -0.182,-0.103 -0.088,-0.088 -0.163,-0.213 -0.088,-0.432 0.016,-0.043 0.042,-0.103 0.09,-0.195 0.043,-0.086 0.108,-0.206 0.2,-0.347 0.091,-0.139 0.213,-0.304 0.373,-0.487 0.168,-0.193 0.383,-0.404 0.644,-0.61 0.216,-0.171 0.463,-0.336 0.736,-0.479 0.161,-0.085 0.331,-0.163 0.5,-0.23z"/>
   <path class="fil10" d="M9.499 22.322l0 -4.762 2.672 0.888 -0.178 0.277c-0.066,0.102 -0.119,0.215 -0.153,0.332 -0.033,0.115 -0.051,0.237 -0.051,0.366 0,0.356 0.144,0.679 0.377,0.913 0.234,0.232 0.556,0.377 0.913,0.377 0.158,0 0.308,-0.029 0.446,-0.079 0.145,-0.053 0.277,-0.131 0.39,-0.228l0.415 0.258 -0.488 1.919 -4.343 -0.007 0 -0.254zm0.513 -4.053l0 3.798 3.431 0.005 0.243 -0.951c-0.191,0.067 -0.395,0.105 -0.607,0.105 -0.498,0 -0.95,-0.202 -1.275,-0.528 -0.327,-0.328 -0.528,-0.778 -0.528,-1.275 0,-0.174 0.026,-0.346 0.073,-0.509 0.019,-0.061 0.04,-0.121 0.064,-0.18l-1.401 -0.465z"/>
  </g>
 </g>
</svg>
