<?xml version="1.0" encoding="UTF-8"?>
<!DOCTYPE svg PUBLIC "-//W3C//DTD SVG 1.1//EN" "http://www.w3.org/Graphics/SVG/1.1/DTD/svg11.dtd">
<!-- Creator: CorelDRAW 2018 (64-Bit Evaluation Version) -->
<svg xmlns="http://www.w3.org/2000/svg" xml:space="preserve" width="25px" height="25px" version="1.1" style="shape-rendering:geometricPrecision; text-rendering:geometricPrecision; image-rendering:optimizeQuality; fill-rule:evenodd; clip-rule:evenodd"
viewBox="0 0 25 25"
 xmlns:xlink="http://www.w3.org/1999/xlink">
 <defs>
  <style type="text/css">
   <![CDATA[
    .fil1 {fill:#D4992A}
    .fil0 {fill:#FDBB40}
    .fil2 {fill:white}
   ]]>
  </style>
 </defs>
 <g id="Layer_x0020_1">
  <metadata id="CorelCorpID_0Corel-Layer"/>
  <g id="_2507756054704">
   <ellipse class="fil0" cx="12.5" cy="12.5" rx="12.546" ry="12.547"/>
   <path class="fil1" d="M13.467 5.405l1.806 5.596 5.881 -0.012c0.333,0 0.603,0.271 0.603,0.604 0,0.201 -0.098,0.38 -0.249,0.489l-4.763 3.448 1.828 5.589c0.103,0.318 -0.071,0.659 -0.388,0.763 -0.207,0.067 -0.425,0.016 -0.58,-0.115l-4.714 -3.439 -4.751 3.466c-0.269,0.196 -0.647,0.136 -0.843,-0.132 -0.118,-0.163 -0.143,-0.365 -0.086,-0.543l1.826 -5.589 -4.764 -3.447c-0.27,-0.196 -0.33,-0.575 -0.134,-0.845 0.126,-0.174 0.329,-0.262 0.529,-0.249l5.842 0.012 1.806 -5.596c0.102,-0.317 0.442,-0.492 0.76,-0.39 0.193,0.062 0.333,0.211 0.391,0.39z"/>
   <path class="fil2" d="M13.076 4.457l1.806 5.595 5.881 -0.011c0.333,0 0.604,0.27 0.604,0.604 0,0.201 -0.098,0.379 -0.249,0.488l-4.763 3.449 1.827 5.589c0.103,0.317 -0.07,0.659 -0.388,0.762 -0.207,0.068 -0.424,0.017 -0.579,-0.114l-4.714 -3.44 -4.752 3.466c-0.269,0.196 -0.647,0.137 -0.842,-0.132 -0.118,-0.162 -0.144,-0.364 -0.087,-0.542l1.827 -5.589 -4.764 -3.447c-0.27,-0.196 -0.331,-0.575 -0.135,-0.846 0.127,-0.174 0.329,-0.261 0.53,-0.248l5.841 0.011 1.806 -5.595c0.102,-0.318 0.443,-0.493 0.76,-0.391 0.193,0.062 0.333,0.211 0.391,0.391z"/>
  </g>
 </g>
</svg>
