<?xml version="1.0" encoding="UTF-8"?>
<!DOCTYPE svg PUBLIC "-//W3C//DTD SVG 1.1//EN" "http://www.w3.org/Graphics/SVG/1.1/DTD/svg11.dtd">
<!-- Creator: CorelDRAW 2018 (64-Bit Evaluation Version) -->
<svg xmlns="http://www.w3.org/2000/svg" xml:space="preserve" width="32px" height="25px" version="1.1" style="shape-rendering:geometricPrecision; text-rendering:geometricPrecision; image-rendering:optimizeQuality; fill-rule:evenodd; clip-rule:evenodd"
viewBox="0 0 32 25"
 xmlns:xlink="http://www.w3.org/1999/xlink">
 <defs>
  <style type="text/css">
   <![CDATA[
    .fil0 {fill:#ECE0C5}
    .fil1 {fill:#D6C8A6}
    .fil3 {fill:#6B6557}
    .fil2 {fill:#4A4435;fill-rule:nonzero}
   ]]>
  </style>
 </defs>
 <g id="Layer_x0020_1">
  <metadata id="CorelCorpID_0Corel-Layer"/>
  <g id="_2500160812512">
   <rect class="fil0" x="2.434" y="3.754" width="27.132" height="20.915" rx="1.583" ry="1.583"/>
   <path class="fil1" d="M4.016 24.669l23.968 0 0 -1.445c0,-0.522 -0.427,-0.949 -0.949,-0.949l-22.07 0c-0.522,0 -0.949,0.427 -0.949,0.949l0 1.445z"/>
   <path class="fil1" d="M2.434 5.982l27.133 0 0 1.232c0,0.444 -0.364,0.808 -0.809,0.808l-25.516 0c-0.445,0 -0.808,-0.364 -0.808,-0.808l0 -1.232z"/>
   <path class="fil2" d="M4.016 3.423l23.968 0c0.525,0 1.004,0.215 1.351,0.561 0.348,0.348 0.563,0.827 0.563,1.353l0 17.749c0,0.527 -0.215,1.006 -0.562,1.352 -0.348,0.347 -0.827,0.562 -1.352,0.562l-23.968 0c-0.526,0 -1.005,-0.215 -1.352,-0.562 -0.346,-0.346 -0.562,-0.825 -0.562,-1.352l0 -17.749c0,-0.526 0.216,-1.005 0.562,-1.351 0.347,-0.348 0.826,-0.563 1.352,-0.563zm23.968 0.662l-23.968 0c-0.343,0 -0.656,0.142 -0.883,0.368 -0.227,0.226 -0.367,0.54 -0.367,0.884l0 17.749c0,0.344 0.14,0.657 0.367,0.884 0.227,0.226 0.54,0.368 0.883,0.368l23.968 0c0.344,0 0.657,-0.142 0.884,-0.368 0.226,-0.227 0.367,-0.54 0.367,-0.884l0 -17.749c0,-0.344 -0.141,-0.658 -0.367,-0.884 -0.227,-0.227 -0.54,-0.368 -0.884,-0.368z"/>
   <rect class="fil3" x="9.455" y="9.544" width="13.09" height="2.436" rx="5.045" ry="1.218"/>
   <path class="fil2" d="M10.673 9.212l10.654 0c0.426,0 0.813,0.174 1.094,0.455 0.281,0.282 0.455,0.669 0.455,1.094 0,0.426 -0.174,0.813 -0.454,1.093 -0.282,0.282 -0.669,0.457 -1.095,0.457l-10.654 0c-0.425,0 -0.812,-0.175 -1.093,-0.455 -0.282,-0.282 -0.456,-0.669 -0.456,-1.095 0,-0.425 0.174,-0.812 0.455,-1.093 0.282,-0.282 0.669,-0.456 1.094,-0.456zm10.654 0.663l-10.654 0c-0.244,0 -0.466,0.1 -0.626,0.26 -0.16,0.16 -0.26,0.382 -0.26,0.626 0,0.244 0.1,0.466 0.26,0.627 0.16,0.16 0.382,0.26 0.626,0.26l10.654 0c0.244,0 0.466,-0.1 0.626,-0.26 0.161,-0.161 0.261,-0.383 0.261,-0.627 0,-0.244 -0.1,-0.466 -0.261,-0.626 -0.16,-0.16 -0.382,-0.26 -0.626,-0.26z"/>
   <rect class="fil3" transform="matrix(5.89767E-16 -0.0101475 0.00537539 6.48745E-17 4.3445 23.4932)" width="240.003" height="185.002" rx="92.502" ry="92.502"/>
   <rect class="fil3" transform="matrix(5.89767E-16 -0.0101475 0.00537539 6.48745E-17 6.49903 23.4932)" width="240.003" height="185.002" rx="92.502" ry="92.502"/>
   <rect class="fil3" transform="matrix(5.89767E-16 -0.0101475 0.00537539 6.48745E-17 8.55118 23.4932)" width="240.003" height="185.002" rx="92.502" ry="92.502"/>
   <rect class="fil3" transform="matrix(5.89767E-16 -0.0101475 0.00537539 6.48745E-17 10.7057 23.4932)" width="240.003" height="185.002" rx="92.502" ry="92.502"/>
   <rect class="fil3" transform="matrix(5.89767E-16 -0.0101475 0.00537539 6.48745E-17 12.8512 23.4932)" width="240.003" height="185.002" rx="92.502" ry="92.502"/>
   <rect class="fil3" transform="matrix(5.89767E-16 -0.0101475 0.00537539 6.48745E-17 15.0058 23.4932)" width="240.003" height="185.002" rx="92.502" ry="92.502"/>
   <rect class="fil3" transform="matrix(5.89767E-16 -0.0101475 0.00537539 6.48745E-17 17.0579 23.4932)" width="240.003" height="185.002" rx="92.502" ry="92.502"/>
   <rect class="fil3" transform="matrix(5.89767E-16 -0.0101475 0.00537539 6.48745E-17 19.2124 23.4932)" width="240.003" height="185.002" rx="92.502" ry="92.502"/>
   <rect class="fil3" transform="matrix(5.89767E-16 -0.0101475 0.00537539 6.48745E-17 21.0855 23.4932)" width="240.003" height="185.002" rx="92.502" ry="92.502"/>
   <rect class="fil3" transform="matrix(5.89767E-16 -0.0101475 0.00537539 6.48745E-17 23.24 23.4932)" width="240.003" height="185.002" rx="92.502" ry="92.502"/>
   <rect class="fil3" transform="matrix(5.89767E-16 -0.0101475 0.00537539 6.48745E-17 25.2922 23.4932)" width="240.003" height="185.002" rx="92.502" ry="92.502"/>
   <rect class="fil3" transform="matrix(5.89767E-16 -0.0101475 0.00537539 6.48745E-17 27.4467 23.4932)" width="240.003" height="185.002" rx="92.502" ry="92.502"/>
   <rect class="fil0" x="0.752" y="0.332" width="30.497" height="5.651" rx="4.567" ry="1.098"/>
   <path class="fil2" d="M1.85 0.001l28.301 0c0.392,0 0.749,0.16 1.008,0.419 0.26,0.26 0.421,0.617 0.421,1.01l0 3.455c0,0.392 -0.161,0.75 -0.42,1.008 -0.26,0.26 -0.617,0.421 -1.009,0.421l-28.301 0c-0.394,0 -0.752,-0.161 -1.01,-0.42 -0.259,-0.258 -0.42,-0.616 -0.42,-1.009l0 -3.455c0,-0.393 0.161,-0.75 0.42,-1.009 0.258,-0.26 0.616,-0.42 1.01,-0.42zm28.301 0.662l-28.301 0c-0.211,0 -0.403,0.087 -0.541,0.226 -0.14,0.138 -0.226,0.33 -0.226,0.541l0 3.455c0,0.21 0.087,0.402 0.226,0.541 0.138,0.139 0.33,0.225 0.541,0.225l28.301 0c0.211,0 0.403,-0.086 0.542,-0.224 0.138,-0.139 0.224,-0.332 0.224,-0.542l0 -3.455c0,-0.211 -0.086,-0.403 -0.224,-0.542 -0.139,-0.139 -0.331,-0.225 -0.542,-0.225z"/>
  </g>
 </g>
</svg>
