<?xml version="1.0" encoding="UTF-8"?>
<!DOCTYPE svg PUBLIC "-//W3C//DTD SVG 1.1//EN" "http://www.w3.org/Graphics/SVG/1.1/DTD/svg11.dtd">
<!-- Creator: CorelDRAW 2018 (64-Bit Evaluation Version) -->
<svg xmlns="http://www.w3.org/2000/svg" xml:space="preserve" width="114px" height="152px" version="1.1" style="shape-rendering:geometricPrecision; text-rendering:geometricPrecision; image-rendering:optimizeQuality; fill-rule:evenodd; clip-rule:evenodd"
viewBox="0 0 114 152.001"
 xmlns:xlink="http://www.w3.org/1999/xlink">
 <defs>
  <style type="text/css">
   <![CDATA[
    .fil15 {fill:#01AFE4}
    .fil9 {fill:#86AB3C}
    .fil12 {fill:#8FBA3A}
    .fil11 {fill:#A8C769}
    .fil1 {fill:#B069D6}
    .fil0 {fill:#B8EEFF}
    .fil4 {fill:#BF82E0}
    .fil3 {fill:#CFA2E8}
    .fil7 {fill:#FCE065}
    .fil6 {fill:#FFF596}
    .fil14 {fill:#01AFE4;fill-rule:nonzero}
    .fil8 {fill:#0790BA;fill-rule:nonzero}
    .fil10 {fill:#52750B;fill-rule:nonzero}
    .fil13 {fill:#6E9C13;fill-rule:nonzero}
    .fil2 {fill:#8E3DBA;fill-rule:nonzero}
    .fil5 {fill:#A356CC;fill-rule:nonzero}
   ]]>
  </style>
 </defs>
 <g id="Layer_x0020_1">
  <metadata id="CorelCorpID_0Corel-Layer"/>
  <rect class="fil0" transform="matrix(0.636172 -0.22495 0.224945 0.636185 1.07861 24.7828)" width="106.251" height="142.501" rx="4.062" ry="4.062"/>
  <path class="fil1" d="M59.024 92.754c1.877,-8.185 5.673,-23.246 7.981,-31.687 2.308,-8.442 3.126,-10.264 4.502,-11.099 1.377,-0.834 3.31,-0.682 11.211,5.02 1.996,1.44 4.372,3.235 6.929,5.21l10.167 28.757c0.503,1.422 -0.248,2.995 -1.67,3.497l-49.709 17.578c0.075,-0.081 0.157,-0.163 0.245,-0.249 1.581,-1.533 5.069,-3.88 6.79,-5.708 1.723,-1.827 1.678,-3.135 3.554,-11.319z"/>
  <path class="fil2" d="M58.038 92.53c0.944,-4.112 2.359,-9.909 3.822,-15.721 1.458,-5.787 2.99,-11.684 4.171,-16.009 1.168,-4.265 1.961,-6.866 2.641,-8.518 0.764,-1.854 1.44,-2.645 2.315,-3.175 0.938,-0.569 2.022,-0.818 4.048,-0.022 1.713,0.675 4.244,2.177 8.271,5.084 1.074,0.774 2.169,1.584 3.276,2.417 1.096,0.827 2.338,1.778 3.68,2.815l0.336 0.462 10.169 28.757c0.344,0.973 0.261,1.998 -0.153,2.863 -0.412,0.867 -1.157,1.578 -2.132,1.922l-49.71 17.576 -1.009 -1.601 -0.054 -0.051 0.272 -0.276c0.727,-0.704 1.812,-1.553 2.955,-2.446 1.395,-1.09 2.881,-2.251 3.797,-3.226 1.186,-1.255 1.421,-2.331 2.377,-6.696 0.238,-1.085 0.52,-2.373 0.928,-4.155zm5.783 -15.231c-1.471,5.844 -2.884,11.631 -3.814,15.681 -0.341,1.49 -0.657,2.927 -0.92,4.132 -1.052,4.804 -1.311,5.988 -2.883,7.652 -0.713,0.759 -1.699,1.588 -2.73,2.412l44.336 -15.676c0.445,-0.157 0.787,-0.486 0.978,-0.887 0.192,-0.401 0.231,-0.874 0.073,-1.321l-10.07 -28.478c-1.135,-0.875 -2.28,-1.749 -3.427,-2.615 -1.219,-0.917 -2.312,-1.728 -3.235,-2.394 -3.871,-2.793 -6.259,-4.22 -7.83,-4.838 -1.259,-0.495 -1.83,-0.403 -2.269,-0.137 -0.503,0.306 -0.926,0.845 -1.492,2.219 -0.649,1.576 -1.42,4.108 -2.562,8.282 -1.131,4.14 -2.661,10.037 -4.155,15.968z"/>
  <path class="fil3" d="M15.998 66.978c0.656,-2.49 1.275,-4.801 1.831,-6.836 3.213,-11.752 4.352,-14.289 6.268,-15.451 1.916,-1.162 4.609,-0.951 15.609,6.989 11,7.939 30.309,23.607 40.537,31.966 10.227,8.358 11.373,9.406 11.452,10.591 0.011,0.167 0.001,0.335 -0.071,0.521l-55.907 19.769c-1.421,0.502 -2.994,-0.249 -3.497,-1.67l-16.222 -45.879z"/>
  <path class="fil4" d="M25.552 44.191c2.045,-0.196 5.57,1.293 14.154,7.489 11,7.939 30.309,23.607 40.537,31.966 10.227,8.358 11.373,9.406 11.452,10.591 0.011,0.167 0.001,0.335 -0.071,0.521l-39.414 13.937c0.165,-6.511 0.064,-15.954 -2.479,-22.569 -2.799,-7.286 -8.56,-11.139 -12.76,-15.954 -4.2,-4.814 -6.839,-10.591 -8.544,-15.072 -1.704,-4.482 -2.473,-7.667 -2.753,-9.618 -0.072,-0.503 -0.112,-0.923 -0.122,-1.291z"/>
  <path class="fil5" d="M15.023 66.719l0.968 -3.645 0.864 -3.195c1.617,-5.914 2.717,-9.522 3.662,-11.816 1.026,-2.491 1.915,-3.543 3.057,-4.235 1.206,-0.731 2.615,-1.047 5.289,0.005 2.362,0.929 5.859,3.005 11.435,7.029 5.535,3.996 13.121,9.904 20.597,15.854 7.336,5.839 14.792,11.905 19.986,16.15 5.147,4.206 8.007,6.572 9.579,8.024 1.824,1.685 2.185,2.419 2.243,3.28 0.008,0.136 0.007,0.279 -0.011,0.436 -0.019,0.171 -0.06,0.345 -0.129,0.52l-0.17 0.434 -56.338 19.921c-0.97,0.343 -1.996,0.257 -2.866,-0.158 -0.867,-0.411 -1.579,-1.155 -1.923,-2.129l-16.222 -45.879 -0.021 -0.596zm2.919 -3.128l-0.887 3.339 16.12 45.589c0.158,0.447 0.486,0.789 0.885,0.981 0.398,0.193 0.871,0.231 1.32,0.072l55.236 -19.531c-0.141,-0.302 -0.531,-0.748 -1.527,-1.668 -1.577,-1.457 -4.405,-3.796 -9.485,-7.948 -5.033,-4.113 -12.346,-10.061 -19.97,-16.13 -7.485,-5.958 -15.056,-11.855 -20.519,-15.799 -5.424,-3.914 -8.776,-5.913 -10.989,-6.784 -1.901,-0.748 -2.796,-0.588 -3.506,-0.158 -0.774,0.469 -1.412,1.269 -2.238,3.274 -0.907,2.202 -1.984,5.74 -3.58,11.578l-0.86 3.185z"/>
  <circle class="fil6" transform="matrix(0.636172 -0.22495 0.224945 0.636185 51.6081 34.7574)" r="7.812"/>
  <path class="fil7" d="M49.401 28.516c1.725,-0.608 3.532,-0.462 5.059,0.267l0 0.005c1.53,0.732 2.782,2.044 3.39,3.764 0.607,1.72 0.459,3.527 -0.272,5.057 -0.731,1.529 -2.043,2.78 -3.765,3.389 -1.719,0.607 -3.526,0.459 -5.057,-0.273 -1.529,-0.73 -2.779,-2.043 -3.388,-3.764 -0.61,-1.724 -0.464,-3.53 0.264,-5.056 0.73,-1.528 2.044,-2.779 3.769,-3.389zm0.449 1.27c2.744,-0.969 5.758,0.469 6.73,3.214 0.968,2.745 -0.469,5.756 -3.214,6.727 -2.746,0.969 -5.756,-0.469 -6.728,-3.213 -0.971,-2.746 0.466,-5.757 3.212,-6.728z"/>
  <path class="fil8" d="M3.102 22.281l62.445 -22.08c1.144,-0.399 2.346,-0.298 3.36,0.185l0.163 0.089c0.949,0.502 1.721,1.346 2.105,2.43l30.227 85.49c0.407,1.15 0.307,2.359 -0.179,3.378l-0.089 0.163c-0.501,0.949 -1.345,1.721 -2.429,2.105l-62.428 22.074c-1.149,0.406 -2.358,0.307 -3.378,-0.18l-0.162 -0.088c-0.949,-0.502 -1.721,-1.346 -2.105,-2.43l-30.228 -85.491c-0.406,-1.149 -0.307,-2.358 0.179,-3.378l0.09 -0.163c0.501,-0.948 1.345,-1.721 2.429,-2.104zm63.447 -18.863l-62.327 22.039c-0.244,0.086 -0.437,0.255 -0.559,0.462l-0.035 0.079c-0.118,0.248 -0.144,0.538 -0.048,0.809l30.228 85.49c0.086,0.244 0.254,0.437 0.461,0.558l0.08 0.036c0.248,0.118 0.538,0.143 0.809,0.048l62.426 -22.074c0.244,-0.086 0.438,-0.255 0.56,-0.462l0.035 -0.08c0.117,-0.246 0.143,-0.538 0.048,-0.808l-30.253 -85.552c-0.091,-0.215 -0.248,-0.386 -0.437,-0.497l-0.079 -0.035c-0.228,-0.109 -0.494,-0.139 -0.746,-0.068l-0.163 0.055z"/>
  <rect class="fil0" x="40.619" y="14.418" width="71.695" height="96.158" rx="2.741" ry="2.741"/>
  <path class="fil9" d="M72.591 97.818c4.497,-7.091 13.098,-20.024 18.087,-27.214 4.991,-7.189 6.369,-8.634 7.944,-8.962 1.576,-0.327 3.349,0.46 8.897,8.47 1.401,2.023 3.043,4.507 4.795,7.221l0 30.503c0,1.507 -1.233,2.74 -2.74,2.74l-52.726 0c0.097,-0.051 0.202,-0.101 0.314,-0.152 2.002,-0.919 6.073,-1.969 8.305,-3.119 2.232,-1.148 2.627,-2.395 7.124,-9.487z"/>
  <path class="fil10" d="M71.737 97.277c2.226,-3.508 5.498,-8.512 8.852,-13.557 3.326,-5.005 6.735,-10.052 9.261,-13.69 2.515,-3.626 4.131,-5.814 5.33,-7.152 1.34,-1.496 2.239,-2.017 3.238,-2.226 1.074,-0.221 2.178,-0.093 3.823,1.335 1.394,1.21 3.28,3.469 6.107,7.551 0.729,1.051 1.492,2.181 2.279,3.368 0.812,1.223 1.663,2.527 2.538,3.882l0.162 0.546 0 30.501c0,1.033 -0.422,1.972 -1.102,2.652 -0.683,0.678 -1.621,1.102 -2.651,1.102l-52.725 0 -0.474 -1.902c0.136,-0.072 0.259,-0.133 0.372,-0.185 0.935,-0.425 2.234,-0.862 3.602,-1.321 1.68,-0.564 3.469,-1.164 4.655,-1.774 1.535,-0.791 2.117,-1.726 4.473,-5.52 0.642,-1.034 1.406,-2.264 2.26,-3.61zm10.536 -12.442c-3.304,4.971 -6.564,9.957 -8.828,13.525 -0.946,1.492 -1.657,2.635 -2.253,3.594 -2.591,4.173 -3.229,5.201 -5.263,6.248 -0.928,0.477 -2.131,0.93 -3.376,1.362l47.021 0c0.477,0 0.909,-0.194 1.22,-0.505 0.314,-0.317 0.509,-0.75 0.509,-1.224l0 -30.206c-0.819,-1.268 -1.611,-2.479 -2.359,-3.608 -0.822,-1.238 -1.582,-2.365 -2.256,-3.338 -2.72,-3.926 -4.494,-6.065 -5.767,-7.17 -1.018,-0.884 -1.589,-0.988 -2.092,-0.885 -0.578,0.121 -1.157,0.488 -2.148,1.593 -1.131,1.264 -2.7,3.394 -5.171,6.955 -2.475,3.566 -5.879,8.607 -9.237,13.659z"/>
  <path class="fil11" d="M40.619 59.174c1.448,-2.129 2.802,-4.102 4.004,-5.835 6.947,-10.009 8.867,-12.021 11.061,-12.478 2.194,-0.456 4.662,0.64 12.387,11.792 7.723,11.154 20.705,32.362 27.56,43.652 6.857,11.289 7.588,12.66 7.268,13.803 -0.046,0.161 -0.111,0.317 -0.242,0.468l-59.298 0c-1.507,0 -2.74,-1.233 -2.74,-2.74l0 -48.662z"/>
  <path class="fil12" d="M57.222 40.875c1.994,0.497 4.821,3.077 10.849,11.778 7.723,11.154 20.705,32.362 27.56,43.652 6.857,11.289 7.588,12.66 7.268,13.803 -0.046,0.161 -0.111,0.317 -0.242,0.468l-41.805 0c2.326,-6.084 5.379,-15.021 5.187,-22.105 -0.211,-7.801 -4.357,-13.354 -6.712,-19.294 -2.355,-5.94 -2.918,-12.266 -3.03,-17.059 -0.113,-4.793 0.223,-8.052 0.61,-9.986 0.099,-0.498 0.202,-0.907 0.315,-1.257z"/>
  <path class="fil13" d="M39.785 58.605l2.127 -3.114 1.881 -2.725c3.496,-5.037 5.736,-8.071 7.392,-9.92 1.797,-2.006 2.986,-2.701 4.293,-2.973 1.381,-0.287 2.815,-0.115 4.985,1.768 1.918,1.663 4.522,4.786 8.437,10.44 3.887,5.612 9.07,13.711 14.135,21.814 4.969,7.95 9.977,16.154 13.459,21.888 3.45,5.681 5.358,8.865 6.356,10.758 1.157,2.197 1.253,3.01 1.021,3.839 -0.037,0.132 -0.086,0.267 -0.156,0.409 -0.075,0.155 -0.171,0.305 -0.294,0.447l-0.306 0.352 -59.756 0c-1.029,0 -1.967,-0.423 -2.649,-1.103 -0.681,-0.677 -1.104,-1.616 -1.104,-2.649l0 -48.662 0.179 -0.569zm3.796 -1.976l-1.95 2.852 0 48.355c0,0.474 0.195,0.906 0.508,1.219 0.311,0.315 0.744,0.509 1.22,0.509l58.588 0c-0.033,-0.332 -0.252,-0.882 -0.884,-2.083 -1.001,-1.898 -2.888,-5.046 -6.293,-10.654 -3.374,-5.555 -8.286,-13.602 -13.451,-21.865 -5.071,-8.112 -10.242,-16.196 -14.079,-21.735 -3.808,-5.499 -6.302,-8.501 -8.097,-10.06 -1.544,-1.339 -2.441,-1.486 -3.254,-1.318 -0.886,0.185 -1.754,0.726 -3.202,2.341 -1.588,1.774 -3.783,4.75 -7.234,9.722l-1.872 2.717z"/>
  <circle class="fil6" cx="84.932" cy="40.667" r="5.272"/>
  <path class="fil7" d="M84.932 34.046c1.824,0 3.479,0.741 4.677,1.939 1.202,1.201 1.945,2.855 1.945,4.68 0,1.829 -0.742,3.485 -1.94,4.683 -1.198,1.199 -2.854,1.94 -4.682,1.94 -1.824,0 -3.48,-0.744 -4.681,-1.946 -1.197,-1.198 -1.938,-2.853 -1.938,-4.677 0,-1.827 0.741,-3.482 1.938,-4.679 1.198,-1.199 2.853,-1.94 4.681,-1.94zm0 1.35c2.912,0 5.273,2.358 5.273,5.269 0,2.912 -2.361,5.274 -5.273,5.274 -2.909,0 -5.271,-2.362 -5.271,-5.274 0,-2.911 2.362,-5.269 5.271,-5.269z"/>
  <path class="fil8" d="M43.359 12.731l66.215 0c1.219,0 2.327,0.499 3.128,1.299l0.109 0.121c0.737,0.794 1.19,1.853 1.19,3.008l0 90.677c0,1.212 -0.498,2.317 -1.299,3.121l-0.011 0.01c-0.804,0.8 -1.907,1.296 -3.117,1.296l-66.215 0c-1.213,0 -2.32,-0.499 -3.124,-1.303l-0.004 0.004c-0.801,-0.801 -1.299,-1.909 -1.299,-3.128l0 -90.677c0,-1.219 0.498,-2.328 1.299,-3.129 0.801,-0.8 1.909,-1.299 3.128,-1.299zm66.215 3.374l-66.215 0c-0.287,0 -0.551,0.119 -0.743,0.311 -0.191,0.191 -0.31,0.455 -0.31,0.743l0 90.677c0,0.287 0.119,0.551 0.31,0.742l0 0.007c0.188,0.187 0.45,0.304 0.743,0.304l66.215 0c0.292,0 0.555,-0.116 0.742,-0.304l0.007 -0.007c0.188,-0.187 0.304,-0.45 0.304,-0.742l0 -90.677c0,-0.265 -0.095,-0.505 -0.252,-0.687l-0.059 -0.056c-0.191,-0.192 -0.455,-0.311 -0.742,-0.311z"/>
  <polygon class="fil14" points="49.717,135.194 59.176,135.194 59.176,137.861 52.53,137.861 52.53,141.486 58.509,141.486 58.509,144.152 52.53,144.152 52.53,150.111 49.717,150.111 "/>
  <path id="1" class="fil14" d="M65.218 139.569c0.792,0 1.517,0.136 2.177,0.406 0.66,0.271 1.229,0.646 1.708,1.125 0.479,0.48 0.854,1.052 1.125,1.719 0.271,0.667 0.406,1.396 0.406,2.188 0,0.791 -0.135,1.52 -0.406,2.187 -0.271,0.667 -0.646,1.24 -1.125,1.719 -0.479,0.479 -1.048,0.854 -1.708,1.125 -0.66,0.271 -1.385,0.406 -2.177,0.406 -0.792,0 -1.518,-0.135 -2.177,-0.406 -0.66,-0.271 -1.23,-0.646 -1.709,-1.125 -0.479,-0.479 -0.854,-1.052 -1.125,-1.719 -0.271,-0.667 -0.406,-1.396 -0.406,-2.187 0,-0.792 0.135,-1.521 0.406,-2.188 0.271,-0.667 0.646,-1.239 1.125,-1.719 0.479,-0.479 1.049,-0.854 1.709,-1.125 0.659,-0.27 1.385,-0.406 2.177,-0.406zm0 8.354c0.347,0 0.683,-0.066 1.01,-0.197 0.327,-0.133 0.615,-0.323 0.865,-0.573 0.249,-0.251 0.448,-0.556 0.594,-0.917 0.145,-0.361 0.218,-0.771 0.218,-1.229 0,-0.459 -0.073,-0.868 -0.218,-1.23 -0.146,-0.361 -0.345,-0.666 -0.594,-0.916 -0.25,-0.25 -0.538,-0.441 -0.865,-0.573 -0.327,-0.132 -0.663,-0.198 -1.01,-0.198 -0.361,0 -0.702,0.066 -1.021,0.198 -0.319,0.132 -0.605,0.323 -0.854,0.573 -0.25,0.25 -0.448,0.555 -0.594,0.916 -0.146,0.362 -0.219,0.771 -0.219,1.23 0,0.458 0.073,0.868 0.219,1.229 0.146,0.361 0.344,0.666 0.594,0.917 0.249,0.25 0.535,0.44 0.854,0.573 0.319,0.131 0.66,0.197 1.021,0.197z"/>
  <path id="2" class="fil14" d="M73.197 142.236l-1.792 0 0 -2.334 1.792 0 0 -3.125 2.729 0 0 3.125 2.5 0 0 2.334 -2.5 0 0 4.08c0,0.243 0.024,0.468 0.073,0.677 0.049,0.205 0.143,0.382 0.282,0.524 0.194,0.229 0.471,0.344 0.833,0.344 0.236,0 0.423,-0.024 0.562,-0.073 0.139,-0.049 0.271,-0.115 0.396,-0.198l0.771 2.396c-0.32,0.153 -0.663,0.267 -1.031,0.343 -0.369,0.077 -0.775,0.115 -1.219,0.115 -0.514,0 -0.976,-0.08 -1.386,-0.243 -0.409,-0.163 -0.753,-0.389 -1.031,-0.67 -0.653,-0.639 -0.979,-1.545 -0.979,-2.723l0 -4.572z"/>
  <path id="3" class="fil14" d="M85.155 139.569c0.792,0 1.518,0.136 2.178,0.406 0.659,0.271 1.229,0.646 1.708,1.125 0.479,0.48 0.854,1.052 1.125,1.719 0.271,0.667 0.406,1.396 0.406,2.188 0,0.791 -0.135,1.52 -0.406,2.187 -0.271,0.667 -0.646,1.24 -1.125,1.719 -0.479,0.479 -1.049,0.854 -1.708,1.125 -0.66,0.271 -1.386,0.406 -2.178,0.406 -0.791,0 -1.517,-0.135 -2.176,-0.406 -0.661,-0.271 -1.23,-0.646 -1.709,-1.125 -0.479,-0.479 -0.854,-1.052 -1.125,-1.719 -0.271,-0.667 -0.406,-1.396 -0.406,-2.187 0,-0.792 0.135,-1.521 0.406,-2.188 0.271,-0.667 0.646,-1.239 1.125,-1.719 0.479,-0.479 1.048,-0.854 1.709,-1.125 0.659,-0.27 1.385,-0.406 2.176,-0.406zm0 8.354c0.348,0 0.684,-0.066 1.011,-0.197 0.326,-0.133 0.615,-0.323 0.864,-0.573 0.25,-0.251 0.449,-0.556 0.595,-0.917 0.145,-0.361 0.218,-0.771 0.218,-1.229 0,-0.459 -0.073,-0.868 -0.218,-1.23 -0.146,-0.361 -0.345,-0.666 -0.595,-0.916 -0.249,-0.25 -0.538,-0.441 -0.864,-0.573 -0.327,-0.132 -0.663,-0.198 -1.011,-0.198 -0.36,0 -0.701,0.066 -1.021,0.198 -0.319,0.132 -0.604,0.323 -0.854,0.573 -0.249,0.25 -0.447,0.555 -0.593,0.916 -0.146,0.362 -0.219,0.771 -0.219,1.23 0,0.458 0.073,0.868 0.219,1.229 0.146,0.361 0.344,0.666 0.593,0.917 0.25,0.25 0.535,0.44 0.854,0.573 0.32,0.131 0.661,0.197 1.021,0.197z"/>
  <path class="fil15" d="M31.063 135.096l3.053 0c0.374,0 0.679,0.306 0.679,0.68l0 5.567 5.568 0c0.373,0 0.678,0.305 0.678,0.678l0 3.054c0,0.374 -0.305,0.679 -0.678,0.679l-5.568 0 0 5.569c0,0.373 -0.305,0.678 -0.679,0.678l-3.053 0c-0.374,0 -0.679,-0.305 -0.679,-0.678l0 -5.569 -5.568 0c-0.374,0 -0.679,-0.305 -0.679,-0.679l0 -3.054c0,-0.373 0.305,-0.678 0.679,-0.678l5.568 0 0 -5.567c0,-0.374 0.305,-0.68 0.679,-0.68z"/>
 </g>
</svg>
